Samaano-Wide-Bold.ufo
<glyph name=".notdef" format="2">
  <advance width="2048"/>
  <unicode hex="0000"/>
  <outline>
    <contour>
      <point x="524" y="0" type="line"/>
      <point x="524" y="64" type="line"/>
      <point x="524" y="1632" type="line"/>
      <point x="1522" y="1640" type="line"/>
      <point x="1524" y="0" type="line"/>
      <point x="1454" y="0" type="line"/>
      <point x="594" y="0" type="line"/>
    </contour>
    <contour>
      <point x="594" y="64" type="line"/>
      <point x="991" y="827" type="line"/>
      <point x="598" y="1546" type="line"/>
    </contour>
    <contour>
      <point x="690" y="64" type="line"/>
      <point x="1370" y="64" type="line"/>
      <point x="1029" y="750" type="line"/>
    </contour>
    <contour>
      <point x="718" y="1548" type="line"/>
      <point x="1031" y="909" type="line"/>
      <point x="1349" y="1558" type="line"/>
    </contour>
    <contour>
      <point x="1069" y="832" type="line"/>
      <point x="1453" y="64" type="line"/>
      <point x="1445" y="1559" type="line"/>
    </contour>
  </outline>
</glyph>
<glyph name="exclam" format="2">
  <advance width="2048"/>
  <unicode hex="0021"/>
  <outline>
    <contour>
      <point x="952.0" y="126.0" type="line"/>
      <point x="1096.0" y="126.0" type="line"/>
      <point x="1096.0" y="374.0" type="line"/>
      <point x="952.0" y="374.0" type="line"/>
    </contour>
    <contour>
      <point x="962.0" y="611.0" type="line"/>
      <point x="1090.0" y="611.0" type="line"/>
      <point x="1090.0" y="1629.0" type="line"/>
      <point x="962.0" y="1629.0" type="line"/>
    </contour>
  </outline>
</glyph>
<glyph name="quotedbl" format="2">
  <advance width="2048"/>
  <unicode hex="0022"/>
  <outline>
    <contour>
      <point x="752.0" y="1326.0" type="line"/>
      <point x="896.0" y="1326.0" type="line"/>
      <point x="896.0" y="1574.0" type="line"/>
      <point x="752.0" y="1574.0" type="line"/>
    </contour>
    <contour>
      <point x="1152.0" y="1326.0" type="line"/>
      <point x="1296.0" y="1326.0" type="line"/>
      <point x="1296.0" y="1574.0" type="line"/>
      <point x="1152.0" y="1574.0" type="line"/>
    </contour>
  </outline>
</glyph>
<glyph name="numbersign" format="2">
  <advance width="2048"/>
  <unicode hex="0023"/>
  <outline>
    <contour>
      <point x="740.0" y="1347.0" type="line"/>
      <point x="740.0" y="313.0" type="line"/>
      <point x="880.0" y="313.0" type="line"/>
      <point x="880.0" y="1347.0" type="line"/>
    </contour>
    <contour>
      <point x="1152.0" y="1350.0" type="line"/>
      <point x="1152.0" y="279.0" type="line"/>
      <point x="1318.0" y="279.0" type="line"/>
      <point x="1318.0" y="1350.0" type="line"/>
    </contour>
    <contour>
      <point x="612.0" y="1157.0" type="line"/>
      <point x="612.0" y="1010.0" type="line"/>
      <point x="1430.0" y="1010.0" type="line"/>
      <point x="1430.0" y="1157.0" type="line"/>
    </contour>
    <contour>
      <point x="612.0" y="767.0" type="line"/>
      <point x="612.0" y="592.0" type="line"/>
      <point x="1438.0" y="592.0" type="line"/>
      <point x="1438.0" y="767.0" type="line"/>
    </contour>
  </outline>
</glyph>
<glyph name="dollar" format="2">
	<unicode hex="0024"/>
	<advance width="2048"/>
	<outline>
		<contour>
			<point x="638" y="1537" type="line"/>
			<point x="638" y="1358" type="line"/>
			<point x="1236" y="1358" type="line"/>
			<point x="1236" y="1537" type="line"/>
		</contour>
		<contour>
			<point x="638" y="1542" type="line"/>
			<point x="638" y="1028" type="line"/>
			<point x="843" y="1028" type="line"/>
			<point x="843" y="1542" type="line"/>
		</contour>
		<contour>
			<point x="666" y="163" type="line"/>
			<point x="666" y="0" type="line"/>
			<point x="1374" y="0" type="line"/>
			<point x="1374" y="163" type="line"/>
		</contour>
		<contour>
			<point x="1204" y="0" type="line"/>
			<point x="1410" y="0" type="line"/>
			<point x="1410" y="355" type="line"/>
			<point x="1204" y="355" type="line"/>
		</contour>
		<contour>
			<point x="638" y="1028" type="line"/>
			<point x="1204" y="355" type="line"/>
			<point x="1410" y="355" type="line"/>
			<point x="843" y="1028" type="line"/>
		</contour>
		<contour>
			<point x="897" y="1636" type="line"/>
			<point x="897" y="-215" type="line"/>
			<point x="1111" y="-215" type="line"/>
			<point x="1111" y="1636" type="line"/>
		</contour>
	</outline>
</glyph>
<glyph name="percent" format="2">
  <advance width="2048"/>
  <unicode hex="0025"/>
  <outline>
    <contour>
      <point x="590" y="522" type="line"/>
      <point x="634" y="377" type="line"/>
      <point x="1458" y="716" type="line"/>
      <point x="1414" y="860" type="line"/>
    </contour>
    <contour>
      <point x="730" y="1148" type="line"/>
      <point x="730" y="822" type="line"/>
      <point x="808" y="822" type="line"/>
      <point x="808" y="1148" type="line"/>
    </contour>
    <contour>
      <point x="730" y="1152" type="line"/>
      <point x="730" y="1057" type="line"/>
      <point x="1078" y="1057" type="line"/>
      <point x="1078" y="1152" type="line"/>
    </contour>
    <contour>
      <point x="730" y="871" type="line"/>
      <point x="730" y="789" type="line"/>
      <point x="1074" y="789" type="line"/>
      <point x="1074" y="871" type="line"/>
    </contour>
    <contour>
      <point x="986" y="1152" type="line"/>
      <point x="986" y="791" type="line"/>
      <point x="1078" y="791" type="line"/>
      <point x="1078" y="1152" type="line"/>
    </contour>
    <contour>
      <point x="1058" y="436" type="line"/>
      <point x="1058" y="110" type="line"/>
      <point x="1136" y="110" type="line"/>
      <point x="1136" y="436" type="line"/>
    </contour>
    <contour>
      <point x="1058" y="440" type="line"/>
      <point x="1058" y="345" type="line"/>
      <point x="1404" y="345" type="line"/>
      <point x="1404" y="440" type="line"/>
    </contour>
    <contour>
      <point x="1058" y="159" type="line"/>
      <point x="1058" y="77" type="line"/>
      <point x="1402" y="77" type="line"/>
      <point x="1402" y="159" type="line"/>
    </contour>
    <contour>
      <point x="1312" y="440" type="line"/>
      <point x="1312" y="79" type="line"/>
      <point x="1404" y="79" type="line"/>
      <point x="1404" y="440" type="line"/>
    </contour>
  </outline>
</glyph>
<glyph name="ampersand" format="2">
  <advance width="2048"/>
  <unicode hex="0026"/>
  <outline>
    <contour>
      <point x="772.0" y="1537.0" type="line"/>
      <point x="1220.0" y="12.0" type="line"/>
      <point x="1366.0" y="56.0" type="line"/>
      <point x="934.0" y="1537.0" type="line"/>
    </contour>
    <contour>
      <point x="1316.0" y="1401.0" type="line"/>
      <point x="1316.0" y="1537.0" type="line"/>
      <point x="850.0" y="1537.0" type="line"/>
      <point x="850.0" y="1401.0" type="line"/>
    </contour>
    <contour>
      <point x="1156.0" y="1446.0" type="line"/>
      <point x="1156.0" y="917.0" type="line"/>
      <point x="1316.0" y="917.0" type="line"/>
      <point x="1316.0" y="1446.0" type="line"/>
    </contour>
    <contour>
      <point x="620.0" y="1045.0" type="line"/>
      <point x="620.0" y="843.0" type="line"/>
      <point x="1316.0" y="843.0" type="line"/>
      <point x="1316.0" y="1045.0" type="line"/>
    </contour>
    <contour>
      <point x="620.0" y="1045.0" type="line"/>
      <point x="620.0" y="24.0" type="line"/>
      <point x="830.0" y="24.0" type="line"/>
      <point x="830.0" y="1045.0" type="line"/>
    </contour>
    <contour>
      <point x="620.0" y="190.0" type="line"/>
      <point x="620.0" y="6.0" type="line"/>
      <point x="1428.0" y="6.0" type="line"/>
      <point x="1428.0" y="190.0" type="line"/>
    </contour>
  </outline>
</glyph>
<glyph name="quotesingle" format="2">
  <advance width="2048"/>
  <unicode hex="0027"/>
  <outline>
    <contour>
      <point x="959.0" y="1496.0" type="line"/>
      <point x="959.0" y="1264.0" type="line"/>
      <point x="1089.0" y="1264.0" type="line"/>
      <point x="1089.0" y="1496.0" type="line"/>
    </contour>
  </outline>
</glyph>
<glyph name="parenleft" format="2">
  <advance width="2048"/>
  <unicode hex="0028"/>
  <outline>
    <contour>
      <point x="836.0" y="1023.0" type="line"/>
      <point x="836.0" y="179.0" type="line"/>
      <point x="1026.0" y="179.0" type="line"/>
      <point x="1026.0" y="1023.0" type="line"/>
    </contour>
    <contour>
      <point x="1154.0" y="1633.0" type="line"/>
      <point x="836.0" y="1028.0" type="line"/>
      <point x="1024.0" y="1028.0" type="line"/>
      <point x="1184.0" y="1640.0" type="line"/>
    </contour>
    <contour>
      <point x="836.0" y="179.0" type="line"/>
      <point x="1180.0" y="-406.0" type="line"/>
      <point x="1212.0" y="-406.0" type="line"/>
      <point x="1026.0" y="179.0" type="line"/>
    </contour>
  </outline>
</glyph>
<glyph name="parenright" format="2">
  <advance width="2048"/>
  <unicode hex="0029"/>
  <outline>
    <contour>
      <point x="1000.0" y="1023.0" type="line"/>
      <point x="1000.0" y="179.0" type="line"/>
      <point x="1190.0" y="179.0" type="line"/>
      <point x="1190.0" y="1023.0" type="line"/>
    </contour>
    <contour>
      <point x="858.0" y="1629.0" type="line"/>
      <point x="1000.0" y="1023.0" type="line"/>
      <point x="1190.0" y="1023.0" type="line"/>
      <point x="896.0" y="1629.0" type="line"/>
    </contour>
    <contour>
      <point x="1000.0" y="179.0" type="line"/>
      <point x="858.0" y="-406.0" type="line"/>
      <point x="886.0" y="-406.0" type="line"/>
      <point x="1190.0" y="179.0" type="line"/>
    </contour>
  </outline>
</glyph>
<glyph name="asterisk" format="2">
  <advance width="2048"/>
  <unicode hex="002A"/>
  <outline>
    <contour>
      <point x="934.0" y="1297.0" type="line"/>
      <point x="934.0" y="300.0" type="line"/>
      <point x="1164.0" y="300.0" type="line"/>
      <point x="1164.0" y="1297.0" type="line"/>
    </contour>
    <contour>
      <point x="577.0" y="1099.0" type="line"/>
      <point x="1305.0" y="360.0" type="line"/>
      <point x="1464.0" y="504.0" type="line"/>
      <point x="732.0" y="1241.0" type="line"/>
    </contour>
    <contour>
      <point x="1329.0" y="1232.0" type="line"/>
      <point x="606.0" y="525.0" type="line"/>
      <point x="748.0" y="372.0" type="line"/>
      <point x="1471.0" y="1079.0" type="line"/>
    </contour>
  </outline>
</glyph>
<glyph name="plus" format="2">
	<unicode hex="002B"/>
	<advance width="2048"/>
	<outline>
		<contour>
			<point x="896" y="1221" type="line"/>
			<point x="896" y="165" type="line"/>
			<point x="1121" y="165" type="line"/>
			<point x="1121" y="1221" type="line"/>
		</contour>
		<contour>
			<point x="573" y="821" type="line"/>
			<point x="573" y="613" type="line"/>
			<point x="1475" y="613" type="line"/>
			<point x="1475" y="821" type="line"/>
		</contour>
	</outline>
</glyph>
<glyph name="comma" format="2">
  <advance width="2048"/>
  <unicode hex="002C"/>
  <outline>
    <contour>
      <point x="909.5" y="237" type="line"/>
      <point x="909.5" y="8" type="line"/>
      <point x="1157.5" y="8" type="line"/>
      <point x="1157.5" y="237" type="line"/>
    </contour>
    <contour>
      <point x="1008.5" y="135" type="line"/>
      <point x="890.5" y="-146" type="line"/>
      <point x="1033.5" y="-206" type="line"/>
      <point x="1155.5" y="4" type="line"/>
    </contour>
  </outline>
</glyph>
<glyph name="hyphen" format="2">
	<unicode hex="002D"/>
	<advance width="2048"/>
	<outline>
		<contour>
			<point x="611" y="808" type="line"/>
			<point x="611" y="600" type="line"/>
			<point x="1437" y="600" type="line"/>
			<point x="1437" y="808" type="line"/>
		</contour>
	</outline>
</glyph>
<glyph name="period" format="2">
  <advance width="2048"/>
  <unicode hex="002E"/>
  <outline>
    <contour>
      <point x="891.5" y="246" type="line"/>
      <point x="891.5" y="-1" type="line"/>
      <point x="1156.5" y="-1" type="line"/>
      <point x="1156.5" y="246" type="line"/>
    </contour>
  </outline>
</glyph>
<glyph name="slash" format="2">
  <advance width="2048"/>
  <unicode hex="002F"/>
  <outline>
    <contour>
      <point x="1215.0" y="1483.0" type="line"/>
      <point x="645.0" y="6.0" type="line"/>
      <point x="833.0" y="-67.0" type="line"/>
      <point x="1403.0" y="1410.0" type="line"/>
    </contour>
  </outline>
</glyph>
<glyph name="zero" format="2">
  <advance width="2048"/>
  <unicode hex="0030"/>
  <outline>
    <contour>
      <point x="412" y="908" type="line"/>
      <point x="1637" y="908" type="line"/>
      <point x="1637" y="708" type="line"/>
      <point x="412" y="708" type="line"/>
    </contour>
    <contour>
      <point x="295" y="1359" type="line"/>
      <point x="1754" y="1359" type="line"/>
      <point x="1753" y="208" type="line"/>
      <point x="295" y="208" type="line"/>
    </contour>
    <contour>
      <point x="93" y="1559" type="line"/>
      <point x="93" y="7" type="line"/>
      <point x="1954" y="7" type="line"/>
      <point x="1954" y="1559" type="line"/>
    </contour>
  </outline>
</glyph>
<glyph name="one" format="2">
  <advance width="2048"/>
  <unicode hex="0031"/>
  <outline>
    <contour>
      <point x="1021.5" y="0" type="line"/>
      <point x="1220.5" y="0" type="line"/>
      <point x="1220.5" y="1551" type="line"/>
      <point x="1021.5" y="1551" type="line"/>
    </contour>
    <contour>
      <point x="1025.5" y="1549" type="line"/>
      <point x="827.5" y="1252" type="line"/>
      <point x="977.5" y="1152" type="line"/>
      <point x="1175.5" y="1449" type="line"/>
    </contour>
  </outline>
</glyph>
<glyph name="two" format="2">
  <advance width="2048"/>
  <unicode hex="0032"/>
  <outline>
    <contour>
      <point x="109" y="1344" type="line"/>
      <point x="1742" y="1344" type="line"/>
      <point x="1742" y="908" type="line"/>
      <point x="116" y="908" type="line"/>
      <point x="116" y="0" type="line"/>
      <point x="1928" y="0" type="line"/>
      <point x="1928" y="200" type="line"/>
      <point x="319" y="200" type="line"/>
      <point x="319" y="707" type="line"/>
      <point x="1942" y="707" type="line"/>
      <point x="1942" y="1548" type="line"/>
      <point x="109" y="1548" type="line"/>
    </contour>
  </outline>
</glyph>
<glyph name="three" format="2">
  <advance width="2048"/>
  <unicode hex="0033"/>
  <outline>
    <contour>
      <point x="101.0" y="736.0" type="line"/>
      <point x="1783.0" y="736.0" type="line"/>
      <point x="1783.0" y="192.0" type="line"/>
      <point x="59.0" y="192.0" type="line"/>
      <point x="59.0" y="-8.0" type="line"/>
      <point x="1987.0" y="-8.0" type="line"/>
      <point x="1987.0" y="1553.0" type="line"/>
      <point x="89.0" y="1553.0" type="line"/>
      <point x="89.0" y="1353.0" type="line"/>
      <point x="1781.0" y="1353.0" type="line"/>
      <point x="1781.0" y="936.0" type="line"/>
      <point x="101.0" y="936.0" type="line"/>
    </contour>
  </outline>
</glyph>
<glyph name="four" format="2">
  <advance width="2048"/>
  <unicode hex="0034"/>
  <outline>
    <contour>
      <point x="91.0" y="761.0" type="line"/>
      <point x="1757.0" y="761.0" type="line"/>
      <point x="1757.0" y="7.0" type="line"/>
      <point x="1953.0" y="7.0" type="line"/>
      <point x="1953.0" y="1548.0" type="line"/>
      <point x="1754.0" y="1548.0" type="line"/>
      <point x="1754.0" y="961.0" type="line"/>
      <point x="291.0" y="961.0" type="line"/>
      <point x="291.0" y="1548.0" type="line"/>
      <point x="91.0" y="1548.0" type="line"/>
    </contour>
  </outline>
</glyph>
<glyph name="five" format="2">
  <advance width="2048"/>
  <unicode hex="0035"/>
  <outline>
    <contour>
      <point x="53.5" y="863" type="line"/>
      <point x="53.5" y="1619" type="line"/>
      <point x="256.5" y="1619" type="line"/>
      <point x="256.5" y="863" type="line"/>
    </contour>
    <contour>
      <point x="52.5" y="190" type="line"/>
      <point x="1991.5" y="188" type="line"/>
      <point x="1990.5" y="-2" type="line"/>
      <point x="49.5" y="0" type="line"/>
    </contour>
    <contour>
      <point x="54.5" y="1418" type="line"/>
      <point x="54.5" y="1629" type="line"/>
      <point x="1998.5" y="1641" type="line"/>
      <point x="1998.5" y="1418" type="line"/>
    </contour>
    <contour>
      <point x="53.5" y="759" type="line"/>
      <point x="53.5" y="986" type="line"/>
      <point x="1988.5" y="986" type="line"/>
      <point x="1988.5" y="759" type="line"/>
    </contour>
    <contour>
      <point x="1784.5" y="52" type="line"/>
      <point x="1784.5" y="947" type="line"/>
      <point x="1989.5" y="947" type="line"/>
      <point x="1989.5" y="52" type="line"/>
    </contour>
  </outline>
</glyph>
<glyph name="six" format="2">
  <advance width="2048"/>
  <unicode hex="0036"/>
  <outline>
    <contour>
      <point x="563.5" y="4" type="line"/>
      <point x="563.5" y="824" type="line"/>
      <point x="761.5" y="824" type="line"/>
      <point x="761.5" y="4" type="line"/>
    </contour>
    <contour>
      <point x="564.5" y="889" type="line"/>
      <point x="551.5" y="1600" type="line"/>
      <point x="755.5" y="1600" type="line"/>
      <point x="755.5" y="888" type="line"/>
    </contour>
    <contour>
      <point x="563.5" y="195" type="line"/>
      <point x="1488.5" y="201" type="line"/>
      <point x="1494.5" y="8" type="line"/>
      <point x="565.5" y="0" type="line"/>
    </contour>
    <contour>
      <point x="553.5" y="1418" type="line"/>
      <point x="552.5" y="1629" type="line"/>
      <point x="1496.5" y="1641" type="line"/>
      <point x="1496.5" y="1418" type="line"/>
    </contour>
    <contour>
      <point x="562.5" y="759" type="line"/>
      <point x="562.5" y="986" type="line"/>
      <point x="1486.5" y="986" type="line"/>
      <point x="1486.5" y="759" type="line"/>
    </contour>
    <contour>
      <point x="1284.5" y="51" type="line"/>
      <point x="1284.5" y="986" type="line"/>
      <point x="1493.5" y="986" type="line"/>
      <point x="1493.5" y="51" type="line"/>
    </contour>
  </outline>
</glyph>
<glyph name="seven" format="2">
  <advance width="2048"/>
  <unicode hex="0037"/>
  <outline>
    <contour>
      <point x="66" y="1418" type="line"/>
      <point x="66" y="1629" type="line"/>
      <point x="1971" y="1641" type="line"/>
      <point x="1971" y="1418" type="line"/>
    </contour>
    <contour>
      <point x="1764" y="866" type="line"/>
      <point x="1755" y="1636" type="line"/>
      <point x="1979" y="1644" type="line"/>
      <point x="1982" y="867" type="line"/>
    </contour>
    <contour>
      <point x="1766" y="0" type="line"/>
      <point x="1763" y="923" type="line"/>
      <point x="1982" y="923" type="line"/>
      <point x="1982" y="0" type="line"/>
    </contour>
  </outline>
</glyph>
<glyph name="eight" format="2">
  <advance width="2048"/>
  <unicode hex="0038"/>
  <outline>
    <contour>
      <point x="56" y="1548" type="line"/>
      <point x="56" y="0" type="line"/>
      <point x="1993" y="0" type="line"/>
      <point x="1993" y="1548" type="line"/>
    </contour>
    <contour>
      <point x="1791" y="759" type="line"/>
      <point x="1791" y="197" type="line"/>
      <point x="260" y="197" type="line"/>
      <point x="260" y="759" type="line"/>
    </contour>
    <contour>
      <point x="1792" y="959" type="line"/>
      <point x="260" y="959" type="line"/>
      <point x="260" y="1350" type="line"/>
      <point x="1792" y="1350" type="line"/>
    </contour>
  </outline>
</glyph>
<glyph name="nine" format="2">
  <advance width="2048"/>
  <unicode hex="0039"/>
  <outline>
    <contour>
      <point x="51.5" y="868" type="line"/>
      <point x="51.5" y="1624" type="line"/>
      <point x="254.5" y="1624" type="line"/>
      <point x="254.5" y="868" type="line"/>
    </contour>
    <contour>
      <point x="128.5" y="205" type="line"/>
      <point x="1906.5" y="208" type="line"/>
      <point x="1909.5" y="-1" type="line"/>
      <point x="140.5" y="-1" type="line"/>
    </contour>
    <contour>
      <point x="52.5" y="1419" type="line"/>
      <point x="51.5" y="1640" type="line"/>
      <point x="1986.5" y="1637" type="line"/>
      <point x="1987.5" y="1416" type="line"/>
    </contour>
    <contour>
      <point x="51.5" y="759" type="line"/>
      <point x="51.5" y="986" type="line"/>
      <point x="1991.5" y="986" type="line"/>
      <point x="1991.5" y="759" type="line"/>
    </contour>
    <contour>
      <point x="1791.5" y="1" type="line"/>
      <point x="1792.5" y="838" type="line"/>
      <point x="1992.5" y="833" type="line"/>
      <point x="1996.5" y="0" type="line"/>
    </contour>
    <contour>
      <point x="1792.5" y="879" type="line"/>
      <point x="1792.5" y="1511" type="line"/>
      <point x="1986.5" y="1511" type="line"/>
      <point x="1991.5" y="879" type="line"/>
    </contour>
  </outline>
</glyph>
<glyph name="colon" format="2">
  <advance width="2048"/>
  <unicode hex="003A"/>
  <outline>
    <contour>
      <point x="911.5" y="430" type="line"/>
      <point x="911.5" y="201" type="line"/>
      <point x="1159.5" y="201" type="line"/>
      <point x="1159.5" y="430" type="line"/>
    </contour>
    <contour>
      <point x="888.5" y="1294" type="line"/>
      <point x="888.5" y="1047" type="line"/>
      <point x="1153.5" y="1047" type="line"/>
      <point x="1153.5" y="1294" type="line"/>
    </contour>
  </outline>
</glyph>
<glyph name="semicolon" format="2">
  <advance width="2048"/>
  <unicode hex="003B"/>
  <outline>
    <contour>
      <point x="912" y="430" type="line"/>
      <point x="912" y="201" type="line"/>
      <point x="1160" y="201" type="line"/>
      <point x="1160" y="430" type="line"/>
    </contour>
    <contour>
      <point x="1010" y="328" type="line"/>
      <point x="892" y="47" type="line"/>
      <point x="1036" y="-13" type="line"/>
      <point x="1158" y="197" type="line"/>
    </contour>
    <contour>
      <point x="888" y="871" type="line"/>
      <point x="888" y="624" type="line"/>
      <point x="1154" y="624" type="line"/>
      <point x="1154" y="871" type="line"/>
    </contour>
  </outline>
</glyph>
<glyph name="less" format="2">
  <advance width="2048"/>
  <unicode hex="003C"/>
  <outline>
    <contour>
      <point x="614.0" y="777.0" type="line"/>
      <point x="614.0" y="569.0" type="line"/>
      <point x="1432.0" y="807.0" type="line"/>
      <point x="1432.0" y="1013.0" type="line"/>
    </contour>
    <contour>
      <point x="614.0" y="777.0" type="line"/>
      <point x="614.0" y="569.0" type="line"/>
      <point x="1430.0" y="122.0" type="line"/>
      <point x="1430.0" y="319.0" type="line"/>
    </contour>
  </outline>
</glyph>
<glyph name="equal" format="2">
  <advance width="2048"/>
  <unicode hex="003D"/>
  <outline>
    <contour>
      <point x="616" y="914" type="line"/>
      <point x="616" y="724" type="line"/>
      <point x="1432" y="724" type="line"/>
      <point x="1432" y="914" type="line"/>
    </contour>
    <contour>
      <point x="616" y="540" type="line"/>
      <point x="616" y="350" type="line"/>
      <point x="1432" y="350" type="line"/>
      <point x="1432" y="540" type="line"/>
    </contour>
  </outline>
</glyph>
<glyph name="greater" format="2">
  <advance width="2048"/>
  <unicode hex="003E"/>
  <outline>
    <contour>
      <point x="1436" y="777" type="line"/>
      <point x="614" y="1013" type="line"/>
      <point x="614" y="807" type="line"/>
      <point x="1437" y="568" type="line"/>
    </contour>
    <contour>
      <point x="1436" y="777" type="line"/>
      <point x="616" y="319" type="line"/>
      <point x="616" y="122" type="line"/>
      <point x="1437" y="568" type="line"/>
    </contour>
  </outline>
</glyph>
<glyph name="question" format="2">
  <advance width="2048"/>
  <unicode hex="003F"/>
  <outline>
    <contour>
      <point x="880" y="247" type="line"/>
      <point x="880" y="0" type="line"/>
      <point x="1126" y="0" type="line"/>
      <point x="1126" y="247" type="line"/>
    </contour>
    <contour>
      <point x="704" y="1519" type="line"/>
      <point x="704" y="1333" type="line"/>
      <point x="1340" y="1333" type="line"/>
      <point x="1340" y="1519" type="line"/>
    </contour>
    <contour>
      <point x="1150" y="1514" type="line"/>
      <point x="1150" y="966" type="line"/>
      <point x="1344" y="966" type="line"/>
      <point x="1344" y="1514" type="line"/>
    </contour>
    <contour>
      <point x="880" y="1015" type="line"/>
      <point x="880" y="816" type="line"/>
      <point x="1344" y="816" type="line"/>
      <point x="1344" y="1015" type="line"/>
    </contour>
    <contour>
      <point x="880" y="1011" type="line"/>
      <point x="880" y="392" type="line"/>
      <point x="1128" y="392" type="line"/>
      <point x="1128" y="1011" type="line"/>
    </contour>
  </outline>
</glyph>
<glyph name="at" format="2">
  <advance width="2048"/>
  <unicode hex="0040"/>
  <outline>
    <contour>
      <point x="613.0" y="1023.0" type="line"/>
      <point x="613.0" y="879.0" type="line"/>
      <point x="1432.0" y="879.0" type="line"/>
      <point x="1432.0" y="1023.0" type="line"/>
    </contour>
    <contour>
      <point x="1149.0" y="592.0" type="line"/>
      <point x="1149.0" y="0.0" type="line"/>
      <point x="1302.0" y="0.0" type="line"/>
      <point x="1302.0" y="592.0" type="line"/>
    </contour>
    <contour>
      <point x="816.0" y="600.0" type="line"/>
      <point x="816.0" y="444.0" type="line"/>
      <point x="1241.0" y="444.0" type="line"/>
      <point x="1241.0" y="600.0" type="line"/>
    </contour>
    <contour>
      <point x="813.0" y="589.0" type="line"/>
      <point x="813.0" y="12.0" type="line"/>
      <point x="987.0" y="12.0" type="line"/>
      <point x="987.0" y="589.0" type="line"/>
    </contour>
    <contour>
      <point x="811.0" y="188.0" type="line"/>
      <point x="811.0" y="0.0" type="line"/>
      <point x="1305.0" y="0.0" type="line"/>
      <point x="1305.0" y="188.0" type="line"/>
    </contour>
    <contour>
      <point x="525.0" y="1023.0" type="line"/>
      <point x="525.0" y="-223.0" type="line"/>
      <point x="701.0" y="-223.0" type="line"/>
      <point x="701.0" y="1023.0" type="line"/>
    </contour>
    <contour>
      <point x="523.0" y="-86.0" type="line"/>
      <point x="523.0" y="-258.0" type="line"/>
      <point x="1471.0" y="-258.0" type="line"/>
      <point x="1471.0" y="-86.0" type="line"/>
    </contour>
    <contour>
      <point x="1374.0" y="1011.0" type="line"/>
      <point x="1374.0" y="0.0" type="line"/>
      <point x="1525.0" y="0.0" type="line"/>
      <point x="1525.0" y="1011.0" type="line"/>
    </contour>
    <contour>
      <point x="1246.0" y="175.0" type="line"/>
      <point x="1246.0" y="0.0" type="line"/>
      <point x="1455.0" y="0.0" type="line"/>
      <point x="1455.0" y="175.0" type="line"/>
    </contour>
  </outline>
</glyph>
<glyph name="A" format="2">
  <advance width="2048"/>
  <unicode hex="0041"/>
  <guideline x="0" y="2457" angle="0" name="WIN-ASCENT"/>
  <guideline x="0" y="1024" angle="0" name="X_HEIGHT"/>
  <guideline x="0" y="1548" angle="0" name="CAPS_HEIFGHT"/>
  <outline>
    <contour>
      <point x="124" y="1" type="line"/>
      <point x="321" y="0" type="line"/>
      <point x="320" y="1548" type="line"/>
      <point x="121" y="1548" type="line"/>
    </contour>
    <contour>
      <point x="178" y="1337" type="line"/>
      <point x="1854" y="1332" type="line"/>
      <point x="1850" y="1548" type="line"/>
      <point x="182" y="1548" type="line"/>
    </contour>
    <contour>
      <point x="200" y="1025" type="line"/>
      <point x="198" y="840" type="line"/>
      <point x="1838" y="849" type="line"/>
      <point x="1838" y="1025" type="line"/>
    </contour>
    <contour>
      <point x="1727" y="0" type="line"/>
      <point x="1927" y="0" type="line"/>
      <point x="1925" y="1548" type="line"/>
      <point x="1725" y="1548" type="line"/>
    </contour>
  </outline>
</glyph>
<glyph name="B" format="2">
  <advance width="2048"/>
  <unicode hex="0042"/>
  <outline>
    <contour>
      <point x="120.5" y="2" type="line"/>
      <point x="304.5" y="1" type="line"/>
      <point x="298.5" y="1533" type="line"/>
      <point x="90.5" y="1534" type="line"/>
    </contour>
    <contour>
      <point x="1436.5" y="1331" type="line"/>
      <point x="1954.5" y="989" type="line"/>
      <point x="1951.5" y="1215" type="line"/>
      <point x="1438.5" y="1536" type="line"/>
    </contour>
    <contour>
      <point x="1439.5" y="820" type="line"/>
      <point x="1957.5" y="991" type="line"/>
      <point x="1952.5" y="1215" type="line"/>
      <point x="1437.5" y="1020" type="line"/>
    </contour>
    <contour>
      <point x="1379.5" y="201" type="line"/>
      <point x="1379.5" y="1" type="line"/>
      <point x="1917.5" y="364" type="line"/>
      <point x="1933.5" y="588" type="line"/>
    </contour>
    <contour>
      <point x="1443.5" y="567" type="line"/>
      <point x="1917.5" y="364" type="line"/>
      <point x="1933.5" y="586" type="line"/>
      <point x="1446.5" y="766" type="line"/>
    </contour>
    <contour>
      <point x="251.5" y="1020" type="line"/>
      <point x="252.5" y="820" type="line"/>
      <point x="1439.5" y="820" type="line"/>
      <point x="1437.5" y="1021" type="line"/>
    </contour>
    <contour>
      <point x="250.5" y="766" type="line"/>
      <point x="249.5" y="567" type="line"/>
      <point x="1445.5" y="567" type="line"/>
      <point x="1446.5" y="766" type="line"/>
    </contour>
    <contour>
      <point x="188.5" y="200" type="line"/>
      <point x="188.5" y="1" type="line"/>
      <point x="1379.5" y="1" type="line"/>
      <point x="1379.5" y="200" type="line"/>
    </contour>
    <contour>
      <point x="250.5" y="1535" type="line"/>
      <point x="249.5" y="1331" type="line"/>
      <point x="1436.5" y="1331" type="line"/>
      <point x="1437.5" y="1535" type="line"/>
    </contour>
  </outline>
</glyph>
<glyph name="C" format="2">
  <advance width="2048"/>
  <unicode hex="0043"/>
  <outline>
    <contour>
      <point x="158" y="1533" type="line"/>
      <point x="358" y="1533" type="line"/>
      <point x="362" y="3" type="line"/>
      <point x="162" y="3" type="line"/>
    </contour>
    <contour>
      <point x="257" y="1533" type="line"/>
      <point x="1954" y="1541" type="line"/>
      <point x="1956" y="1338" type="line"/>
      <point x="257" y="1335" type="line"/>
    </contour>
    <contour>
      <point x="243" y="209" type="line"/>
      <point x="1952" y="199" type="line"/>
      <point x="1955" y="-3" type="line"/>
      <point x="243" y="3" type="line"/>
    </contour>
  </outline>
</glyph>
<glyph name="D" format="2">
  <advance width="2048"/>
  <unicode hex="0044"/>
  <outline>
    <contour>
      <point x="118.5" y="1547" type="line"/>
      <point x="153.5" y="-1" type="line"/>
      <point x="353.5" y="0" type="line"/>
      <point x="320.5" y="1548" type="line"/>
    </contour>
    <contour>
      <point x="1444.5" y="1550" type="line"/>
      <point x="1445.5" y="1350" type="line"/>
      <point x="1929.5" y="767" type="line"/>
      <point x="1927.5" y="1019" type="line"/>
    </contour>
    <contour>
      <point x="1452.5" y="201" type="line"/>
      <point x="1453.5" y="1" type="line"/>
      <point x="1926.5" y="769" type="line"/>
      <point x="1924.5" y="1025" type="line"/>
    </contour>
    <contour>
      <point x="282.5" y="1548" type="line"/>
      <point x="282.5" y="1349" type="line"/>
      <point x="1445.5" y="1349" type="line"/>
      <point x="1444.5" y="1549" type="line"/>
    </contour>
    <contour>
      <point x="290.5" y="199" type="line"/>
      <point x="290.5" y="0" type="line"/>
      <point x="1453.5" y="0" type="line"/>
      <point x="1452.5" y="200" type="line"/>
    </contour>
  </outline>
</glyph>
<glyph name="E" format="2">
  <advance width="2048"/>
  <unicode hex="0045"/>
  <outline>
    <contour>
      <point x="115.5" y="1537" type="line"/>
      <point x="124.5" y="3" type="line"/>
      <point x="331.5" y="3" type="line"/>
      <point x="315.5" y="1535" type="line"/>
    </contour>
    <contour>
      <point x="193.5" y="1536" type="line"/>
      <point x="200.5" y="1338" type="line"/>
      <point x="1914.5" y="1333" type="line"/>
      <point x="1912.5" y="1536" type="line"/>
    </contour>
    <contour>
      <point x="182.5" y="203" type="line"/>
      <point x="183.5" y="5" type="line"/>
      <point x="1932.5" y="1" type="line"/>
      <point x="1928.5" y="203" type="line"/>
    </contour>
    <contour>
      <point x="182.5" y="888" type="line"/>
      <point x="182.5" y="688" type="line"/>
      <point x="1681.5" y="688" type="line"/>
      <point x="1681.5" y="888" type="line"/>
    </contour>
  </outline>
</glyph>
<glyph name="F" format="2">
  <advance width="2048"/>
  <unicode hex="0046"/>
  <outline>
    <contour>
      <point x="153" y="1548" type="line"/>
      <point x="162" y="3" type="line"/>
      <point x="368" y="3" type="line"/>
      <point x="353" y="1547" type="line"/>
    </contour>
    <contour>
      <point x="255" y="1548" type="line"/>
      <point x="255" y="1351" type="line"/>
      <point x="1895" y="1347" type="line"/>
      <point x="1889" y="1548" type="line"/>
    </contour>
    <contour>
      <point x="243" y="880" type="line"/>
      <point x="244" y="683" type="line"/>
      <point x="1801" y="672" type="line"/>
      <point x="1792" y="875" type="line"/>
    </contour>
  </outline>
</glyph>
<glyph name="G" format="2">
  <advance width="2048"/>
  <unicode hex="0047"/>
  <anchor x="980" y="1589" name="top"/>
  <anchor x="1018" y="-102" name="base"/>
  <outline>
    <contour>
      <point x="127" y="1548" type="line"/>
      <point x="127" y="0" type="line"/>
      <point x="329" y="0" type="line"/>
      <point x="329" y="1548" type="line"/>
    </contour>
    <contour>
      <point x="185" y="1548" type="line"/>
      <point x="185" y="1347" type="line"/>
      <point x="1885" y="1347" type="line"/>
      <point x="1885" y="1548" type="line"/>
    </contour>
    <contour>
      <point x="158" y="202" type="line"/>
      <point x="158" y="0" type="line"/>
      <point x="1921" y="0" type="line"/>
      <point x="1921" y="202" type="line"/>
    </contour>
    <contour>
      <point x="1722" y="561" type="line"/>
      <point x="1722" y="18" type="line"/>
      <point x="1921" y="18" type="line"/>
      <point x="1921" y="561" type="line"/>
    </contour>
  </outline>
</glyph>
<glyph name="H" format="2">
  <advance width="2048"/>
  <unicode hex="0048"/>
  <outline>
    <contour>
      <point x="126" y="1537" type="line"/>
      <point x="126" y="0" type="line"/>
      <point x="326" y="0" type="line"/>
      <point x="326" y="1537" type="line"/>
    </contour>
    <contour>
      <point x="1712" y="1537" type="line"/>
      <point x="1712" y="0" type="line"/>
      <point x="1922" y="0" type="line"/>
      <point x="1922" y="1537" type="line"/>
    </contour>
    <contour>
      <point x="246" y="1023" type="line"/>
      <point x="246" y="818" type="line"/>
      <point x="1792" y="818" type="line"/>
      <point x="1792" y="1023" type="line"/>
    </contour>
  </outline>
</glyph>
<glyph name="I" format="2">
  <advance width="2048"/>
  <unicode hex="0049"/>
  <anchor x="1027" y="1618" name="top"/>
  <anchor x="1029" y="-86" name="base"/>
  <outline>
    <contour>
      <point x="144" y="1537" type="line"/>
      <point x="144" y="1335" type="line"/>
      <point x="1889" y="1335" type="line"/>
      <point x="1889" y="1537" type="line"/>
    </contour>
    <contour>
      <point x="975" y="1468" type="line"/>
      <point x="975" y="84" type="line"/>
      <point x="1175" y="84" type="line"/>
      <point x="1175" y="1468" type="line"/>
    </contour>
    <contour>
      <point x="124" y="204" type="line"/>
      <point x="124" y="6" type="line"/>
      <point x="1924" y="6" type="line"/>
      <point x="1924" y="204" type="line"/>
    </contour>
  </outline>
</glyph>
<glyph name="J" format="2">
  <advance width="2048"/>
  <unicode hex="004A"/>
  <outline>
    <contour>
      <point x="1700" y="1527" type="line"/>
      <point x="1700" y="1" type="line"/>
      <point x="1900" y="1" type="line"/>
      <point x="1900" y="1527" type="line"/>
    </contour>
    <contour>
      <point x="126" y="208" type="line"/>
      <point x="126" y="0" type="line"/>
      <point x="1741" y="0" type="line"/>
      <point x="1741" y="208" type="line"/>
    </contour>
    <contour>
      <point x="125" y="503" type="line"/>
      <point x="125" y="54" type="line"/>
      <point x="323" y="52" type="line"/>
      <point x="323" y="503" type="line"/>
    </contour>
  </outline>
</glyph>
<glyph name="K" format="2">
  <advance width="2048"/>
  <unicode hex="004B"/>
  <anchor x="1030" y="-39" name="base"/>
  <anchor x="236" y="1629" name="top"/>
  <outline>
    <contour>
      <point x="112" y="1537" type="line"/>
      <point x="112" y="5" type="line"/>
      <point x="313" y="5" type="line"/>
      <point x="313" y="1537" type="line"/>
    </contour>
    <contour>
      <point x="157" y="999" type="line"/>
      <point x="276" y="835" type="line"/>
      <point x="1883" y="1529" type="line"/>
      <point x="1616" y="1529" type="line"/>
    </contour>
    <contour>
      <point x="287" y="798" type="line"/>
      <point x="150" y="643" type="line"/>
      <point x="1655" y="0" type="line"/>
      <point x="1936" y="0" type="line"/>
    </contour>
  </outline>
</glyph>
<glyph name="L" format="2">
  <advance width="2048"/>
  <unicode hex="004C"/>
  <anchor x="1012" y="-84" name="base"/>
  <anchor x="140" y="1650" name="top"/>
  <outline>
    <contour>
      <point x="129" y="1542" type="line"/>
      <point x="129" y="0" type="line"/>
      <point x="327" y="0" type="line"/>
      <point x="327" y="1542" type="line"/>
    </contour>
    <contour>
      <point x="238" y="202" type="line"/>
      <point x="238" y="0" type="line"/>
      <point x="1914" y="0" type="line"/>
      <point x="1914" y="202" type="line"/>
    </contour>
  </outline>
</glyph>
<glyph name="M" format="2">
  <advance width="2048"/>
  <unicode hex="004D"/>
  <anchor x="1022" y="-20" name="base"/>
  <anchor x="1040" y="1661" name="top"/>
  <outline>
    <contour>
      <point x="138" y="1548" type="line"/>
      <point x="138" y="0" type="line"/>
      <point x="340" y="0" type="line"/>
      <point x="340" y="1548" type="line"/>
    </contour>
    <contour>
      <point x="1708" y="1537" type="line"/>
      <point x="1708" y="0" type="line"/>
      <point x="1910" y="0" type="line"/>
      <point x="1910" y="1537" type="line"/>
    </contour>
    <contour>
      <point x="174" y="1429" type="line"/>
      <point x="890" y="1031" type="line"/>
      <point x="1078" y="1031" type="line"/>
      <point x="316" y="1548" type="line"/>
    </contour>
    <contour>
      <point x="1736" y="1537" type="line"/>
      <point x="888" y="1023" type="line"/>
      <point x="1076" y="1023" type="line"/>
      <point x="1902" y="1488" type="line"/>
    </contour>
  </outline>
</glyph>
<glyph name="N" format="2">
  <advance width="2048"/>
  <unicode hex="004E"/>
  <outline>
    <contour>
      <point x="133.5" y="1549" type="line"/>
      <point x="139.5" y="2" type="line"/>
      <point x="343.5" y="2" type="line"/>
      <point x="338.5" y="1548" type="line"/>
    </contour>
    <contour>
      <point x="1710.5" y="1548" type="line"/>
      <point x="1710.5" y="0" type="line"/>
      <point x="1913.5" y="1" type="line"/>
      <point x="1912.5" y="1548" type="line"/>
    </contour>
    <contour>
      <point x="134.5" y="1550" type="line"/>
      <point x="1711.5" y="-1" type="line"/>
      <point x="1914.5" y="-1" type="line"/>
      <point x="339.5" y="1548" type="line"/>
    </contour>
  </outline>
</glyph>
<glyph name="O" format="2">
  <advance width="2048"/>
  <unicode hex="004F"/>
  <outline>
    <contour>
      <point x="149.0" y="1537.0" type="line"/>
      <point x="149.0" y="0.0" type="line"/>
      <point x="350.0" y="0.0" type="line"/>
      <point x="350.0" y="1537.0" type="line"/>
    </contour>
    <contour>
      <point x="1696.0" y="1537.0" type="line"/>
      <point x="1696.0" y="0.0" type="line"/>
      <point x="1899.0" y="0.0" type="line"/>
      <point x="1899.0" y="1537.0" type="line"/>
    </contour>
    <contour>
      <point x="213.0" y="1537.0" type="line"/>
      <point x="213.0" y="1337.0" type="line"/>
      <point x="1806.0" y="1337.0" type="line"/>
      <point x="1806.0" y="1537.0" type="line"/>
    </contour>
    <contour>
      <point x="189.0" y="204.0" type="line"/>
      <point x="189.0" y="0.0" type="line"/>
      <point x="1812.0" y="0.0" type="line"/>
      <point x="1812.0" y="204.0" type="line"/>
    </contour>
  </outline>
</glyph>
<glyph name="P" format="2">
  <advance width="2048"/>
  <unicode hex="0050"/>
  <outline>
    <contour>
      <point x="171.5" y="1545" type="line"/>
      <point x="171.5" y="9" type="line"/>
      <point x="361.5" y="9" type="line"/>
      <point x="361.5" y="1545" type="line"/>
    </contour>
    <contour>
      <point x="250.5" y="1545" type="line"/>
      <point x="249.5" y="1346" type="line"/>
      <point x="1856.5" y="1346" type="line"/>
      <point x="1856.5" y="1545" type="line"/>
    </contour>
    <contour>
      <point x="1676.5" y="1545" type="line"/>
      <point x="1676.5" y="881" type="line"/>
      <point x="1876.5" y="881" type="line"/>
      <point x="1876.5" y="1545" type="line"/>
    </contour>
    <contour>
      <point x="234.5" y="1068" type="line"/>
      <point x="234.5" y="868" type="line"/>
      <point x="1871.5" y="868" type="line"/>
      <point x="1871.5" y="1068" type="line"/>
    </contour>
  </outline>
</glyph>
<glyph name="Q" format="2">
  <advance width="2048"/>
  <unicode hex="0051"/>
  <outline>
    <contour>
      <point x="149.0" y="1537.0" type="line"/>
      <point x="149.0" y="5.0" type="line"/>
      <point x="348.0" y="5.0" type="line"/>
      <point x="348.0" y="1537.0" type="line"/>
    </contour>
    <contour>
      <point x="1698.0" y="1537.0" type="line"/>
      <point x="1698.0" y="0.0" type="line"/>
      <point x="1899.0" y="0.0" type="line"/>
      <point x="1899.0" y="1537.0" type="line"/>
    </contour>
    <contour>
      <point x="213.0" y="1537.0" type="line"/>
      <point x="213.0" y="1337.0" type="line"/>
      <point x="1806.0" y="1337.0" type="line"/>
      <point x="1806.0" y="1537.0" type="line"/>
    </contour>
    <contour>
      <point x="189.0" y="205.0" type="line"/>
      <point x="189.0" y="0.0" type="line"/>
      <point x="1812.0" y="0.0" type="line"/>
      <point x="1812.0" y="205.0" type="line"/>
    </contour>
    <contour>
      <point x="1247.0" y="21.0" type="line"/>
      <point x="1433.0" y="-285.0" type="line"/>
      <point x="1624.0" y="-169.0" type="line"/>
      <point x="1438.0" y="137.0" type="line"/>
    </contour>
  </outline>
</glyph>
<glyph name="R" format="2">
  <advance width="2048"/>
  <unicode hex="0052"/>
  <outline>
    <contour>
      <point x="102" y="1535" type="line"/>
      <point x="102" y="-1" type="line"/>
      <point x="303" y="-1" type="line"/>
      <point x="303" y="1535" type="line"/>
    </contour>
    <contour>
      <point x="181" y="1536" type="line"/>
      <point x="181" y="1335" type="line"/>
      <point x="1837" y="1335" type="line"/>
      <point x="1837" y="1536" type="line"/>
    </contour>
    <contour>
      <point x="1664" y="1536" type="line"/>
      <point x="1664" y="872" type="line"/>
      <point x="1864" y="872" type="line"/>
      <point x="1864" y="1536" type="line"/>
    </contour>
    <contour>
      <point x="165" y="1079" type="line"/>
      <point x="165" y="868" type="line"/>
      <point x="1852" y="868" type="line"/>
      <point x="1852" y="1079" type="line"/>
    </contour>
    <contour>
      <point x="305" y="875" type="line"/>
      <point x="1706" y="1" type="line"/>
      <point x="1946" y="-4" type="line"/>
      <point x="504" y="892" type="line"/>
    </contour>
  </outline>
</glyph>
<glyph name="S" format="2">
  <advance width="2048"/>
  <unicode hex="0053"/>
  <outline>
    <contour>
      <point x="146" y="1539" type="line"/>
      <point x="146" y="1336" type="line"/>
      <point x="1744" y="1336" type="line"/>
      <point x="1744" y="1539" type="line"/>
    </contour>
    <contour>
      <point x="146" y="1542" type="line"/>
      <point x="146" y="1028" type="line"/>
      <point x="348" y="1028" type="line"/>
      <point x="348" y="1542" type="line"/>
    </contour>
    <contour>
      <point x="174" y="199" type="line"/>
      <point x="174" y="0" type="line"/>
      <point x="1882" y="0" type="line"/>
      <point x="1882" y="199" type="line"/>
    </contour>
    <contour>
      <point x="1717" y="1" type="line"/>
      <point x="1918" y="1" type="line"/>
      <point x="1918" y="355" type="line"/>
      <point x="1717" y="355" type="line"/>
    </contour>
    <contour>
      <point x="146" y="1028" type="line"/>
      <point x="1717" y="355" type="line"/>
      <point x="1918" y="355" type="line"/>
      <point x="348" y="1028" type="line"/>
    </contour>
  </outline>
</glyph>
<glyph name="T" format="2">
  <advance width="2048"/>
  <unicode hex="0054"/>
  <anchor x="1027" y="1613" name="top"/>
  <anchor x="1016" y="-92" name="base"/>
  <outline>
    <contour>
      <point x="125" y="1548" type="line"/>
      <point x="125" y="1348" type="line"/>
      <point x="1923" y="1348" type="line"/>
      <point x="1923" y="1548" type="line"/>
    </contour>
    <contour>
      <point x="924" y="1436" type="line"/>
      <point x="924" y="6" type="line"/>
      <point x="1124" y="6" type="line"/>
      <point x="1124" y="1436" type="line"/>
    </contour>
  </outline>
</glyph>
<glyph name="U" format="2">
  <advance width="2048"/>
  <unicode hex="0055"/>
  <outline>
    <contour>
      <point x="157" y="1536" type="line"/>
      <point x="157" y="0" type="line"/>
      <point x="357" y="0" type="line"/>
      <point x="357" y="1536" type="line"/>
    </contour>
    <contour>
      <point x="1692" y="1535" type="line"/>
      <point x="1692" y="0" type="line"/>
      <point x="1892" y="0" type="line"/>
      <point x="1891" y="1535" type="line"/>
    </contour>
    <contour>
      <point x="204" y="200" type="line"/>
      <point x="205" y="0" type="line"/>
      <point x="1848" y="0" type="line"/>
      <point x="1848" y="200" type="line"/>
    </contour>
  </outline>
</glyph>
<glyph name="V" format="2">
	<unicode hex="0056"/>
	<advance width="2048"/>
	<outline>
		<contour>
			<point x="118" y="1548" type="line"/>
			<point x="890" y="0" type="line"/>
			<point x="1112" y="0" type="line"/>
			<point x="320" y="1548" type="line"/>
		</contour>
		<contour>
			<point x="1728" y="1548" type="line"/>
			<point x="1016" y="0" type="line"/>
			<point x="1238" y="0" type="line"/>
			<point x="1930" y="1548" type="line"/>
		</contour>
	</outline>
</glyph>
<glyph name="W" format="2">
  <advance width="2048"/>
  <unicode hex="0057"/>
  <outline>
    <contour>
      <point x="104" y="1546" type="line"/>
      <point x="105" y="1" type="line"/>
      <point x="306" y="0" type="line"/>
      <point x="305" y="1546" type="line"/>
    </contour>
    <contour>
      <point x="1745" y="1545" type="line"/>
      <point x="1745" y="12" type="line"/>
      <point x="1946" y="12" type="line"/>
      <point x="1946" y="1545" type="line"/>
    </contour>
    <contour>
      <point x="927" y="1028" type="line"/>
      <point x="928" y="1" type="line"/>
      <point x="1127" y="1" type="line"/>
      <point x="1128" y="1028" type="line"/>
    </contour>
    <contour>
      <point x="103" y="201" type="line"/>
      <point x="105" y="1" type="line"/>
      <point x="1946" y="0" type="line"/>
      <point x="1946" y="201" type="line"/>
    </contour>
  </outline>
</glyph>
<glyph name="X" format="2">
	<unicode hex="0058"/>
	<advance width="2048"/>
	<outline>
		<contour>
			<point x="82" y="1548" type="line"/>
			<point x="1766" y="0" type="line"/>
			<point x="1966" y="0" type="line"/>
			<point x="281" y="1548" type="line"/>
		</contour>
		<contour>
			<point x="85" y="6" type="line"/>
			<point x="286" y="6" type="line"/>
			<point x="1958" y="1548" type="line"/>
			<point x="1759" y="1548" type="line"/>
		</contour>
	</outline>
</glyph>
<glyph name="Y" format="2">
  <advance width="2048"/>
  <unicode hex="0059"/>
  <outline>
    <contour>
      <point x="913.5" y="896" type="line"/>
      <point x="918.5" y="-2" type="line"/>
      <point x="1120.5" y="-1" type="line"/>
      <point x="1115.5" y="897" type="line"/>
    </contour>
    <contour>
      <point x="110.5" y="1547" type="line"/>
      <point x="110.5" y="859" type="line"/>
      <point x="310.5" y="859" type="line"/>
      <point x="310.5" y="1547" type="line"/>
    </contour>
    <contour>
      <point x="1738.5" y="1548" type="line"/>
      <point x="1736.5" y="859" type="line"/>
      <point x="1937.5" y="859" type="line"/>
      <point x="1937.5" y="1547" type="line"/>
    </contour>
    <contour>
      <point x="178.5" y="1019" type="line"/>
      <point x="178.5" y="859" type="line"/>
      <point x="1847.5" y="859" type="line"/>
      <point x="1847.5" y="1019" type="line"/>
    </contour>
  </outline>
</glyph>
<glyph name="Z" format="2">
  <advance width="2048"/>
  <unicode hex="005A"/>
  <outline>
    <contour>
      <point x="97" y="1546" type="line"/>
      <point x="98" y="1336" type="line"/>
      <point x="1926" y="1336" type="line"/>
      <point x="1931" y="1548" type="line"/>
    </contour>
    <contour>
      <point x="98" y="212" type="line"/>
      <point x="98" y="0" type="line"/>
      <point x="1926" y="0" type="line"/>
      <point x="1926" y="212" type="line"/>
    </contour>
    <contour>
      <point x="1670" y="1336" type="line"/>
      <point x="98" y="212" type="line"/>
      <point x="305" y="211" type="line"/>
      <point x="1915" y="1335" type="line"/>
    </contour>
  </outline>
</glyph>
<glyph name="bracketleft" format="2">
	<unicode hex="005B"/>
	<advance width="2048"/>
	<outline>
		<contour>
			<point x="890" y="1542" type="line"/>
			<point x="890" y="-242" type="line"/>
			<point x="1012" y="-242" type="line"/>
			<point x="1012" y="1542" type="line"/>
		</contour>
		<contour>
			<point x="944" y="1543" type="line"/>
			<point x="944" y="1416" type="line"/>
			<point x="1153" y="1416" type="line"/>
			<point x="1153" y="1543" type="line"/>
		</contour>
		<contour>
			<point x="944" y="-91" type="line"/>
			<point x="944" y="-242" type="line"/>
			<point x="1158" y="-242" type="line"/>
			<point x="1158" y="-91" type="line"/>
		</contour>
	</outline>
</glyph>
<glyph name="backslash" format="2">
  <advance width="2048"/>
  <unicode hex="005C"/>
  <outline>
    <contour>
      <point x="615.0" y="1441.0" type="line"/>
      <point x="1242.0" y="-13.0" type="line"/>
      <point x="1433.0" y="65.0" type="line"/>
      <point x="807.0" y="1519.0" type="line"/>
    </contour>
  </outline>
</glyph>
<glyph name="bracketright" format="2">
  <advance width="2048"/>
  <unicode hex="005D"/>
  <outline>
    <contour>
      <point x="1035.5" y="1542" type="line"/>
      <point x="1040.5" y="-242" type="line"/>
      <point x="1162.5" y="-242" type="line"/>
      <point x="1157.5" y="1542" type="line"/>
    </contour>
    <contour>
      <point x="885.5" y="1543" type="line"/>
      <point x="885.5" y="1416" type="line"/>
      <point x="1094.5" y="1416" type="line"/>
      <point x="1094.5" y="1543" type="line"/>
    </contour>
    <contour>
      <point x="885.5" y="-91" type="line"/>
      <point x="885.5" y="-242" type="line"/>
      <point x="1099.5" y="-242" type="line"/>
      <point x="1099.5" y="-91" type="line"/>
    </contour>
  </outline>
</glyph>
<glyph name="asciicircum" format="2">
  <advance width="2048"/>
  <unicode hex="005E"/>
  <outline>
    <contour>
      <point x="1099.5" y="1023" type="line"/>
      <point x="950.5" y="1025" type="line"/>
      <point x="685.5" y="407" type="line"/>
      <point x="835.5" y="345" type="line"/>
    </contour>
    <contour>
      <point x="956.5" y="904" type="line"/>
      <point x="1212.5" y="343" type="line"/>
      <point x="1362.5" y="400" type="line"/>
      <point x="1099.5" y="1023" type="line"/>
    </contour>
  </outline>
</glyph>
<glyph name="underscore" format="2">
  <advance width="2048"/>
  <unicode hex="005F"/>
  <outline>
    <contour>
      <point x="-0.5" y="-5" type="line"/>
      <point x="-4.5" y="-71" type="line"/>
      <point x="2048.5" y="-71" type="line"/>
      <point x="2052.5" y="-5" type="line"/>
    </contour>
  </outline>
</glyph>
<glyph name="grave" format="2">
  <advance width="2048"/>
  <unicode hex="0060"/>
  <outline>
    <contour>
      <point x="877.0" y="1358.0" type="line"/>
      <point x="1022.0" y="1057.0" type="line"/>
      <point x="1171.0" y="1129.0" type="line"/>
      <point x="1025.0" y="1430.0" type="line"/>
    </contour>
  </outline>
</glyph>
<glyph name="a" format="2">
  <advance width="2048"/>
  <unicode hex="0061"/>
  <outline>
    <contour>
      <point x="178" y="1025" type="line"/>
      <point x="178" y="824" type="line"/>
      <point x="1782" y="824" type="line"/>
      <point x="1784" y="1024" type="line"/>
    </contour>
    <contour>
      <point x="1671" y="1025" type="line"/>
      <point x="1668" y="-1" type="line"/>
      <point x="1870" y="1" type="line"/>
      <point x="1865" y="1025" type="line"/>
    </contour>
    <contour>
      <point x="182" y="602" type="line"/>
      <point x="184" y="401" type="line"/>
      <point x="1806" y="400" type="line"/>
      <point x="1806" y="599" type="line"/>
    </contour>
    <contour>
      <point x="182" y="575" type="line"/>
      <point x="182" y="-2" type="line"/>
      <point x="383" y="-2" type="line"/>
      <point x="383" y="575" type="line"/>
    </contour>
    <contour>
      <point x="180" y="200" type="line"/>
      <point x="182" y="-2" type="line"/>
      <point x="1870" y="1" type="line"/>
      <point x="1870" y="201" type="line"/>
    </contour>
  </outline>
</glyph>
<glyph name="b" format="2">
  <advance width="2048"/>
  <unicode hex="0062"/>
  <outline>
    <contour>
      <point x="143.0" y="1537.0" type="line"/>
      <point x="143.0" y="0.0" type="line"/>
      <point x="342.0" y="0.0" type="line"/>
      <point x="342.0" y="1537.0" type="line"/>
    </contour>
    <contour>
      <point x="240.0" y="1033.0" type="line"/>
      <point x="240.0" y="834.0" type="line"/>
      <point x="1766.0" y="834.0" type="line"/>
      <point x="1766.0" y="1033.0" type="line"/>
    </contour>
    <contour>
      <point x="1706.0" y="1033.0" type="line"/>
      <point x="1706.0" y="0.0" type="line"/>
      <point x="1905.0" y="0.0" type="line"/>
      <point x="1905.0" y="1033.0" type="line"/>
    </contour>
    <contour>
      <point x="268.0" y="207.0" type="line"/>
      <point x="268.0" y="0.0" type="line"/>
      <point x="1826.0" y="0.0" type="line"/>
      <point x="1826.0" y="207.0" type="line"/>
    </contour>
  </outline>
</glyph>
<glyph name="c" format="2">
  <advance width="2048"/>
  <unicode hex="0063"/>
  <outline>
    <contour>
      <point x="171.0" y="1023.0" type="line"/>
      <point x="171.0" y="826.0" type="line"/>
      <point x="1877.0" y="826.0" type="line"/>
      <point x="1877.0" y="1023.0" type="line"/>
    </contour>
    <contour>
      <point x="173.0" y="984.0" type="line"/>
      <point x="173.0" y="0.0" type="line"/>
      <point x="375.0" y="0.0" type="line"/>
      <point x="375.0" y="984.0" type="line"/>
    </contour>
    <contour>
      <point x="279.0" y="201.0" type="line"/>
      <point x="279.0" y="0.0" type="line"/>
      <point x="1871.0" y="0.0" type="line"/>
      <point x="1871.0" y="201.0" type="line"/>
    </contour>
  </outline>
</glyph>
<glyph name="d" format="2">
  <advance width="2048"/>
  <unicode hex="0064"/>
  <outline>
    <contour>
      <point x="1704.0" y="1527.0" type="line"/>
      <point x="1704.0" y="0.0" type="line"/>
      <point x="1904.0" y="0.0" type="line"/>
      <point x="1904.0" y="1527.0" type="line"/>
    </contour>
    <contour>
      <point x="240.0" y="1023.0" type="line"/>
      <point x="240.0" y="822.0" type="line"/>
      <point x="1792.0" y="822.0" type="line"/>
      <point x="1792.0" y="1023.0" type="line"/>
    </contour>
    <contour>
      <point x="144.0" y="1023.0" type="line"/>
      <point x="144.0" y="0.0" type="line"/>
      <point x="344.0" y="0.0" type="line"/>
      <point x="344.0" y="1023.0" type="line"/>
    </contour>
    <contour>
      <point x="240.0" y="195.0" type="line"/>
      <point x="240.0" y="0.0" type="line"/>
      <point x="1856.0" y="0.0" type="line"/>
      <point x="1856.0" y="195.0" type="line"/>
    </contour>
  </outline>
</glyph>
<glyph name="e" format="2">
  <advance width="2048"/>
  <unicode hex="0065"/>
  <outline>
    <contour>
      <point x="230.0" y="1023.0" type="line"/>
      <point x="230.0" y="812.0" type="line"/>
      <point x="1864.0" y="812.0" type="line"/>
      <point x="1864.0" y="1023.0" type="line"/>
    </contour>
    <contour>
      <point x="180.0" y="1023.0" type="line"/>
      <point x="180.0" y="0.0" type="line"/>
      <point x="382.0" y="0.0" type="line"/>
      <point x="382.0" y="1023.0" type="line"/>
    </contour>
    <contour>
      <point x="282.0" y="201.0" type="line"/>
      <point x="282.0" y="0.0" type="line"/>
      <point x="1864.0" y="0.0" type="line"/>
      <point x="1864.0" y="201.0" type="line"/>
    </contour>
    <contour>
      <point x="250.0" y="625.0" type="line"/>
      <point x="250.0" y="446.0" type="line"/>
      <point x="1840.0" y="446.0" type="line"/>
      <point x="1840.0" y="625.0" type="line"/>
    </contour>
    <contour>
      <point x="1668.0" y="993.0" type="line"/>
      <point x="1668.0" y="445.0" type="line"/>
      <point x="1862.0" y="445.0" type="line"/>
      <point x="1862.0" y="993.0" type="line"/>
    </contour>
  </outline>
</glyph>
<glyph name="f" format="2">
  <advance width="2048"/>
  <unicode hex="0066"/>
  <outline>
    <contour>
      <point x="840.0" y="1023.0" type="line"/>
      <point x="840.0" y="-406.0" type="line"/>
      <point x="1022.0" y="-406.0" type="line"/>
      <point x="1022.0" y="1023.0" type="line"/>
    </contour>
    <contour>
      <point x="898.0" y="1023.0" type="line"/>
      <point x="898.0" y="831.0" type="line"/>
      <point x="1976.0" y="831.0" type="line"/>
      <point x="1976.0" y="1023.0" type="line"/>
    </contour>
    <contour>
      <point x="72.0" y="559.0" type="line"/>
      <point x="72.0" y="356.0" type="line"/>
      <point x="1880.0" y="356.0" type="line"/>
      <point x="1880.0" y="559.0" type="line"/>
    </contour>
  </outline>
</glyph>
<glyph name="g" format="2">
  <advance width="2048"/>
  <unicode hex="0067"/>
  <anchor x="1022" y="1186" name="top"/>
  <anchor x="1014" y="-450" name="base"/>
  <outline>
    <contour>
      <point x="238" y="1023" type="line"/>
      <point x="238" y="0" type="line"/>
      <point x="430" y="0" type="line"/>
      <point x="430" y="1023" type="line"/>
    </contour>
    <contour>
      <point x="278" y="1023" type="line"/>
      <point x="278" y="823" type="line"/>
      <point x="1794" y="823" type="line"/>
      <point x="1794" y="1023" type="line"/>
    </contour>
    <contour>
      <point x="1622" y="1023" type="line"/>
      <point x="1622" y="-411" type="line"/>
      <point x="1816" y="-411" type="line"/>
      <point x="1816" y="1023" type="line"/>
    </contour>
    <contour>
      <point x="301" y="198" type="line"/>
      <point x="301" y="0" type="line"/>
      <point x="1758" y="0" type="line"/>
      <point x="1758" y="198" type="line"/>
    </contour>
    <contour>
      <point x="232" y="-214" type="line"/>
      <point x="232" y="-413" type="line"/>
      <point x="1767" y="-413" type="line"/>
      <point x="1767" y="-214" type="line"/>
    </contour>
  </outline>
</glyph>
<glyph name="h" format="2">
  <advance width="2048"/>
  <unicode hex="0068"/>
  <outline>
    <contour>
      <point x="186.0" y="1537.0" type="line"/>
      <point x="186.0" y="6.0" type="line"/>
      <point x="386.0" y="6.0" type="line"/>
      <point x="386.0" y="1537.0" type="line"/>
    </contour>
    <contour>
      <point x="323.0" y="1023.0" type="line"/>
      <point x="323.0" y="826.0" type="line"/>
      <point x="1854.0" y="826.0" type="line"/>
      <point x="1854.0" y="1023.0" type="line"/>
    </contour>
    <contour>
      <point x="1663.0" y="1023.0" type="line"/>
      <point x="1663.0" y="0.0" type="line"/>
      <point x="1862.0" y="0.0" type="line"/>
      <point x="1862.0" y="1023.0" type="line"/>
    </contour>
  </outline>
</glyph>
<glyph name="i" format="2">
  <advance width="2048"/>
  <unicode hex="0069"/>
  <anchor x="930" y="1454" name="top"/>
  <anchor x="1040" y="-64" name="base"/>
  <outline>
    <contour>
      <point x="922.998" y="1018" type="line"/>
      <point x="923" y="139" type="line"/>
      <point x="1125" y="139" type="line"/>
      <point x="1125" y="1018" type="line"/>
    </contour>
    <contour>
      <point x="153" y="204" type="line"/>
      <point x="153" y="6" type="line"/>
      <point x="1895" y="6" type="line"/>
      <point x="1895" y="204" type="line"/>
    </contour>
    <contour>
      <point x="905.998" y="1333" type="line"/>
      <point x="906.002" y="1133" type="line"/>
      <point x="1113" y="1133" type="line"/>
      <point x="1113" y="1333" type="line"/>
    </contour>
    <contour>
      <point x="496.999" y="1018" type="line"/>
      <point x="497" y="816" type="line"/>
      <point x="1117" y="816" type="line"/>
      <point x="1117" y="1018" type="line"/>
    </contour>
  </outline>
</glyph>
<glyph name="j" format="2">
  <advance width="2048"/>
  <unicode hex="006A"/>
  <outline>
    <contour>
      <point x="1640" y="1023" type="line"/>
      <point x="1640" y="-411" type="line"/>
      <point x="1838" y="-411" type="line"/>
      <point x="1838" y="1023" type="line"/>
    </contour>
    <contour>
      <point x="210" y="-209" type="line"/>
      <point x="210" y="-406" type="line"/>
      <point x="1740" y="-406" type="line"/>
      <point x="1740" y="-209" type="line"/>
    </contour>
    <contour>
      <point x="210" y="-6" type="line"/>
      <point x="210" y="-351" type="line"/>
      <point x="410" y="-351" type="line"/>
      <point x="410" y="-6" type="line"/>
    </contour>
    <contour>
      <point x="1627" y="1307" type="line"/>
      <point x="1627" y="1112" type="line"/>
      <point x="1853" y="1112" type="line"/>
      <point x="1853" y="1307" type="line"/>
    </contour>
  </outline>
</glyph>
<glyph name="k" format="2">
  <advance width="2048"/>
  <unicode hex="006B"/>
  <outline>
    <contour>
      <point x="103.0" y="1537.0" type="line"/>
      <point x="103.0" y="5.0" type="line"/>
      <point x="303.0" y="5.0" type="line"/>
      <point x="303.0" y="1537.0" type="line"/>
    </contour>
    <contour>
      <point x="152.0" y="516.0" type="line"/>
      <point x="201.0" y="298.0" type="line"/>
      <point x="1888.0" y="1023.0" type="line"/>
      <point x="1671.0" y="1023.0" type="line"/>
    </contour>
    <contour>
      <point x="467.0" y="596.0" type="line"/>
      <point x="257.0" y="483.0" type="line"/>
      <point x="1707.0" y="0.0" type="line"/>
      <point x="1945.0" y="0.0" type="line"/>
    </contour>
  </outline>
</glyph>
<glyph name="l" format="2">
  <advance width="2048"/>
  <unicode hex="006C"/>
  <outline>
    <contour>
      <point x="207.0" y="209.0" type="line"/>
      <point x="207.0" y="9.0" type="line"/>
      <point x="1841.0" y="9.0" type="line"/>
      <point x="1841.0" y="209.0" type="line"/>
    </contour>
    <contour>
      <point x="924.0" y="1548.0" type="line"/>
      <point x="924.0" y="86.0" type="line"/>
      <point x="1124.0" y="86.0" type="line"/>
      <point x="1124.0" y="1548.0" type="line"/>
    </contour>
    <contour>
      <point x="268.0" y="1548.0" type="line"/>
      <point x="268.0" y="1349.0" type="line"/>
      <point x="1003.0" y="1349.0" type="line"/>
      <point x="1003.0" y="1548.0" type="line"/>
    </contour>
  </outline>
</glyph>
<glyph name="m" format="2">
  <advance width="2048"/>
  <unicode hex="006D"/>
  <outline>
    <contour>
      <point x="148.0" y="993.0" type="line"/>
      <point x="148.0" y="0.0" type="line"/>
      <point x="348.0" y="0.0" type="line"/>
      <point x="348.0" y="993.0" type="line"/>
    </contour>
    <contour>
      <point x="962.0" y="972.0" type="line"/>
      <point x="962.0" y="0.0" type="line"/>
      <point x="1162.0" y="0.0" type="line"/>
      <point x="1162.0" y="972.0" type="line"/>
    </contour>
    <contour>
      <point x="1778.0" y="976.0" type="line"/>
      <point x="1778.0" y="0.0" type="line"/>
      <point x="1978.0" y="0.0" type="line"/>
      <point x="1978.0" y="976.0" type="line"/>
    </contour>
    <contour>
      <point x="70.0" y="1023.0" type="line"/>
      <point x="70.0" y="826.0" type="line"/>
      <point x="1976.0" y="826.0" type="line"/>
      <point x="1976.0" y="1023.0" type="line"/>
    </contour>
  </outline>
</glyph>
<glyph name="n" format="2">
  <advance width="2048"/>
  <unicode hex="006E"/>
  <outline>
    <contour>
      <point x="313.5" y="990" type="line"/>
      <point x="313.5" y="-2" type="line"/>
      <point x="514.5" y="-2" type="line"/>
      <point x="514.5" y="990" type="line"/>
    </contour>
    <contour>
      <point x="1712.5" y="976" type="line"/>
      <point x="1712.5" y="1" type="line"/>
      <point x="1913.5" y="1" type="line"/>
      <point x="1913.5" y="976" type="line"/>
    </contour>
    <contour>
      <point x="134.5" y="1021" type="line"/>
      <point x="135.5" y="820" type="line"/>
      <point x="1913.5" y="826" type="line"/>
      <point x="1912.5" y="1027" type="line"/>
    </contour>
  </outline>
</glyph>
<glyph name="o" format="2">
  <advance width="2048"/>
  <unicode hex="006F"/>
  <outline>
    <contour>
      <point x="116.5" y="1024" type="line"/>
      <point x="114.5" y="0" type="line"/>
      <point x="318.5" y="0" type="line"/>
      <point x="316.5" y="1022" type="line"/>
    </contour>
    <contour>
      <point x="1731.5" y="1024" type="line"/>
      <point x="1731.5" y="0" type="line"/>
      <point x="1933.5" y="0" type="line"/>
      <point x="1933.5" y="1024" type="line"/>
    </contour>
    <contour>
      <point x="239.5" y="1021" type="line"/>
      <point x="239.5" y="822" type="line"/>
      <point x="1824.5" y="822" type="line"/>
      <point x="1825.5" y="1024" type="line"/>
    </contour>
    <contour>
      <point x="243.5" y="200" type="line"/>
      <point x="243.5" y="1" type="line"/>
      <point x="1815.5" y="1" type="line"/>
      <point x="1815.5" y="200" type="line"/>
    </contour>
  </outline>
</glyph>
<glyph name="p" format="2">
  <advance width="2048"/>
  <unicode hex="0070"/>
  <outline>
    <contour>
      <point x="201.5" y="1203" type="line"/>
      <point x="201.5" y="-406" type="line"/>
      <point x="401.5" y="-406" type="line"/>
      <point x="401.5" y="1203" type="line"/>
    </contour>
    <contour>
      <point x="299.5" y="1020" type="line"/>
      <point x="299.5" y="820" type="line"/>
      <point x="1840.5" y="821" type="line"/>
      <point x="1838.5" y="1020" type="line"/>
    </contour>
    <contour>
      <point x="303.5" y="203" type="line"/>
      <point x="306.5" y="1" type="line"/>
      <point x="1846.5" y="1" type="line"/>
      <point x="1843.5" y="202" type="line"/>
    </contour>
    <contour>
      <point x="1641.5" y="876" type="line"/>
      <point x="1641.5" y="175" type="line"/>
      <point x="1844.5" y="175" type="line"/>
      <point x="1839.5" y="876" type="line"/>
    </contour>
  </outline>
</glyph>
<glyph name="q" format="2">
  <advance width="2048"/>
  <unicode hex="0071"/>
  <outline>
    <contour>
      <point x="1423.5" y="1201" type="line"/>
      <point x="1423.5" y="-410" type="line"/>
      <point x="1622.5" y="-410" type="line"/>
      <point x="1622.5" y="1201" type="line"/>
    </contour>
    <contour>
      <point x="150.5" y="1022" type="line"/>
      <point x="150.5" y="823" type="line"/>
      <point x="1599.5" y="823" type="line"/>
      <point x="1599.5" y="1022" type="line"/>
    </contour>
    <contour>
      <point x="151.5" y="203" type="line"/>
      <point x="151.5" y="2" type="line"/>
      <point x="1567.5" y="2" type="line"/>
      <point x="1567.5" y="203" type="line"/>
    </contour>
    <contour>
      <point x="149.5" y="855" type="line"/>
      <point x="149.5" y="107" type="line"/>
      <point x="349.5" y="107" type="line"/>
      <point x="349.5" y="855" type="line"/>
    </contour>
    <contour>
      <point x="1462.5" y="-268" type="line"/>
      <point x="1462.5" y="-410" type="line"/>
      <point x="1898.5" y="-410" type="line"/>
      <point x="1898.5" y="-268" type="line"/>
    </contour>
  </outline>
</glyph>
<glyph name="r" format="2">
  <advance width="2048"/>
  <unicode hex="0072"/>
  <outline>
    <contour>
      <point x="158.0" y="1023.0" type="line"/>
      <point x="158.0" y="821.0" type="line"/>
      <point x="1890.0" y="821.0" type="line"/>
      <point x="1890.0" y="1023.0" type="line"/>
    </contour>
    <contour>
      <point x="872.0" y="954.0" type="line"/>
      <point x="872.0" y="0.0" type="line"/>
      <point x="1072.0" y="0.0" type="line"/>
      <point x="1072.0" y="954.0" type="line"/>
    </contour>
    <contour>
      <point x="1690.0" y="976.0" type="line"/>
      <point x="1690.0" y="650.0" type="line"/>
      <point x="1890.0" y="650.0" type="line"/>
      <point x="1890.0" y="976.0" type="line"/>
    </contour>
  </outline>
</glyph>
<glyph name="s" format="2">
  <advance width="2048"/>
  <unicode hex="0073"/>
  <outline>
    <contour>
      <point x="219" y="1024" type="line"/>
      <point x="220" y="822" type="line"/>
      <point x="1829" y="826" type="line"/>
      <point x="1828" y="1024" type="line"/>
    </contour>
    <contour>
      <point x="219" y="1024" type="line"/>
      <point x="220" y="736" type="line"/>
      <point x="420" y="736" type="line"/>
      <point x="419" y="1024" type="line"/>
    </contour>
    <contour>
      <point x="220" y="200" type="line"/>
      <point x="219" y="1" type="line"/>
      <point x="1826" y="0" type="line"/>
      <point x="1825" y="201" type="line"/>
    </contour>
    <contour>
      <point x="1624" y="292" type="line"/>
      <point x="1627" y="12" type="line"/>
      <point x="1826" y="12" type="line"/>
      <point x="1824" y="293" type="line"/>
    </contour>
    <contour>
      <point x="220" y="736" type="line"/>
      <point x="1624" y="292" type="line"/>
      <point x="1824" y="293" type="line"/>
      <point x="420" y="736" type="line"/>
    </contour>
  </outline>
</glyph>
<glyph name="t" format="2">
  <advance width="2048"/>
  <unicode hex="0074"/>
  <outline>
    <contour>
      <point x="922.5" y="1545" type="line"/>
      <point x="922.5" y="1" type="line"/>
      <point x="1123.5" y="1" type="line"/>
      <point x="1122.5" y="1545" type="line"/>
    </contour>
    <contour>
      <point x="930.5" y="199" type="line"/>
      <point x="930.5" y="0" type="line"/>
      <point x="1821.5" y="0" type="line"/>
      <point x="1821.5" y="199" type="line"/>
    </contour>
    <contour>
      <point x="186.5" y="1024" type="line"/>
      <point x="187.5" y="824" type="line"/>
      <point x="1861.5" y="824" type="line"/>
      <point x="1860.5" y="1025" type="line"/>
    </contour>
  </outline>
</glyph>
<glyph name="u" format="2">
  <advance width="2048"/>
  <unicode hex="0075"/>
  <outline>
    <contour>
      <point x="149.5" y="1024" type="line"/>
      <point x="149.5" y="0" type="line"/>
      <point x="348.5" y="0" type="line"/>
      <point x="350.5" y="1024" type="line"/>
    </contour>
    <contour>
      <point x="1381.5" y="1026" type="line"/>
      <point x="1381.5" y="4" type="line"/>
      <point x="1582.5" y="4" type="line"/>
      <point x="1581.5" y="1026" type="line"/>
    </contour>
    <contour>
      <point x="196.5" y="200" type="line"/>
      <point x="197.5" y="0" type="line"/>
      <point x="1898.5" y="0" type="line"/>
      <point x="1898.5" y="200" type="line"/>
    </contour>
  </outline>
</glyph>
<glyph name="v" format="2">
  <advance width="2048"/>
  <unicode hex="0076"/>
  <outline>
    <contour>
      <point x="193.0" y="1023.0" type="line"/>
      <point x="922.0" y="0.0" type="line"/>
      <point x="1129.0" y="0.0" type="line"/>
      <point x="392.0" y="1023.0" type="line"/>
    </contour>
    <contour>
      <point x="1655.0" y="1023.0" type="line"/>
      <point x="920.0" y="0.0" type="line"/>
      <point x="1127.0" y="0.0" type="line"/>
      <point x="1855.0" y="1023.0" type="line"/>
    </contour>
  </outline>
</glyph>
<glyph name="w" format="2">
  <advance width="2048"/>
  <unicode hex="0077"/>
  <outline>
    <contour>
      <point x="115.5" y="1023" type="line"/>
      <point x="116.5" y="1" type="line"/>
      <point x="315.5" y="0" type="line"/>
      <point x="314.5" y="1023" type="line"/>
    </contour>
    <contour>
      <point x="1734.5" y="1028" type="line"/>
      <point x="1734.5" y="12" type="line"/>
      <point x="1933.5" y="12" type="line"/>
      <point x="1933.5" y="1028" type="line"/>
    </contour>
    <contour>
      <point x="920.5" y="610" type="line"/>
      <point x="921.5" y="1" type="line"/>
      <point x="1120.5" y="1" type="line"/>
      <point x="1121.5" y="610" type="line"/>
    </contour>
    <contour>
      <point x="114.5" y="276" type="line"/>
      <point x="116.5" y="1" type="line"/>
      <point x="1933.5" y="0" type="line"/>
      <point x="1933.5" y="276" type="line"/>
    </contour>
  </outline>
</glyph>
<glyph name="x" format="2">
	<unicode hex="0078"/>
	<advance width="2048"/>
	<outline>
		<contour>
			<point x="102" y="0" type="line"/>
			<point x="440" y="0" type="line"/>
			<point x="1938" y="1023" type="line"/>
			<point x="1644" y="1023" type="line"/>
		</contour>
		<contour>
			<point x="104" y="1023" type="line"/>
			<point x="1650" y="0" type="line"/>
			<point x="1946" y="0" type="line"/>
			<point x="444" y="1023" type="line"/>
		</contour>
	</outline>
</glyph>
<glyph name="y" format="2">
  <advance width="2048"/>
  <unicode hex="0079"/>
  <outline>
    <contour>
      <point x="1690.0" y="1023.0" type="line"/>
      <point x="1690.0" y="-406.0" type="line"/>
      <point x="1890.0" y="-406.0" type="line"/>
      <point x="1890.0" y="1023.0" type="line"/>
    </contour>
    <contour>
      <point x="158.0" y="-211.0" type="line"/>
      <point x="158.0" y="-406.0" type="line"/>
      <point x="1874.0" y="-406.0" type="line"/>
      <point x="1874.0" y="-211.0" type="line"/>
    </contour>
    <contour>
      <point x="158.0" y="1023.0" type="line"/>
      <point x="158.0" y="264.0" type="line"/>
      <point x="358.0" y="264.0" type="line"/>
      <point x="358.0" y="1023.0" type="line"/>
    </contour>
    <contour>
      <point x="158.0" y="464.0" type="line"/>
      <point x="158.0" y="264.0" type="line"/>
      <point x="1776.0" y="264.0" type="line"/>
      <point x="1776.0" y="464.0" type="line"/>
    </contour>
  </outline>
</glyph>
<glyph name="z" format="2">
  <advance width="2048"/>
  <unicode hex="007A"/>
  <outline>
    <contour>
      <point x="110.0" y="1023.0" type="line"/>
      <point x="110.0" y="826.0" type="line"/>
      <point x="1938.0" y="826.0" type="line"/>
      <point x="1938.0" y="1023.0" type="line"/>
    </contour>
    <contour>
      <point x="110.0" y="201.0" type="line"/>
      <point x="110.0" y="0.0" type="line"/>
      <point x="1938.0" y="0.0" type="line"/>
      <point x="1938.0" y="201.0" type="line"/>
    </contour>
    <contour>
      <point x="1646.0" y="826.0" type="line"/>
      <point x="110.0" y="201.0" type="line"/>
      <point x="416.0" y="201.0" type="line"/>
      <point x="1938.0" y="826.0" type="line"/>
    </contour>
  </outline>
</glyph>
<glyph name="braceleft" format="2">
  <advance width="2048"/>
  <unicode hex="007B"/>
  <outline>
    <contour>
      <point x="1024.0" y="1548.0" type="line"/>
      <point x="1024.0" y="838.0" type="line"/>
      <point x="1170.0" y="838.0" type="line"/>
      <point x="1170.0" y="1548.0" type="line"/>
    </contour>
    <contour>
      <point x="1036.0" y="424.0" type="line"/>
      <point x="1036.0" y="-286.0" type="line"/>
      <point x="1182.0" y="-286.0" type="line"/>
      <point x="1182.0" y="424.0" type="line"/>
    </contour>
    <contour>
      <point x="735.0" y="690.0" type="line"/>
      <point x="735.0" y="630.0" type="line"/>
      <point x="1170.0" y="838.0" type="line"/>
      <point x="1024.0" y="838.0" type="line"/>
    </contour>
    <contour>
      <point x="735.0" y="690.0" type="line"/>
      <point x="735.0" y="630.0" type="line"/>
      <point x="1034.0" y="425.0" type="line"/>
      <point x="1183.0" y="425.0" type="line"/>
    </contour>
    <contour>
      <point x="1025.0" y="1603.0" type="line"/>
      <point x="1025.0" y="1452.0" type="line"/>
      <point x="1293.0" y="1574.0" type="line"/>
      <point x="1297.0" y="1603.0" type="line"/>
    </contour>
    <contour>
      <point x="1037.0" y="-140.0" type="line"/>
      <point x="1037.0" y="-287.0" type="line"/>
      <point x="1313.0" y="-287.0" type="line"/>
      <point x="1313.0" y="-274.0" type="line"/>
    </contour>
  </outline>
</glyph>
<glyph name="bar" format="2">
	<unicode hex="007C"/>
	<advance width="2048"/>
	<outline>
		<contour>
			<point x="922" y="1435" type="line"/>
			<point x="922" y="-90" type="line"/>
			<point x="1126" y="-90" type="line"/>
			<point x="1126" y="1435" type="line"/>
		</contour>
	</outline>
</glyph>
<glyph name="braceright" format="2">
  <advance width="2048"/>
  <unicode hex="007D"/>
  <outline>
    <contour>
      <point x="1040.0" y="1548.0" type="line"/>
      <point x="878.0" y="1548.0" type="line"/>
      <point x="878.0" y="838.0" type="line"/>
      <point x="1036.0" y="838.0" type="line"/>
    </contour>
    <contour>
      <point x="1026.0" y="424.0" type="line"/>
      <point x="866.0" y="424.0" type="line"/>
      <point x="866.0" y="-286.0" type="line"/>
      <point x="1026.0" y="-286.0" type="line"/>
    </contour>
    <contour>
      <point x="1313.0" y="690.0" type="line"/>
      <point x="1035.0" y="838.0" type="line"/>
      <point x="874.0" y="838.0" type="line"/>
      <point x="1313.0" y="630.0" type="line"/>
    </contour>
    <contour>
      <point x="1313.0" y="690.0" type="line"/>
      <point x="866.0" y="424.0" type="line"/>
      <point x="1026.0" y="424.0" type="line"/>
      <point x="1313.0" y="630.0" type="line"/>
    </contour>
    <contour>
      <point x="1041.0" y="1603.0" type="line"/>
      <point x="766.0" y="1603.0" type="line"/>
      <point x="770.0" y="1574.0" type="line"/>
      <point x="1038.0" y="1452.0" type="line"/>
    </contour>
    <contour>
      <point x="1011.0" y="-140.0" type="line"/>
      <point x="735.0" y="-274.0" type="line"/>
      <point x="735.0" y="-284.0" type="line"/>
      <point x="1011.0" y="-284.0" type="line"/>
    </contour>
  </outline>
</glyph>
<glyph name="asciitilde" format="2">
  <advance width="2048"/>
  <unicode hex="007E"/>
  <outline>
    <contour>
      <point x="878.0" y="815.0" type="line"/>
      <point x="878.0" y="716.0" type="line"/>
      <point x="1228.0" y="655.0" type="line"/>
      <point x="1228.0" y="754.0" type="line"/>
    </contour>
    <contour>
      <point x="640.0" y="757.0" type="line"/>
      <point x="654.0" y="659.0" type="line"/>
      <point x="878.0" y="716.0" type="line"/>
      <point x="878.0" y="815.0" type="line"/>
    </contour>
    <contour>
      <point x="1228.0" y="754.0" type="line"/>
      <point x="1228.0" y="655.0" type="line"/>
      <point x="1408.0" y="796.0" type="line"/>
      <point x="1384.0" y="892.0" type="line"/>
    </contour>
  </outline>
</glyph>
<glyph name="exclamdown" format="2">
	<unicode hex="00A1"/>
	<advance width="2048"/>
	<outline>
		<contour>
			<point x="1096" y="1520" type="line"/>
			<point x="952" y="1520" type="line"/>
			<point x="952" y="1272" type="line"/>
			<point x="1096" y="1272" type="line"/>
		</contour>
		<contour>
			<point x="1086" y="1035" type="line"/>
			<point x="958" y="1035" type="line"/>
			<point x="958" y="17" type="line"/>
			<point x="1086" y="17" type="line"/>
		</contour>
	</outline>
</glyph>
<glyph name="cent" format="2">
  <advance width="2048"/>
  <unicode hex="00A2"/>
  <outline>
    <contour>
      <point x="1203" y="1183" type="line"/>
      <point x="1056" y="1183" type="line"/>
      <point x="1056" y="-86" type="line"/>
      <point x="1203" y="-86" type="line"/>
    </contour>
    <contour>
      <point x="676" y="1023" type="line"/>
      <point x="676" y="826" type="line"/>
      <point x="1372" y="826" type="line"/>
      <point x="1372" y="1023" type="line"/>
    </contour>
    <contour>
      <point x="678" y="984" type="line"/>
      <point x="678" y="0" type="line"/>
      <point x="880" y="0" type="line"/>
      <point x="880" y="984" type="line"/>
    </contour>
    <contour>
      <point x="784" y="201" type="line"/>
      <point x="784" y="0" type="line"/>
      <point x="1366" y="0" type="line"/>
      <point x="1366" y="201" type="line"/>
    </contour>
  </outline>
</glyph>
<glyph name="sterling" format="2">
  <advance width="2048"/>
  <unicode hex="00A3"/>
  <outline>
    <contour>
      <point x="934.0" y="1543.0" type="line"/>
      <point x="934.0" y="1344.0" type="line"/>
      <point x="1225.0" y="1344.0" type="line"/>
      <point x="1225.0" y="1543.0" type="line"/>
    </contour>
    <contour>
      <point x="607.0" y="770.0" type="line"/>
      <point x="607.0" y="571.0" type="line"/>
      <point x="1333.0" y="571.0" type="line"/>
      <point x="1333.0" y="770.0" type="line"/>
    </contour>
    <contour>
      <point x="890.0" y="1542.0" type="line"/>
      <point x="890.0" y="0.0" type="line"/>
      <point x="1088.0" y="0.0" type="line"/>
      <point x="1088.0" y="1542.0" type="line"/>
    </contour>
    <contour>
      <point x="715.0" y="202.0" type="line"/>
      <point x="715.0" y="0.0" type="line"/>
      <point x="1441.0" y="0.0" type="line"/>
      <point x="1441.0" y="202.0" type="line"/>
    </contour>
  </outline>
</glyph>
<glyph name="currency" format="2">
  <advance width="2048"/>
  <unicode hex="00A4"/>
  <outline>
    <contour>
      <point x="116" y="1204" type="line"/>
      <point x="114" y="180" type="line"/>
      <point x="318" y="180" type="line"/>
      <point x="316" y="1202" type="line"/>
    </contour>
    <contour>
      <point x="1731" y="1204" type="line"/>
      <point x="1731" y="180" type="line"/>
      <point x="1933" y="180" type="line"/>
      <point x="1933" y="1204" type="line"/>
    </contour>
    <contour>
      <point x="239" y="1201" type="line"/>
      <point x="239" y="1002" type="line"/>
      <point x="1824" y="1002" type="line"/>
      <point x="1825" y="1204" type="line"/>
    </contour>
    <contour>
      <point x="243" y="380" type="line"/>
      <point x="243" y="181" type="line"/>
      <point x="1815" y="181" type="line"/>
      <point x="1815" y="380" type="line"/>
    </contour>
    <contour>
      <point x="52.5" y="1372" type="line"/>
      <point x="52.5" y="1125" type="line"/>
      <point x="317.5" y="1125" type="line"/>
      <point x="317.5" y="1372" type="line"/>
    </contour>
    <contour>
      <point x="1730.5" y="1371" type="line"/>
      <point x="1730.5" y="1124" type="line"/>
      <point x="1995.5" y="1124" type="line"/>
      <point x="1995.5" y="1371" type="line"/>
    </contour>
    <contour>
      <point x="50.5" y="270" type="line"/>
      <point x="50.5" y="23" type="line"/>
      <point x="315.5" y="23" type="line"/>
      <point x="315.5" y="270" type="line"/>
    </contour>
    <contour>
      <point x="1732.5" y="279" type="line"/>
      <point x="1732.5" y="32" type="line"/>
      <point x="1997.5" y="32" type="line"/>
      <point x="1997.5" y="279" type="line"/>
    </contour>
  </outline>
</glyph>
<glyph name="yen" format="2">
  <advance width="2048"/>
  <unicode hex="00A5"/>
  <outline>
    <contour>
      <point x="140" y="775" type="line"/>
      <point x="140" y="615" type="line"/>
      <point x="1886" y="615" type="line"/>
      <point x="1886" y="775" type="line"/>
    </contour>
    <contour>
      <point x="140" y="540" type="line"/>
      <point x="140" y="380" type="line"/>
      <point x="1886" y="380" type="line"/>
      <point x="1886" y="540" type="line"/>
    </contour>
    <contour>
      <point x="923" y="897" type="line"/>
      <point x="923" y="-1" type="line"/>
      <point x="1125" y="-1" type="line"/>
      <point x="1125" y="897" type="line"/>
    </contour>
    <contour>
      <point x="72" y="1547" type="line"/>
      <point x="72" y="859" type="line"/>
      <point x="272" y="859" type="line"/>
      <point x="272" y="1547" type="line"/>
    </contour>
    <contour>
      <point x="1777" y="1547" type="line"/>
      <point x="1777" y="859" type="line"/>
      <point x="1976" y="859" type="line"/>
      <point x="1976" y="1547" type="line"/>
    </contour>
    <contour>
      <point x="140" y="1019" type="line"/>
      <point x="140" y="859" type="line"/>
      <point x="1886" y="859" type="line"/>
      <point x="1886" y="1019" type="line"/>
    </contour>
  </outline>
</glyph>
<glyph name="brokenbar" format="2">
  <advance width="2048"/>
  <unicode hex="00A6"/>
  <outline>
    <contour>
      <point x="967.0" y="-332.0" type="line"/>
      <point x="1077.0" y="-332.0" type="line"/>
      <point x="1077.0" y="682.0" type="line"/>
      <point x="967.0" y="682.0" type="line"/>
    </contour>
    <contour>
      <point x="970.0" y="790.0" type="line"/>
      <point x="1081.0" y="790.0" type="line"/>
      <point x="1081.0" y="1636.0" type="line"/>
      <point x="970.0" y="1636.0" type="line"/>
    </contour>
  </outline>
</glyph>
<glyph name="section" format="2">
  <advance width="2048"/>
  <unicode hex="00A7"/>
  <outline>
    <contour>
      <point x="633.5" y="1238" type="line"/>
      <point x="633.5" y="1035" type="line"/>
      <point x="1231.5" y="1035" type="line"/>
      <point x="1231.5" y="1238" type="line"/>
    </contour>
    <contour>
      <point x="633.5" y="1241" type="line"/>
      <point x="633.5" y="605" type="line"/>
      <point x="835.5" y="605" type="line"/>
      <point x="835.5" y="1241" type="line"/>
    </contour>
    <contour>
      <point x="670.5" y="-61" type="line"/>
      <point x="670.5" y="-260" type="line"/>
      <point x="1378.5" y="-260" type="line"/>
      <point x="1378.5" y="-61" type="line"/>
    </contour>
    <contour>
      <point x="1213.5" y="-259" type="line"/>
      <point x="1414.5" y="-259" type="line"/>
      <point x="1414.5" y="95" type="line"/>
      <point x="1213.5" y="95" type="line"/>
    </contour>
    <contour>
      <point x="633.5" y="605" type="line"/>
      <point x="1213.5" y="95" type="line"/>
      <point x="1414.5" y="95" type="line"/>
      <point x="835.5" y="605" type="line"/>
    </contour>
    <contour>
      <point x="633.5" y="1626" type="line"/>
      <point x="633.5" y="1423" type="line"/>
      <point x="1231.5" y="1423" type="line"/>
      <point x="1231.5" y="1626" type="line"/>
    </contour>
    <contour>
      <point x="633.5" y="1629" type="line"/>
      <point x="633.5" y="1237" type="line"/>
      <point x="835.5" y="1237" type="line"/>
      <point x="835.5" y="1629" type="line"/>
    </contour>
    <contour>
      <point x="661.5" y="286" type="line"/>
      <point x="661.5" y="87" type="line"/>
      <point x="1369.5" y="87" type="line"/>
      <point x="1369.5" y="286" type="line"/>
    </contour>
    <contour>
      <point x="1204.5" y="88" type="line"/>
      <point x="1405.5" y="88" type="line"/>
      <point x="1405.5" y="442" type="line"/>
      <point x="1204.5" y="442" type="line"/>
    </contour>
    <contour>
      <point x="633.5" y="1237" type="line"/>
      <point x="1204.5" y="442" type="line"/>
      <point x="1405.5" y="442" type="line"/>
      <point x="835.5" y="1237" type="line"/>
    </contour>
  </outline>
</glyph>
<glyph name="dieresis" format="2">
  <advance width="2048"/>
  <unicode hex="00A8"/>
  <outline>
    <contour>
      <point x="724.5" y="1016.25" type="line"/>
      <point x="724.5" y="864.75" type="line"/>
      <point x="892.5" y="864.75" type="line"/>
      <point x="892.5" y="1016.25" type="line"/>
    </contour>
    <contour>
      <point x="1087.5" y="1016.25" type="line"/>
      <point x="1087.5" y="864.75" type="line"/>
      <point x="1255.5" y="864.75" type="line"/>
      <point x="1255.5" y="1016.25" type="line"/>
    </contour>
  </outline>
</glyph>
<glyph name="copyright" format="2">
  <advance width="2048"/>
  <unicode hex="00A9"/>
  <outline>
    <contour>
      <point x="24.0" y="1537.0" type="line"/>
      <point x="24.0" y="0.0" type="line"/>
      <point x="224.0" y="0.0" type="line"/>
      <point x="224.0" y="1537.0" type="line"/>
    </contour>
    <contour>
      <point x="1822.0" y="1537.0" type="line"/>
      <point x="1822.0" y="0.0" type="line"/>
      <point x="2024.0" y="0.0" type="line"/>
      <point x="2024.0" y="1537.0" type="line"/>
    </contour>
    <contour>
      <point x="134.0" y="1537.0" type="line"/>
      <point x="134.0" y="1337.0" type="line"/>
      <point x="1824.0" y="1337.0" type="line"/>
      <point x="1824.0" y="1537.0" type="line"/>
    </contour>
    <contour>
      <point x="158.0" y="204.0" type="line"/>
      <point x="158.0" y="0.0" type="line"/>
      <point x="1830.0" y="0.0" type="line"/>
      <point x="1830.0" y="204.0" type="line"/>
    </contour>
    <contour>
      <point x="270.0" y="1197.0" type="line"/>
      <point x="270.0" y="996.0" type="line"/>
      <point x="1704.0" y="996.0" type="line"/>
      <point x="1704.0" y="1197.0" type="line"/>
    </contour>
    <contour>
      <point x="270.0" y="1154.0" type="line"/>
      <point x="270.0" y="340.0" type="line"/>
      <point x="440.0" y="340.0" type="line"/>
      <point x="440.0" y="1154.0" type="line"/>
    </contour>
    <contour>
      <point x="270.0" y="495.0" type="line"/>
      <point x="270.0" y="294.0" type="line"/>
      <point x="1710.0" y="294.0" type="line"/>
      <point x="1710.0" y="495.0" type="line"/>
    </contour>
  </outline>
</glyph>
<glyph name="ordfeminine" format="2">
	<unicode hex="00AA"/>
	<advance width="2048"/>
	<outline>
		<contour>
			<point x="217" y="1319" type="line"/>
			<point x="217" y="1119" type="line"/>
			<point x="1823" y="1119" type="line"/>
			<point x="1823" y="1319" type="line"/>
		</contour>
		<contour>
			<point x="1710" y="1320" type="line"/>
			<point x="1710" y="296" type="line"/>
			<point x="1904" y="296" type="line"/>
			<point x="1904" y="1320" type="line"/>
		</contour>
		<contour>
			<point x="221" y="894" type="line"/>
			<point x="221" y="695" type="line"/>
			<point x="1845" y="695" type="line"/>
			<point x="1845" y="894" type="line"/>
		</contour>
		<contour>
			<point x="221" y="870" type="line"/>
			<point x="221" y="293" type="line"/>
			<point x="422" y="293" type="line"/>
			<point x="422" y="870" type="line"/>
		</contour>
		<contour>
			<point x="219" y="496" type="line"/>
			<point x="219" y="296" type="line"/>
			<point x="1909" y="296" type="line"/>
			<point x="1909" y="496" type="line"/>
		</contour>
		<contour>
			<point x="126" y="162" type="line"/>
			<point x="126" y="0" type="line"/>
			<point x="1922" y="0" type="line"/>
			<point x="1922" y="162" type="line"/>
		</contour>
	</outline>
</glyph>
<glyph name="guillemotleft" format="2">
  <advance width="2048"/>
  <unicode hex="00AB"/>
  <outline>
    <contour>
      <point x="632.0" y="609.0" type="line"/>
      <point x="632.0" y="454.0" type="line"/>
      <point x="1001.0" y="631.0" type="line"/>
      <point x="1001.0" y="784.0" type="line"/>
    </contour>
    <contour>
      <point x="632.0" y="609.0" type="line"/>
      <point x="632.0" y="454.0" type="line"/>
      <point x="1000.0" y="122.0" type="line"/>
      <point x="1000.0" y="268.0" type="line"/>
    </contour>
    <contour>
      <point x="1047.0" y="609.0" type="line"/>
      <point x="1047.0" y="454.0" type="line"/>
      <point x="1416.0" y="631.0" type="line"/>
      <point x="1416.0" y="784.0" type="line"/>
    </contour>
    <contour>
      <point x="1047.0" y="609.0" type="line"/>
      <point x="1047.0" y="454.0" type="line"/>
      <point x="1415.0" y="122.0" type="line"/>
      <point x="1415.0" y="268.0" type="line"/>
    </contour>
  </outline>
</glyph>
<glyph name="logicalnot" format="2">
  <advance width="2048"/>
  <unicode hex="00AC"/>
  <outline>
    <contour>
      <point x="1179.0" y="935.0" type="line"/>
      <point x="1179.0" y="640.0" type="line"/>
      <point x="1289.0" y="640.0" type="line"/>
      <point x="1289.0" y="935.0" type="line"/>
    </contour>
    <contour>
      <point x="749.0" y="935.0" type="line"/>
      <point x="749.0" y="835.0" type="line"/>
      <point x="1299.0" y="835.0" type="line"/>
      <point x="1299.0" y="935.0" type="line"/>
    </contour>
  </outline>
</glyph>
<glyph name="registered" format="2">
  <advance width="2048"/>
  <unicode hex="00AE"/>
  <outline>
    <contour>
      <point x="909" y="1032" type="line"/>
      <point x="909" y="501" type="line"/>
      <point x="977" y="501" type="line"/>
      <point x="977" y="1032" type="line"/>
    </contour>
    <contour>
      <point x="934" y="1032" type="line"/>
      <point x="934" y="963" type="line"/>
      <point x="1163" y="963" type="line"/>
      <point x="1163" y="1032" type="line"/>
    </contour>
    <contour>
      <point x="1103" y="1032" type="line"/>
      <point x="1103" y="802" type="line"/>
      <point x="1172" y="802" type="line"/>
      <point x="1172" y="1032" type="line"/>
    </contour>
    <contour>
      <point x="930" y="875" type="line"/>
      <point x="930" y="801" type="line"/>
      <point x="1168" y="801" type="line"/>
      <point x="1168" y="875" type="line"/>
    </contour>
    <contour>
      <point x="977" y="809" type="line"/>
      <point x="1116" y="500" type="line"/>
      <point x="1199" y="500" type="line"/>
      <point x="1047" y="809" type="line"/>
    </contour>
    <contour>
      <point x="553" y="1540" type="line"/>
      <point x="553" y="0" type="line"/>
      <point x="754" y="0" type="line"/>
      <point x="754" y="1540" type="line"/>
    </contour>
    <contour>
      <point x="1292" y="1537" type="line"/>
      <point x="1292" y="0" type="line"/>
      <point x="1495" y="0" type="line"/>
      <point x="1495" y="1537" type="line"/>
    </contour>
    <contour>
      <point x="694" y="1538" type="line"/>
      <point x="694" y="1337" type="line"/>
      <point x="1337" y="1337" type="line"/>
      <point x="1337" y="1538" type="line"/>
    </contour>
    <contour>
      <point x="670" y="204" type="line"/>
      <point x="670" y="0" type="line"/>
      <point x="1343" y="0" type="line"/>
      <point x="1343" y="204" type="line"/>
    </contour>
  </outline>
</glyph>
<glyph name="macron" format="2">
  <advance width="2048"/>
  <unicode hex="00AF"/>
  <outline>
    <contour>
      <point x="758" y="1019" type="line"/>
      <point x="758" y="941" type="line"/>
      <point x="1318" y="941" type="line"/>
      <point x="1318" y="1019" type="line"/>
    </contour>
  </outline>
</glyph>
<glyph name="degree" format="2">
  <advance width="2048"/>
  <unicode hex="00B0"/>
  <outline>
    <contour>
      <point x="949.0" y="1456.0" type="line"/>
      <point x="1097.0" y="1456.0" type="line"/>
      <point x="1097.0" y="1326.0" type="line"/>
      <point x="949.0" y="1326.0" type="line"/>
    </contour>
    <contour>
      <point x="844.0" y="1548.0" type="line"/>
      <point x="844.0" y="1238.0" type="line"/>
      <point x="1204.0" y="1238.0" type="line"/>
      <point x="1204.0" y="1548.0" type="line"/>
    </contour>
  </outline>
</glyph>
<glyph name="plusminus" format="2">
  <advance width="2048"/>
  <unicode hex="00B1"/>
  <outline>
    <contour>
      <point x="611.0" y="108.0" type="line"/>
      <point x="611.0" y="-100.0" type="line"/>
      <point x="1437.0" y="-100.0" type="line"/>
      <point x="1437.0" y="108.0" type="line"/>
    </contour>
    <contour>
      <point x="896.0" y="1221.0" type="line"/>
      <point x="896.0" y="165.0" type="line"/>
      <point x="1121.0" y="165.0" type="line"/>
      <point x="1121.0" y="1221.0" type="line"/>
    </contour>
    <contour>
      <point x="573.0" y="821.0" type="line"/>
      <point x="573.0" y="613.0" type="line"/>
      <point x="1475.0" y="613.0" type="line"/>
      <point x="1475.0" y="821.0" type="line"/>
    </contour>
  </outline>
</glyph>
<glyph name="uni00B2" format="2">
  <advance width="2048"/>
  <unicode hex="00B2"/>
  <outline>
    <contour>
      <point x="623.199" y="944" type="line"/>
      <point x="623.199" y="1301.6" type="line"/>
      <point x="746.4" y="1301.6" type="line"/>
      <point x="746.4" y="944" type="line"/>
    </contour>
    <contour>
      <point x="624.802" y="990.8" type="line"/>
      <point x="1367.2" y="995.6" type="line"/>
      <point x="1368" y="892" type="line"/>
      <point x="627.199" y="892" type="line"/>
    </contour>
    <contour>
      <point x="676.001" y="1465.2" type="line"/>
      <point x="676.001" y="1548" type="line"/>
      <point x="1347.6" y="1548" type="line"/>
      <point x="1347.6" y="1465.2" type="line"/>
    </contour>
    <contour>
      <point x="744.001" y="1192.4" type="line"/>
      <point x="744.001" y="1301.6" type="line"/>
      <point x="1337.2" y="1301.6" type="line"/>
      <point x="1337.2" y="1192.4" type="line"/>
    </contour>
    <contour>
      <point x="1331.2" y="1192.4" type="line"/>
      <point x="1331.2" y="1548" type="line"/>
      <point x="1424.8" y="1548" type="line"/>
      <point x="1424.8" y="1192.4" type="line"/>
    </contour>
  </outline>
</glyph>
<glyph name="uni00B3" format="2">
  <advance width="2048"/>
  <unicode hex="00B3"/>
  <outline>
    <contour>
      <point x="456.0" y="1184.0" type="line"/>
      <point x="1408.0" y="1184.0" type="line"/>
      <point x="1408.0" y="938.0" type="line"/>
      <point x="432.0" y="938.0" type="line"/>
      <point x="432.0" y="849.0" type="line"/>
      <point x="1524.0" y="849.0" type="line"/>
      <point x="1524.0" y="1553.0" type="line"/>
      <point x="449.0" y="1553.0" type="line"/>
      <point x="449.0" y="1463.0" type="line"/>
      <point x="1407.0" y="1463.0" type="line"/>
      <point x="1407.0" y="1275.0" type="line"/>
      <point x="456.0" y="1275.0" type="line"/>
    </contour>
  </outline>
</glyph>
<glyph name="acute" format="2">
  <advance width="2048"/>
  <unicode hex="00B4"/>
  <outline>
    <contour>
      <point x="1044" y="1158" type="line"/>
      <point x="914" y="904" type="line"/>
      <point x="1002" y="858" type="line"/>
      <point x="1134" y="1113" type="line"/>
    </contour>
  </outline>
</glyph>
<glyph name="mu" format="2">
  <advance width="2048"/>
  <unicode hex="00B5"/>
  <outline>
    <contour>
      <point x="1646" y="935" type="line"/>
      <point x="1646" y="0" type="line"/>
      <point x="1846" y="0" type="line"/>
      <point x="1846" y="935" type="line"/>
    </contour>
    <contour>
      <point x="274" y="200" type="line"/>
      <point x="274" y="0" type="line"/>
      <point x="1788" y="0" type="line"/>
      <point x="1788" y="200" type="line"/>
    </contour>
    <contour>
      <point x="202" y="935" type="line"/>
      <point x="202" y="-430" type="line"/>
      <point x="402" y="-430" type="line"/>
      <point x="402" y="935" type="line"/>
    </contour>
  </outline>
</glyph>
<glyph name="paragraph" format="2">
  <advance width="2048"/>
  <unicode hex="00B6"/>
  <outline>
    <contour>
      <point x="602" y="1130" type="line"/>
      <point x="602" y="985" type="line"/>
      <point x="1166" y="985" type="line"/>
      <point x="1166" y="1130" type="line"/>
    </contour>
    <contour>
      <point x="602" y="1548" type="line"/>
      <point x="602" y="1000" type="line"/>
      <point x="762" y="1000" type="line"/>
      <point x="762" y="1548" type="line"/>
    </contour>
    <contour>
      <point x="602" y="1548" type="line"/>
      <point x="602" y="1435" type="line"/>
      <point x="1422" y="1435" type="line"/>
      <point x="1422" y="1548" type="line"/>
    </contour>
    <contour>
      <point x="1072" y="1548" type="line"/>
      <point x="1072" y="0" type="line"/>
      <point x="1216" y="0" type="line"/>
      <point x="1216" y="1548" type="line"/>
    </contour>
    <contour>
      <point x="1342" y="1548" type="line"/>
      <point x="1342" y="0" type="line"/>
      <point x="1446" y="0" type="line"/>
      <point x="1446" y="1548" type="line"/>
    </contour>
  </outline>
</glyph>
<glyph name="periodcentered" format="2">
  <advance width="2048"/>
  <unicode hex="00B7"/>
  <outline>
    <contour>
      <point x="892.0" y="1146.0" type="line"/>
      <point x="892.0" y="899.0" type="line"/>
      <point x="1156.0" y="899.0" type="line"/>
      <point x="1156.0" y="1146.0" type="line"/>
    </contour>
  </outline>
</glyph>
<glyph name="cedilla" format="2">
  <advance width="2048"/>
  <unicode hex="00B8"/>
  <outline>
    <contour>
      <point x="800.0" y="185.0" type="line"/>
      <point x="800.0" y="-139.0" type="line"/>
      <point x="956.0" y="-139.0" type="line"/>
      <point x="956.0" y="185.0" type="line"/>
    </contour>
    <contour>
      <point x="802.0" y="-283.0" type="line"/>
      <point x="802.0" y="-406.0" type="line"/>
      <point x="1248.0" y="-406.0" type="line"/>
      <point x="1248.0" y="-283.0" type="line"/>
    </contour>
    <contour>
      <point x="1096.0" y="5.0" type="line"/>
      <point x="1096.0" y="-367.0" type="line"/>
      <point x="1248.0" y="-367.0" type="line"/>
      <point x="1248.0" y="5.0" type="line"/>
    </contour>
    <contour>
      <point x="802.0" y="5.0" type="line"/>
      <point x="802.0" y="-151.0" type="line"/>
      <point x="1248.0" y="-151.0" type="line"/>
      <point x="1248.0" y="5.0" type="line"/>
    </contour>
  </outline>
</glyph>
<glyph name="uni00B9" format="2">
  <advance width="2048"/>
  <unicode hex="00B9"/>
  <outline>
    <contour>
      <point x="967.4" y="894" type="line"/>
      <point x="967.4" y="1232" type="line"/>
      <point x="1077" y="1230" type="line"/>
      <point x="1077" y="892" type="line"/>
    </contour>
    <contour>
      <point x="970.199" y="1266" type="line"/>
      <point x="970.199" y="1548" type="line"/>
      <point x="1080.6" y="1548" type="line"/>
      <point x="1080.6" y="1266" type="line"/>
    </contour>
  </outline>
</glyph>
<glyph name="ordmasculine" format="2">
  <advance width="2048"/>
  <unicode hex="00BA"/>
  <outline>
    <contour>
      <point x="172.0" y="1023.0" type="line"/>
      <point x="172.0" y="0.0" type="line"/>
      <point x="372.0" y="0.0" type="line"/>
      <point x="372.0" y="1023.0" type="line"/>
    </contour>
    <contour>
      <point x="1787.0" y="1023.0" type="line"/>
      <point x="1787.0" y="0.0" type="line"/>
      <point x="1989.0" y="0.0" type="line"/>
      <point x="1989.0" y="1023.0" type="line"/>
    </contour>
    <contour>
      <point x="295.0" y="1023.0" type="line"/>
      <point x="295.0" y="822.0" type="line"/>
      <point x="1881.0" y="822.0" type="line"/>
      <point x="1881.0" y="1023.0" type="line"/>
    </contour>
    <contour>
      <point x="299.0" y="200.0" type="line"/>
      <point x="299.0" y="0.0" type="line"/>
      <point x="1871.0" y="0.0" type="line"/>
      <point x="1871.0" y="200.0" type="line"/>
    </contour>
    <contour>
      <point x="0.0" y="-84.0" type="line"/>
      <point x="0.0" y="-216.0" type="line"/>
      <point x="2048.0" y="-216.0" type="line"/>
      <point x="2048.0" y="-84.0" type="line"/>
    </contour>
  </outline>
</glyph>
<glyph name="guillemotright" format="2">
  <advance width="2048"/>
  <unicode hex="00BB"/>
  <outline>
    <contour>
      <point x="1416.0" y="609.0" type="line"/>
      <point x="1047.0" y="784.0" type="line"/>
      <point x="1047.0" y="631.0" type="line"/>
      <point x="1416.0" y="454.0" type="line"/>
    </contour>
    <contour>
      <point x="1416.0" y="609.0" type="line"/>
      <point x="1048.0" y="268.0" type="line"/>
      <point x="1048.0" y="122.0" type="line"/>
      <point x="1416.0" y="454.0" type="line"/>
    </contour>
    <contour>
      <point x="1001.0" y="609.0" type="line"/>
      <point x="632.0" y="784.0" type="line"/>
      <point x="632.0" y="631.0" type="line"/>
      <point x="1001.0" y="454.0" type="line"/>
    </contour>
    <contour>
      <point x="1001.0" y="609.0" type="line"/>
      <point x="633.0" y="268.0" type="line"/>
      <point x="633.0" y="122.0" type="line"/>
      <point x="1001.0" y="454.0" type="line"/>
    </contour>
  </outline>
</glyph>
<glyph name="onequarter" format="2">
  <advance width="2048"/>
  <unicode hex="00BC"/>
  <outline>
    <contour>
      <point x="1002" y="1483" type="line"/>
      <point x="432" y="6" type="line"/>
      <point x="620" y="-67" type="line"/>
      <point x="1190" y="1410" type="line"/>
    </contour>
    <contour>
      <point x="302.7" y="894" type="line"/>
      <point x="302.7" y="1232" type="line"/>
      <point x="412.299" y="1230" type="line"/>
      <point x="412.299" y="892" type="line"/>
    </contour>
    <contour>
      <point x="305.5" y="1266" type="line"/>
      <point x="305.5" y="1548" type="line"/>
      <point x="415.901" y="1548" type="line"/>
      <point x="415.901" y="1266" type="line"/>
    </contour>
    <contour>
      <point x="1007.7" y="319.7" type="line"/>
      <point x="1007.7" y="622.1" type="line"/>
      <point x="1088.9" y="622.1" type="line"/>
      <point x="1088.9" y="319.7" type="line"/>
    </contour>
    <contour>
      <point x="1007.3" y="269.7" type="line"/>
      <point x="1007.3" y="360.5" type="line"/>
      <point x="1743.7" y="361.3" type="line"/>
      <point x="1743.7" y="270.5" type="line"/>
    </contour>
    <contour>
      <point x="1661.7" y="-31.0996" type="line"/>
      <point x="1661.7" y="293.3" type="line"/>
      <point x="1745.3" y="293.3" type="line"/>
      <point x="1745.3" y="-31.0996" type="line"/>
    </contour>
    <contour>
      <point x="1665.3" y="342.1" type="line"/>
      <point x="1665.3" y="616.9" type="line"/>
      <point x="1742.9" y="616.9" type="line"/>
      <point x="1742.9" y="342.1" type="line"/>
    </contour>
  </outline>
</glyph>
<glyph name="onehalf" format="2">
  <advance width="2048"/>
  <unicode hex="00BD"/>
  <outline>
    <contour>
      <point x="1025.95" y="1483" type="line"/>
      <point x="455.95" y="6" type="line"/>
      <point x="643.95" y="-67" type="line"/>
      <point x="1213.95" y="1410" type="line"/>
    </contour>
    <contour>
      <point x="302.65" y="902" type="line"/>
      <point x="302.65" y="1240" type="line"/>
      <point x="412.249" y="1238" type="line"/>
      <point x="412.249" y="900" type="line"/>
    </contour>
    <contour>
      <point x="305.45" y="1274" type="line"/>
      <point x="305.45" y="1556" type="line"/>
      <point x="415.851" y="1556" type="line"/>
      <point x="415.851" y="1274" type="line"/>
    </contour>
    <contour>
      <point x="943.75" y="60" type="line"/>
      <point x="943.75" y="417.6" type="line"/>
      <point x="1066.95" y="417.6" type="line"/>
      <point x="1066.95" y="60" type="line"/>
    </contour>
    <contour>
      <point x="945.35" y="106.8" type="line"/>
      <point x="1687.75" y="111.6" type="line"/>
      <point x="1688.55" y="8" type="line"/>
      <point x="947.75" y="8" type="line"/>
    </contour>
    <contour>
      <point x="996.55" y="581.2" type="line"/>
      <point x="996.55" y="664" type="line"/>
      <point x="1668.15" y="664" type="line"/>
      <point x="1668.15" y="581.2" type="line"/>
    </contour>
    <contour>
      <point x="1064.55" y="308.4" type="line"/>
      <point x="1064.55" y="417.6" type="line"/>
      <point x="1657.75" y="417.6" type="line"/>
      <point x="1657.75" y="308.4" type="line"/>
    </contour>
    <contour>
      <point x="1651.75" y="308.4" type="line"/>
      <point x="1651.75" y="664" type="line"/>
      <point x="1745.35" y="664" type="line"/>
      <point x="1745.35" y="308.4" type="line"/>
    </contour>
  </outline>
</glyph>
<glyph name="threequarters" format="2">
  <advance width="2048"/>
  <unicode hex="00BE"/>
  <outline>
    <contour>
      <point x="1247.25" y="1497" type="line"/>
      <point x="677.25" y="20" type="line"/>
      <point x="865.25" y="-53" type="line"/>
      <point x="1435.25" y="1424" type="line"/>
    </contour>
    <contour>
      <point x="1212.95" y="366.7" type="line"/>
      <point x="1212.95" y="669.1" type="line"/>
      <point x="1294.15" y="669.1" type="line"/>
      <point x="1294.15" y="366.7" type="line"/>
    </contour>
    <contour>
      <point x="1212.55" y="316.7" type="line"/>
      <point x="1212.55" y="407.5" type="line"/>
      <point x="1948.95" y="408.3" type="line"/>
      <point x="1948.95" y="317.5" type="line"/>
    </contour>
    <contour>
      <point x="1866.95" y="15.9004" type="line"/>
      <point x="1866.95" y="340.3" type="line"/>
      <point x="1950.55" y="340.3" type="line"/>
      <point x="1950.55" y="15.9004" type="line"/>
    </contour>
    <contour>
      <point x="1870.55" y="389.1" type="line"/>
      <point x="1870.55" y="663.9" type="line"/>
      <point x="1948.15" y="663.9" type="line"/>
      <point x="1948.15" y="389.1" type="line"/>
    </contour>
    <contour>
      <point x="97.4502" y="1006" type="line"/>
      <point x="856.651" y="1006.8" type="line"/>
      <point x="857.85" y="906.8" type="line"/>
      <point x="101.45" y="913.6" type="line"/>
    </contour>
    <contour>
      <point x="110.25" y="1471.2" type="line"/>
      <point x="109.45" y="1562.4" type="line"/>
      <point x="811.85" y="1566" type="line"/>
      <point x="811.85" y="1471.2" type="line"/>
    </contour>
    <contour>
      <point x="114.25" y="1204.4" type="line"/>
      <point x="114.25" y="1310.4" type="line"/>
      <point x="860.25" y="1310.4" type="line"/>
      <point x="860.25" y="1204.4" type="line"/>
    </contour>
    <contour>
      <point x="777.049" y="990" type="line"/>
      <point x="777.049" y="1212.4" type="line"/>
      <point x="859.049" y="1212.4" type="line"/>
      <point x="859.049" y="990" type="line"/>
    </contour>
    <contour>
      <point x="776.25" y="1295.6" type="line"/>
      <point x="776.25" y="1566" type="line"/>
      <point x="859.049" y="1566" type="line"/>
      <point x="859.049" y="1295.6" type="line"/>
    </contour>
  </outline>
</glyph>
<glyph name="questiondown" format="2">
  <advance width="2048"/>
  <unicode hex="00BF"/>
  <outline>
    <contour>
      <point x="1168.0" y="1273.0" type="line"/>
      <point x="1168.0" y="1519.0" type="line"/>
      <point x="918.0" y="1519.0" type="line"/>
      <point x="918.0" y="1272.0" type="line"/>
    </contour>
    <contour>
      <point x="1344.0" y="0.0" type="line"/>
      <point x="1344.0" y="186.0" type="line"/>
      <point x="708.0" y="186.0" type="line"/>
      <point x="708.0" y="0.0" type="line"/>
    </contour>
    <contour>
      <point x="898.0" y="5.0" type="line"/>
      <point x="898.0" y="553.0" type="line"/>
      <point x="704.0" y="553.0" type="line"/>
      <point x="704.0" y="5.0" type="line"/>
    </contour>
    <contour>
      <point x="1168.0" y="504.0" type="line"/>
      <point x="1168.0" y="703.0" type="line"/>
      <point x="704.0" y="703.0" type="line"/>
      <point x="704.0" y="504.0" type="line"/>
    </contour>
    <contour>
      <point x="1168.0" y="508.0" type="line"/>
      <point x="1168.0" y="1127.0" type="line"/>
      <point x="920.0" y="1127.0" type="line"/>
      <point x="920.0" y="508.0" type="line"/>
    </contour>
  </outline>
</glyph>
<glyph name="AE" format="2">
  <advance width="2048"/>
  <unicode hex="00C6"/>
  <outline>
    <contour>
      <point x="1158.0" y="185.0" type="line"/>
      <point x="1158.0" y="0.0" type="line"/>
      <point x="2020.0" y="0.0" type="line"/>
      <point x="2020.0" y="185.0" type="line"/>
    </contour>
    <contour>
      <point x="125.0" y="0.0" type="line"/>
      <point x="324.0" y="0.0" type="line"/>
      <point x="324.0" y="1548.0" type="line"/>
      <point x="125.0" y="1548.0" type="line"/>
    </contour>
    <contour>
      <point x="186.0" y="1332.0" type="line"/>
      <point x="1998.0" y="1332.0" type="line"/>
      <point x="1998.0" y="1548.0" type="line"/>
      <point x="186.0" y="1548.0" type="line"/>
    </contour>
    <contour>
      <point x="204.0" y="1023.0" type="line"/>
      <point x="204.0" y="849.0" type="line"/>
      <point x="1946.0" y="849.0" type="line"/>
      <point x="1946.0" y="1023.0" type="line"/>
    </contour>
    <contour>
      <point x="1063.0" y="0.0" type="line"/>
      <point x="1263.0" y="0.0" type="line"/>
      <point x="1263.0" y="1548.0" type="line"/>
      <point x="1063.0" y="1548.0" type="line"/>
    </contour>
  </outline>
</glyph>
<glyph name="Eth" format="2">
  <advance width="2048"/>
  <unicode hex="00D0"/>
  <unicode hex="0189"/>
  <outline>
    <contour>
      <point x="0.0" y="935.0" type="line"/>
      <point x="0.0" y="730.0" type="line"/>
      <point x="476.0" y="730.0" type="line"/>
      <point x="476.0" y="935.0" type="line"/>
    </contour>
    <contour>
      <point x="107.0" y="1548.0" type="line"/>
      <point x="107.0" y="0.0" type="line"/>
      <point x="309.0" y="0.0" type="line"/>
      <point x="309.0" y="1548.0" type="line"/>
    </contour>
    <contour>
      <point x="1457.0" y="1548.0" type="line"/>
      <point x="1457.0" y="1350.0" type="line"/>
      <point x="1940.0" y="767.0" type="line"/>
      <point x="1940.0" y="1023.0" type="line"/>
    </contour>
    <contour>
      <point x="1465.0" y="201.0" type="line"/>
      <point x="1465.0" y="0.0" type="line"/>
      <point x="1937.0" y="769.0" type="line"/>
      <point x="1937.0" y="1023.0" type="line"/>
    </contour>
    <contour>
      <point x="271.0" y="1548.0" type="line"/>
      <point x="271.0" y="1349.0" type="line"/>
      <point x="1457.0" y="1349.0" type="line"/>
      <point x="1457.0" y="1548.0" type="line"/>
    </contour>
    <contour>
      <point x="279.0" y="200.0" type="line"/>
      <point x="279.0" y="0.0" type="line"/>
      <point x="1465.0" y="0.0" type="line"/>
      <point x="1465.0" y="200.0" type="line"/>
    </contour>
  </outline>
</glyph>
<glyph name="multiply" format="2">
  <advance width="2048"/>
  <unicode hex="00D7"/>
  <outline>
    <contour>
      <point x="91.0" y="302.0" type="line"/>
      <point x="414.0" y="302.0" type="line"/>
      <point x="1951.0" y="1323.0" type="line"/>
      <point x="1640.0" y="1323.0" type="line"/>
    </contour>
    <contour>
      <point x="93.0" y="1325.0" type="line"/>
      <point x="1647.0" y="298.0" type="line"/>
      <point x="1958.0" y="298.0" type="line"/>
      <point x="417.0" y="1325.0" type="line"/>
    </contour>
  </outline>
</glyph>
<glyph name="Oslash" format="2">
  <advance width="2048"/>
  <unicode hex="00D8"/>
  <outline>
    <contour>
      <point x="1812.0" y="1667.0" type="line"/>
      <point x="35.0" y="-45.0" type="line"/>
      <point x="223.0" y="-118.0" type="line"/>
      <point x="2000.0" y="1594.0" type="line"/>
    </contour>
    <contour>
      <point x="110.0" y="1537.0" type="line"/>
      <point x="110.0" y="0.0" type="line"/>
      <point x="311.0" y="0.0" type="line"/>
      <point x="311.0" y="1537.0" type="line"/>
    </contour>
    <contour>
      <point x="1731.0" y="1537.0" type="line"/>
      <point x="1731.0" y="0.0" type="line"/>
      <point x="1934.0" y="0.0" type="line"/>
      <point x="1934.0" y="1537.0" type="line"/>
    </contour>
    <contour>
      <point x="174.0" y="1537.0" type="line"/>
      <point x="174.0" y="1337.0" type="line"/>
      <point x="1841.0" y="1337.0" type="line"/>
      <point x="1841.0" y="1537.0" type="line"/>
    </contour>
    <contour>
      <point x="150.0" y="204.0" type="line"/>
      <point x="150.0" y="0.0" type="line"/>
      <point x="1847.0" y="0.0" type="line"/>
      <point x="1847.0" y="204.0" type="line"/>
    </contour>
  </outline>
</glyph>
<glyph name="Thorn" format="2">
  <advance width="2048"/>
  <unicode hex="00DE"/>
  <outline>
    <contour>
      <point x="112.0" y="1542.0" type="line"/>
      <point x="112.0" y="9.0" type="line"/>
      <point x="302.0" y="9.0" type="line"/>
      <point x="302.0" y="1542.0" type="line"/>
    </contour>
    <contour>
      <point x="191.0" y="1234.0" type="line"/>
      <point x="191.0" y="1035.0" type="line"/>
      <point x="1871.0" y="1035.0" type="line"/>
      <point x="1871.0" y="1234.0" type="line"/>
    </contour>
    <contour>
      <point x="1691.0" y="1233.0" type="line"/>
      <point x="1691.0" y="569.0" type="line"/>
      <point x="1891.0" y="569.0" type="line"/>
      <point x="1891.0" y="1233.0" type="line"/>
    </contour>
    <contour>
      <point x="179.0" y="684.0" type="line"/>
      <point x="179.0" y="484.0" type="line"/>
      <point x="1890.0" y="484.0" type="line"/>
      <point x="1890.0" y="684.0" type="line"/>
    </contour>
  </outline>
</glyph>
<glyph name="germandbls" format="2">
  <advance width="2048"/>
  <unicode hex="00DF"/>
  <outline>
    <contour>
      <point x="18" y="1221" type="line"/>
      <point x="18" y="1023" type="line"/>
      <point x="525" y="1023" type="line"/>
      <point x="525" y="1221" type="line"/>
    </contour>
    <contour>
      <point x="460" y="1548" type="line"/>
      <point x="460" y="0" type="line"/>
      <point x="666" y="0" type="line"/>
      <point x="666" y="1548" type="line"/>
    </contour>
    <contour>
      <point x="666" y="1548" type="line"/>
      <point x="666" y="1328" type="line"/>
      <point x="1829" y="1328" type="line"/>
      <point x="1829" y="1548" type="line"/>
    </contour>
    <contour>
      <point x="1714" y="1548" type="line"/>
      <point x="1714" y="1023" type="line"/>
      <point x="1913" y="1023" type="line"/>
      <point x="1913" y="1548" type="line"/>
    </contour>
    <contour>
      <point x="1714" y="848" type="line"/>
      <point x="1714" y="175" type="line"/>
      <point x="1914" y="175" type="line"/>
      <point x="1914" y="848" type="line"/>
    </contour>
    <contour>
      <point x="1315" y="251" type="line"/>
      <point x="1315" y="40" type="line"/>
      <point x="1914" y="40" type="line"/>
      <point x="1914" y="251" type="line"/>
    </contour>
    <contour>
      <point x="1378" y="1224" type="line"/>
      <point x="1378" y="1027" type="line"/>
      <point x="1913" y="1020" type="line"/>
      <point x="1913" y="1223" type="line"/>
    </contour>
    <contour>
      <point x="1378" y="897" type="line"/>
      <point x="1378" y="694" type="line"/>
      <point x="1914" y="694" type="line"/>
      <point x="1914" y="897" type="line"/>
    </contour>
    <contour>
      <point x="1029" y="1222" type="line"/>
      <point x="1029" y="697" type="line"/>
      <point x="1378" y="698" type="line"/>
      <point x="1378" y="1223" type="line"/>
    </contour>
  </outline>
</glyph>
<glyph name="ae" format="2">
  <advance width="2048"/>
  <unicode hex="00E6"/>
  <outline>
    <contour>
      <point x="48" y="1028" type="line"/>
      <point x="46" y="828" type="line"/>
      <point x="1889" y="824" type="line"/>
      <point x="1891" y="1024" type="line"/>
    </contour>
    <contour>
      <point x="961" y="1025" type="line"/>
      <point x="961" y="1" type="line"/>
      <point x="1155" y="1" type="line"/>
      <point x="1155" y="1025" type="line"/>
    </contour>
    <contour>
      <point x="71" y="599" type="line"/>
      <point x="71" y="400" type="line"/>
      <point x="1892" y="400" type="line"/>
      <point x="1892" y="599" type="line"/>
    </contour>
    <contour>
      <point x="71" y="575" type="line"/>
      <point x="71" y="-2" type="line"/>
      <point x="272" y="-2" type="line"/>
      <point x="272" y="575" type="line"/>
    </contour>
    <contour>
      <point x="69" y="201" type="line"/>
      <point x="69" y="1" type="line"/>
      <point x="2013" y="1" type="line"/>
      <point x="2013" y="201" type="line"/>
    </contour>
    <contour>
      <point x="1797" y="1022" type="line"/>
      <point x="1797" y="400" type="line"/>
      <point x="1992" y="400" type="line"/>
      <point x="1992" y="1022" type="line"/>
    </contour>
  </outline>
</glyph>
<glyph name="eth" format="2">
  <advance width="2048"/>
  <unicode hex="00F0"/>
  <outline>
    <contour>
      <point x="1265.0" y="1548.0" type="line"/>
      <point x="1716.0" y="0.0" type="line"/>
      <point x="1917.0" y="0.0" type="line"/>
      <point x="1466.0" y="1548.0" type="line"/>
    </contour>
    <contour>
      <point x="228.0" y="1023.0" type="line"/>
      <point x="228.0" y="822.0" type="line"/>
      <point x="1593.0" y="822.0" type="line"/>
      <point x="1593.0" y="1023.0" type="line"/>
    </contour>
    <contour>
      <point x="132.0" y="1023.0" type="line"/>
      <point x="132.0" y="0.0" type="line"/>
      <point x="333.0" y="0.0" type="line"/>
      <point x="333.0" y="1023.0" type="line"/>
    </contour>
    <contour>
      <point x="228.0" y="195.0" type="line"/>
      <point x="228.0" y="0.0" type="line"/>
      <point x="1869.0" y="0.0" type="line"/>
      <point x="1869.0" y="195.0" type="line"/>
    </contour>
    <contour>
      <point x="1185.0" y="1416.0" type="line"/>
      <point x="1185.0" y="1229.0" type="line"/>
      <point x="1717.0" y="1229.0" type="line"/>
      <point x="1717.0" y="1416.0" type="line"/>
    </contour>
  </outline>
</glyph>
<glyph name="divide" format="2">
  <advance width="2048"/>
  <unicode hex="00F7"/>
  <outline>
    <contour>
      <point x="912" y="430" type="line"/>
      <point x="912" y="201" type="line"/>
      <point x="1160" y="201" type="line"/>
      <point x="1160" y="430" type="line"/>
    </contour>
    <contour>
      <point x="888" y="1294" type="line"/>
      <point x="888" y="1047" type="line"/>
      <point x="1154" y="1047" type="line"/>
      <point x="1154" y="1294" type="line"/>
    </contour>
    <contour>
      <point x="611" y="808" type="line"/>
      <point x="611" y="600" type="line"/>
      <point x="1437" y="600" type="line"/>
      <point x="1437" y="808" type="line"/>
    </contour>
  </outline>
</glyph>
<glyph name="oslash" format="2">
  <advance width="2048"/>
  <unicode hex="00F8"/>
  <outline>
    <contour>
      <point x="1861.0" y="1164.0" type="line"/>
      <point x="9.0" y="-5.0" type="line"/>
      <point x="171.0" y="-103.0" type="line"/>
      <point x="2024.0" y="1066.0" type="line"/>
    </contour>
    <contour>
      <point x="104.0" y="1023.0" type="line"/>
      <point x="104.0" y="0.0" type="line"/>
      <point x="304.0" y="0.0" type="line"/>
      <point x="304.0" y="1023.0" type="line"/>
    </contour>
    <contour>
      <point x="1743.0" y="1023.0" type="line"/>
      <point x="1743.0" y="0.0" type="line"/>
      <point x="1945.0" y="0.0" type="line"/>
      <point x="1945.0" y="1023.0" type="line"/>
    </contour>
    <contour>
      <point x="227.0" y="1023.0" type="line"/>
      <point x="227.0" y="822.0" type="line"/>
      <point x="1837.0" y="822.0" type="line"/>
      <point x="1837.0" y="1023.0" type="line"/>
    </contour>
    <contour>
      <point x="231.0" y="200.0" type="line"/>
      <point x="231.0" y="0.0" type="line"/>
      <point x="1827.0" y="0.0" type="line"/>
      <point x="1827.0" y="200.0" type="line"/>
    </contour>
  </outline>
</glyph>
<glyph name="thorn" format="2">
	<unicode hex="00FE"/>
	<advance width="2048"/>
	<outline>
		<contour>
			<point x="173" y="1034" type="line"/>
			<point x="173" y="-406" type="line"/>
			<point x="373" y="-406" type="line"/>
			<point x="373" y="1034" type="line"/>
		</contour>
		<contour>
			<point x="360" y="667" type="line"/>
			<point x="360" y="468" type="line"/>
			<point x="1940" y="468" type="line"/>
			<point x="1940" y="667" type="line"/>
		</contour>
		<contour>
			<point x="368" y="6" type="line"/>
			<point x="368" y="-195" type="line"/>
			<point x="1938" y="-195" type="line"/>
			<point x="1938" y="6" type="line"/>
		</contour>
		<contour>
			<point x="1740" y="597" type="line"/>
			<point x="1740" y="-104" type="line"/>
			<point x="1938" y="-104" type="line"/>
			<point x="1938" y="597" type="line"/>
		</contour>
	</outline>
</glyph>
<glyph name="dcaron" format="2">
  <advance width="2048"/>
  <unicode hex="010F"/>
  <outline>
    <contour>
      <point x="1637.0" y="1527.0" type="line"/>
      <point x="1637.0" y="0.0" type="line"/>
      <point x="1838.0" y="0.0" type="line"/>
      <point x="1838.0" y="1527.0" type="line"/>
    </contour>
    <contour>
      <point x="149.0" y="1023.0" type="line"/>
      <point x="149.0" y="822.0" type="line"/>
      <point x="1726.0" y="822.0" type="line"/>
      <point x="1726.0" y="1023.0" type="line"/>
    </contour>
    <contour>
      <point x="53.0" y="1023.0" type="line"/>
      <point x="53.0" y="0.0" type="line"/>
      <point x="254.0" y="0.0" type="line"/>
      <point x="254.0" y="1023.0" type="line"/>
    </contour>
    <contour>
      <point x="149.0" y="195.0" type="line"/>
      <point x="149.0" y="0.0" type="line"/>
      <point x="1790.0" y="0.0" type="line"/>
      <point x="1790.0" y="195.0" type="line"/>
    </contour>
    <contour>
      <point x="1884.0" y="1496.0" type="line"/>
      <point x="1884.0" y="1264.0" type="line"/>
      <point x="2014.0" y="1264.0" type="line"/>
      <point x="2014.0" y="1496.0" type="line"/>
    </contour>
  </outline>
</glyph>
<glyph name="Dcroat" format="2">
	<unicode hex="0110"/>
	<advance width="2048"/>
	<outline>
		<contour>
			<point x="0" y="935" type="line"/>
			<point x="0" y="730" type="line"/>
			<point x="600" y="730" type="line"/>
			<point x="600" y="935" type="line"/>
		</contour>
		<contour>
			<point x="107" y="1548" type="line"/>
			<point x="107" y="0" type="line"/>
			<point x="309" y="0" type="line"/>
			<point x="309" y="1548" type="line"/>
		</contour>
		<contour>
			<point x="1457" y="1548" type="line"/>
			<point x="1457" y="1350" type="line"/>
			<point x="1940" y="767" type="line"/>
			<point x="1940" y="1023" type="line"/>
		</contour>
		<contour>
			<point x="1465" y="201" type="line"/>
			<point x="1465" y="0" type="line"/>
			<point x="1937" y="769" type="line"/>
			<point x="1937" y="1023" type="line"/>
		</contour>
		<contour>
			<point x="271" y="1548" type="line"/>
			<point x="271" y="1349" type="line"/>
			<point x="1457" y="1349" type="line"/>
			<point x="1457" y="1548" type="line"/>
		</contour>
		<contour>
			<point x="279" y="200" type="line"/>
			<point x="279" y="0" type="line"/>
			<point x="1465" y="0" type="line"/>
			<point x="1465" y="200" type="line"/>
		</contour>
	</outline>
</glyph>
<glyph name="dcroat" format="2">
  <advance width="2048"/>
  <unicode hex="0111"/>
  <outline>
    <contour>
      <point x="1716.0" y="1527.0" type="line"/>
      <point x="1716.0" y="0.0" type="line"/>
      <point x="1917.0" y="0.0" type="line"/>
      <point x="1917.0" y="1527.0" type="line"/>
    </contour>
    <contour>
      <point x="228.0" y="1023.0" type="line"/>
      <point x="228.0" y="822.0" type="line"/>
      <point x="1805.0" y="822.0" type="line"/>
      <point x="1805.0" y="1023.0" type="line"/>
    </contour>
    <contour>
      <point x="132.0" y="1023.0" type="line"/>
      <point x="132.0" y="0.0" type="line"/>
      <point x="333.0" y="0.0" type="line"/>
      <point x="333.0" y="1023.0" type="line"/>
    </contour>
    <contour>
      <point x="228.0" y="195.0" type="line"/>
      <point x="228.0" y="0.0" type="line"/>
      <point x="1869.0" y="0.0" type="line"/>
      <point x="1869.0" y="195.0" type="line"/>
    </contour>
    <contour>
      <point x="1579.0" y="1403.0" type="line"/>
      <point x="1579.0" y="1202.0" type="line"/>
      <point x="2023.0" y="1202.0" type="line"/>
      <point x="2023.0" y="1403.0" type="line"/>
    </contour>
  </outline>
</glyph>
<glyph name="uni0123" format="2">
  <advance width="2048"/>
  <unicode hex="0123"/>
  <outline>
    <contour>
      <point x="297.0" y="1023.0" type="line"/>
      <point x="297.0" y="0.0" type="line"/>
      <point x="489.0" y="0.0" type="line"/>
      <point x="489.0" y="1023.0" type="line"/>
    </contour>
    <contour>
      <point x="337.0" y="1023.0" type="line"/>
      <point x="337.0" y="823.0" type="line"/>
      <point x="1877.0" y="823.0" type="line"/>
      <point x="1877.0" y="1023.0" type="line"/>
    </contour>
    <contour>
      <point x="1705.0" y="1023.0" type="line"/>
      <point x="1705.0" y="-411.0" type="line"/>
      <point x="1899.0" y="-411.0" type="line"/>
      <point x="1899.0" y="1023.0" type="line"/>
    </contour>
    <contour>
      <point x="360.0" y="198.0" type="line"/>
      <point x="360.0" y="0.0" type="line"/>
      <point x="1841.0" y="0.0" type="line"/>
      <point x="1841.0" y="198.0" type="line"/>
    </contour>
    <contour>
      <point x="291.0" y="-214.0" type="line"/>
      <point x="291.0" y="-413.0" type="line"/>
      <point x="1850.0" y="-413.0" type="line"/>
      <point x="1850.0" y="-214.0" type="line"/>
    </contour>
    <contour>
      <point x="959.0" y="1496.0" type="line"/>
      <point x="959.0" y="1198.0" type="line"/>
      <point x="1089.0" y="1198.0" type="line"/>
      <point x="1089.0" y="1496.0" type="line"/>
    </contour>
  </outline>
</glyph>
<glyph name="Hbar" format="2">
  <advance width="2048"/>
  <unicode hex="0126"/>
  <outline>
    <contour>
      <point x="89" y="1537" type="line"/>
      <point x="89" y="0" type="line"/>
      <point x="289" y="0" type="line"/>
      <point x="289" y="1537" type="line"/>
    </contour>
    <contour>
      <point x="1699" y="1537" type="line"/>
      <point x="1699" y="0" type="line"/>
      <point x="1909" y="0" type="line"/>
      <point x="1909" y="1537" type="line"/>
    </contour>
    <contour>
      <point x="209" y="1023" type="line"/>
      <point x="209" y="818" type="line"/>
      <point x="1779" y="818" type="line"/>
      <point x="1779" y="1023" type="line"/>
    </contour>
    <contour>
      <point x="28" y="1434" type="line"/>
      <point x="28" y="1226" type="line"/>
      <point x="1977" y="1226" type="line"/>
      <point x="1977" y="1434" type="line"/>
    </contour>
  </outline>
</glyph>
<glyph name="hbar" format="2">
  <advance width="2048"/>
  <unicode hex="0127"/>
  <outline>
    <contour>
      <point x="174" y="1541" type="line"/>
      <point x="174" y="6" type="line"/>
      <point x="374" y="6" type="line"/>
      <point x="374" y="1541" type="line"/>
    </contour>
    <contour>
      <point x="311" y="1025" type="line"/>
      <point x="311" y="826" type="line"/>
      <point x="1866" y="826" type="line"/>
      <point x="1866" y="1025" type="line"/>
    </contour>
    <contour>
      <point x="1675" y="1024" type="line"/>
      <point x="1675" y="1" type="line"/>
      <point x="1874" y="1" type="line"/>
      <point x="1874" y="1024" type="line"/>
    </contour>
    <contour>
      <point x="38" y="1429" type="line"/>
      <point x="38" y="1221" type="line"/>
      <point x="494" y="1221" type="line"/>
      <point x="494" y="1429" type="line"/>
    </contour>
  </outline>
</glyph>
<glyph name="dotlessi" format="2">
	<unicode hex="0131"/>
	<advance width="2048"/>
	<outline>
		<contour>
			<point x="923" y="1018" type="line"/>
			<point x="923" y="139" type="line"/>
			<point x="1125" y="139" type="line"/>
			<point x="1125" y="1018" type="line"/>
		</contour>
		<contour>
			<point x="153" y="204" type="line"/>
			<point x="153" y="6" type="line"/>
			<point x="1895" y="6" type="line"/>
			<point x="1895" y="204" type="line"/>
		</contour>
		<contour>
			<point x="203" y="1018" type="line"/>
			<point x="203" y="818" type="line"/>
			<point x="1079" y="818" type="line"/>
			<point x="1079" y="1018" type="line"/>
		</contour>
	</outline>
</glyph>
<glyph name="kgreenlandic" format="2">
  <advance width="2048"/>
  <unicode hex="0138"/>
  <outline>
    <contour>
      <point x="42.0" y="1022.0" type="line"/>
      <point x="42.0" y="5.0" type="line"/>
      <point x="242.0" y="5.0" type="line"/>
      <point x="242.0" y="1022.0" type="line"/>
    </contour>
    <contour>
      <point x="91.0" y="516.0" type="line"/>
      <point x="140.0" y="298.0" type="line"/>
      <point x="2036.0" y="1023.0" type="line"/>
      <point x="1819.0" y="1023.0" type="line"/>
    </contour>
    <contour>
      <point x="424.0" y="631.0" type="line"/>
      <point x="196.0" y="483.0" type="line"/>
      <point x="1789.0" y="0.0" type="line"/>
      <point x="2027.0" y="0.0" type="line"/>
    </contour>
  </outline>
</glyph>
<glyph name="Lcaron" format="2">
	<unicode hex="013D"/>
	<advance width="2048"/>
	<outline>
		<contour>
			<point x="53" y="1542" type="line"/>
			<point x="53" y="0" type="line"/>
			<point x="251" y="0" type="line"/>
			<point x="251" y="1542" type="line"/>
		</contour>
		<contour>
			<point x="162" y="202" type="line"/>
			<point x="162" y="0" type="line"/>
			<point x="1912" y="0" type="line"/>
			<point x="1912" y="202" type="line"/>
		</contour>
		<contour>
			<point x="447" y="1496" type="line"/>
			<point x="447" y="1264" type="line"/>
			<point x="577" y="1264" type="line"/>
			<point x="577" y="1496" type="line"/>
		</contour>
	</outline>
</glyph>
<glyph name="lcaron" format="2">
  <advance width="2048"/>
  <unicode hex="013E"/>
  <outline>
    <contour>
      <point x="133.0" y="209.0" type="line"/>
      <point x="133.0" y="9.0" type="line"/>
      <point x="1791.0" y="9.0" type="line"/>
      <point x="1791.0" y="209.0" type="line"/>
    </contour>
    <contour>
      <point x="862.0" y="1548.0" type="line"/>
      <point x="862.0" y="86.0" type="line"/>
      <point x="1062.0" y="86.0" type="line"/>
      <point x="1062.0" y="1548.0" type="line"/>
    </contour>
    <contour>
      <point x="194.0" y="1548.0" type="line"/>
      <point x="194.0" y="1349.0" type="line"/>
      <point x="941.0" y="1349.0" type="line"/>
      <point x="941.0" y="1548.0" type="line"/>
    </contour>
    <contour>
      <point x="1309.0" y="1496.0" type="line"/>
      <point x="1309.0" y="1264.0" type="line"/>
      <point x="1439.0" y="1264.0" type="line"/>
      <point x="1439.0" y="1496.0" type="line"/>
    </contour>
  </outline>
</glyph>
<glyph name="Lslash" format="2">
	<unicode hex="0141"/>
	<advance width="2048"/>
	<outline>
		<contour>
			<point x="171" y="1542" type="line"/>
			<point x="171" y="0" type="line"/>
			<point x="369" y="0" type="line"/>
			<point x="369" y="1542" type="line"/>
		</contour>
		<contour>
			<point x="280" y="202" type="line"/>
			<point x="280" y="0" type="line"/>
			<point x="2030" y="0" type="line"/>
			<point x="2030" y="202" type="line"/>
		</contour>
		<contour>
			<point x="16" y="902" type="line"/>
			<point x="96" y="730" type="line"/>
			<point x="530" y="932" type="line"/>
			<point x="450" y="1104" type="line"/>
		</contour>
	</outline>
</glyph>
<glyph name="lslash" format="2">
  <advance width="2048"/>
  <unicode hex="0142"/>
  <outline>
    <contour>
      <point x="195.0" y="209.0" type="line"/>
      <point x="195.0" y="9.0" type="line"/>
      <point x="1853.0" y="9.0" type="line"/>
      <point x="1853.0" y="209.0" type="line"/>
    </contour>
    <contour>
      <point x="924.0" y="1548.0" type="line"/>
      <point x="924.0" y="86.0" type="line"/>
      <point x="1124.0" y="86.0" type="line"/>
      <point x="1124.0" y="1548.0" type="line"/>
    </contour>
    <contour>
      <point x="256.0" y="1548.0" type="line"/>
      <point x="256.0" y="1349.0" type="line"/>
      <point x="1003.0" y="1349.0" type="line"/>
      <point x="1003.0" y="1548.0" type="line"/>
    </contour>
    <contour>
      <point x="1839.0" y="1213.0" type="line"/>
      <point x="112.0" y="830.0" type="line"/>
      <point x="214.0" y="656.0" type="line"/>
      <point x="1941.0" y="1039.0" type="line"/>
    </contour>
  </outline>
</glyph>
<glyph name="Eng" format="2">
  <advance width="2048"/>
  <unicode hex="014A"/>
  <anchor x="1010" y="1623" name="top"/>
  <anchor x="884" y="-400" name="base"/>
  <outline>
    <contour>
      <point x="1548" y="-211" type="line"/>
      <point x="1548" y="-408" type="line"/>
      <point x="1935" y="-408" type="line"/>
      <point x="1935" y="-211" type="line"/>
    </contour>
    <contour>
      <point x="112" y="1547" type="line"/>
      <point x="112" y="0" type="line"/>
      <point x="313" y="0" type="line"/>
      <point x="313" y="1547" type="line"/>
    </contour>
    <contour>
      <point x="1735" y="1476" type="line"/>
      <point x="1735" y="-408" type="line"/>
      <point x="1936" y="-408" type="line"/>
      <point x="1936" y="1476" type="line"/>
    </contour>
    <contour>
      <point x="112" y="1477" type="line"/>
      <point x="112" y="1280" type="line"/>
      <point x="1935" y="1280" type="line"/>
      <point x="1935" y="1477" type="line"/>
    </contour>
  </outline>
</glyph>
<glyph name="eng" format="2">
  <advance width="2048"/>
  <unicode hex="014B"/>
  <anchor x="1035" y="1181" name="top"/>
  <anchor x="1077" y="-469" name="base"/>
  <outline>
    <contour>
      <point x="1480" y="-211" type="line"/>
      <point x="1480" y="-408" type="line"/>
      <point x="1867" y="-408" type="line"/>
      <point x="1867" y="-211" type="line"/>
    </contour>
    <contour>
      <point x="244" y="990" type="line"/>
      <point x="244" y="0" type="line"/>
      <point x="445" y="0" type="line"/>
      <point x="445" y="990" type="line"/>
    </contour>
    <contour>
      <point x="1667" y="976" type="line"/>
      <point x="1667" y="-408" type="line"/>
      <point x="1868" y="-408" type="line"/>
      <point x="1868" y="976" type="line"/>
    </contour>
    <contour>
      <point x="65" y="1023" type="line"/>
      <point x="65" y="826" type="line"/>
      <point x="1867" y="826" type="line"/>
      <point x="1867" y="1023" type="line"/>
    </contour>
  </outline>
</glyph>
<glyph name="OE" format="2">
  <advance width="2048"/>
  <unicode hex="0152"/>
  <outline>
    <contour>
      <point x="111.0" y="1548.0" type="line"/>
      <point x="111.0" y="0.0" type="line"/>
      <point x="312.0" y="0.0" type="line"/>
      <point x="312.0" y="1548.0" type="line"/>
    </contour>
    <contour>
      <point x="1015.0" y="1548.0" type="line"/>
      <point x="1015.0" y="0.0" type="line"/>
      <point x="1216.0" y="0.0" type="line"/>
      <point x="1216.0" y="1548.0" type="line"/>
    </contour>
    <contour>
      <point x="148.0" y="1548.0" type="line"/>
      <point x="148.0" y="1349.0" type="line"/>
      <point x="1904.0" y="1349.0" type="line"/>
      <point x="1904.0" y="1548.0" type="line"/>
    </contour>
    <contour>
      <point x="150.0" y="200.0" type="line"/>
      <point x="150.0" y="0.0" type="line"/>
      <point x="1912.0" y="0.0" type="line"/>
      <point x="1912.0" y="200.0" type="line"/>
    </contour>
    <contour>
      <point x="1118.0" y="859.0" type="line"/>
      <point x="1118.0" y="659.0" type="line"/>
      <point x="1874.0" y="659.0" type="line"/>
      <point x="1874.0" y="859.0" type="line"/>
    </contour>
  </outline>
</glyph>
<glyph name="oe" format="2">
	<unicode hex="0153"/>
	<advance width="2048"/>
	<outline>
		<contour>
			<point x="1109" y="645" type="line"/>
			<point x="1109" y="446" type="line"/>
			<point x="1848" y="446" type="line"/>
			<point x="1848" y="645" type="line"/>
		</contour>
		<contour>
			<point x="1823" y="1023" type="line"/>
			<point x="1823" y="445" type="line"/>
			<point x="2023" y="445" type="line"/>
			<point x="2023" y="1023" type="line"/>
		</contour>
		<contour>
			<point x="103" y="1023" type="line"/>
			<point x="103" y="0" type="line"/>
			<point x="303" y="0" type="line"/>
			<point x="303" y="1023" type="line"/>
		</contour>
		<contour>
			<point x="963" y="1023" type="line"/>
			<point x="963" y="0" type="line"/>
			<point x="1163" y="0" type="line"/>
			<point x="1163" y="1023" type="line"/>
		</contour>
		<contour>
			<point x="158" y="1023" type="line"/>
			<point x="158" y="823" type="line"/>
			<point x="1883" y="823" type="line"/>
			<point x="1883" y="1023" type="line"/>
		</contour>
		<contour>
			<point x="149" y="200" type="line"/>
			<point x="149" y="0" type="line"/>
			<point x="2023" y="0" type="line"/>
			<point x="2023" y="200" type="line"/>
		</contour>
	</outline>
</glyph>
<glyph name="tcaron" format="2">
  <advance width="2048"/>
  <unicode hex="0165"/>
  <outline>
    <contour>
      <point x="342" y="1529" type="line"/>
      <point x="342" y="0" type="line"/>
      <point x="543" y="0" type="line"/>
      <point x="543" y="1529" type="line"/>
    </contour>
    <contour>
      <point x="495" y="199" type="line"/>
      <point x="495" y="0" type="line"/>
      <point x="886" y="0" type="line"/>
      <point x="886" y="199" type="line"/>
    </contour>
    <contour>
      <point x="70" y="1025" type="line"/>
      <point x="70" y="824" type="line"/>
      <point x="849" y="824" type="line"/>
      <point x="849" y="1025" type="line"/>
    </contour>
    <contour>
      <point x="672" y="1496" type="line"/>
      <point x="672" y="1291" type="line"/>
      <point x="802" y="1291" type="line"/>
      <point x="802" y="1496" type="line"/>
    </contour>
  </outline>
</glyph>
<glyph name="longs" format="2">
  <advance width="2048"/>
  <unicode hex="017F"/>
  <outline>
    <contour>
      <point x="18" y="1221" type="line"/>
      <point x="18" y="1023" type="line"/>
      <point x="525" y="1023" type="line"/>
      <point x="525" y="1221" type="line"/>
    </contour>
    <contour>
      <point x="460" y="1548" type="line"/>
      <point x="460" y="0" type="line"/>
      <point x="666" y="0" type="line"/>
      <point x="666" y="1548" type="line"/>
    </contour>
    <contour>
      <point x="666" y="1548" type="line"/>
      <point x="666" y="1328" type="line"/>
      <point x="1829" y="1328" type="line"/>
      <point x="1829" y="1548" type="line"/>
    </contour>
  </outline>
</glyph>
<glyph name="uni0182" format="2">
  <advance width="2048"/>
  <unicode hex="0182"/>
  <anchor x="1037" y="1623" name="top"/>
  <anchor x="1021" y="-59" name="base"/>
  <outline>
    <contour>
      <point x="90" y="0" type="line"/>
      <point x="298" y="0" type="line"/>
      <point x="298" y="1537" type="line"/>
      <point x="90" y="1537" type="line"/>
    </contour>
    <contour>
      <point x="1380" y="201" type="line"/>
      <point x="1380" y="0" type="line"/>
      <point x="1934" y="364" type="line"/>
      <point x="1934" y="588" type="line"/>
    </contour>
    <contour>
      <point x="1446" y="567" type="line"/>
      <point x="1934" y="364" type="line"/>
      <point x="1934" y="586" type="line"/>
      <point x="1446" y="766" type="line"/>
    </contour>
    <contour>
      <point x="250" y="766" type="line"/>
      <point x="250" y="567" type="line"/>
      <point x="1446" y="567" type="line"/>
      <point x="1446" y="766" type="line"/>
    </contour>
    <contour>
      <point x="188" y="200" type="line"/>
      <point x="188" y="0" type="line"/>
      <point x="1380" y="0" type="line"/>
      <point x="1380" y="200" type="line"/>
    </contour>
    <contour>
      <point x="250" y="1537" type="line"/>
      <point x="250" y="1331" type="line"/>
      <point x="1916" y="1331" type="line"/>
      <point x="1916" y="1537" type="line"/>
    </contour>
  </outline>
</glyph>
<glyph name="uni018F" format="2">
  <advance width="2048"/>
  <unicode hex="018F"/>
  <outline>
    <contour>
      <point x="1828.0" y="0.0" type="line"/>
      <point x="1828.0" y="211.0" type="line"/>
      <point x="265.0" y="211.0" type="line"/>
      <point x="265.0" y="0.0" type="line"/>
    </contour>
    <contour>
      <point x="1878.0" y="0.0" type="line"/>
      <point x="1878.0" y="1543.0" type="line"/>
      <point x="1676.0" y="1543.0" type="line"/>
      <point x="1676.0" y="0.0" type="line"/>
    </contour>
    <contour>
      <point x="1776.0" y="1342.0" type="line"/>
      <point x="1776.0" y="1543.0" type="line"/>
      <point x="170.0" y="1543.0" type="line"/>
      <point x="170.0" y="1342.0" type="line"/>
    </contour>
    <contour>
      <point x="1808.0" y="689.0" type="line"/>
      <point x="1808.0" y="868.0" type="line"/>
      <point x="130.0" y="868.0" type="line"/>
      <point x="130.0" y="689.0" type="line"/>
    </contour>
    <contour>
      <point x="462.0" y="30.0" type="line"/>
      <point x="302.0" y="869.0" type="line"/>
      <point x="107.0" y="869.0" type="line"/>
      <point x="267.0" y="30.0" type="line"/>
    </contour>
  </outline>
</glyph>
<glyph name="Eopen" format="2">
  <advance width="2048"/>
  <unicode hex="0190"/>
  <outline>
    <contour>
      <point x="103" y="1542" type="line"/>
      <point x="197" y="930" type="line"/>
      <point x="397" y="929" type="line"/>
      <point x="303" y="1541" type="line"/>
    </contour>
    <contour>
      <point x="181" y="1541" type="line"/>
      <point x="181" y="1337" type="line"/>
      <point x="1924" y="1337" type="line"/>
      <point x="1924" y="1541" type="line"/>
    </contour>
    <contour>
      <point x="170" y="203" type="line"/>
      <point x="170" y="0" type="line"/>
      <point x="1940" y="0" type="line"/>
      <point x="1940" y="203" type="line"/>
    </contour>
    <contour>
      <point x="343" y="931" type="line"/>
      <point x="343" y="731" type="line"/>
      <point x="1181" y="731" type="line"/>
      <point x="1181" y="931" type="line"/>
    </contour>
    <contour>
      <point x="204" y="734" type="line"/>
      <point x="96" y="2" type="line"/>
      <point x="296" y="1" type="line"/>
      <point x="404" y="733" type="line"/>
    </contour>
  </outline>
</glyph>
<glyph name="uni0192" format="2">
	<unicode hex="0192"/>
	<advance width="2048"/>
	<outline>
		<contour>
			<point x="763" y="1023" type="line"/>
			<point x="763" y="-406" type="line"/>
			<point x="963" y="-406" type="line"/>
			<point x="963" y="1023" type="line"/>
		</contour>
		<contour>
			<point x="825" y="1023" type="line"/>
			<point x="825" y="831" type="line"/>
			<point x="1603" y="831" type="line"/>
			<point x="1603" y="1023" type="line"/>
		</contour>
		<contour>
			<point x="229" y="559" type="line"/>
			<point x="229" y="356" type="line"/>
			<point x="1506" y="356" type="line"/>
			<point x="1506" y="559" type="line"/>
		</contour>
		<contour>
			<point x="167" y="-201" type="line"/>
			<point x="167" y="-406" type="line"/>
			<point x="965" y="-406" type="line"/>
			<point x="965" y="-201" type="line"/>
		</contour>
	</outline>
</glyph>
<glyph name="Khook" format="2">
  <advance width="2048"/>
  <unicode hex="0198"/>
  <outline>
    <contour>
      <point x="112" y="1537" type="line"/>
      <point x="112" y="5" type="line"/>
      <point x="313" y="5" type="line"/>
      <point x="313" y="1537" type="line"/>
    </contour>
    <contour>
      <point x="157" y="999" type="line"/>
      <point x="276" y="835" type="line"/>
      <point x="1883" y="1529" type="line"/>
      <point x="1616" y="1529" type="line"/>
    </contour>
    <contour>
      <point x="287" y="798" type="line"/>
      <point x="150" y="643" type="line"/>
      <point x="1655" y="0" type="line"/>
      <point x="1936" y="0" type="line"/>
    </contour>
    <contour>
      <point x="2205" y="1741" type="line"/>
      <point x="2080" y="1956" type="line"/>
      <point x="1882" y="1842" type="line"/>
      <point x="2006" y="1627" type="line"/>
    </contour>
    <contour>
      <point x="2068" y="1775" type="line"/>
      <point x="1882" y="1841" type="line"/>
      <point x="1616" y="1528" type="line"/>
      <point x="1883" y="1529" type="line"/>
    </contour>
  </outline>
</glyph>
<glyph name="Mturned" format="2">
  <advance width="2048"/>
  <unicode hex="019C"/>
  <anchor x="1021" y="-112" name="base"/>
  <anchor x="1031" y="1110" name="top"/>
  <outline>
    <contour>
      <point x="1900" y="30" type="line"/>
      <point x="1900" y="1546" type="line"/>
      <point x="1700" y="1546" type="line"/>
      <point x="1700" y="30" type="line"/>
    </contour>
    <contour>
      <point x="1086" y="51" type="line"/>
      <point x="1086" y="1546" type="line"/>
      <point x="886" y="1546" type="line"/>
      <point x="886" y="51" type="line"/>
    </contour>
    <contour>
      <point x="270" y="47" type="line"/>
      <point x="270" y="1546" type="line"/>
      <point x="70" y="1546" type="line"/>
      <point x="70" y="47" type="line"/>
    </contour>
    <contour>
      <point x="1978" y="0" type="line"/>
      <point x="1978" y="197" type="line"/>
      <point x="72" y="197" type="line"/>
      <point x="72" y="0" type="line"/>
    </contour>
  </outline>
</glyph>
<glyph name="uni019F" format="2">
  <advance width="2048"/>
  <unicode hex="019F"/>
  <anchor x="1112" y="1713" name="top"/>
  <anchor x="1029" y="-88" name="base"/>
  <outline>
    <contour>
      <point x="149" y="1537" type="line"/>
      <point x="149" y="0" type="line"/>
      <point x="350" y="0" type="line"/>
      <point x="350" y="1537" type="line"/>
    </contour>
    <contour>
      <point x="1696" y="1537" type="line"/>
      <point x="1696" y="0" type="line"/>
      <point x="1899" y="0" type="line"/>
      <point x="1899" y="1537" type="line"/>
    </contour>
    <contour>
      <point x="213" y="1537" type="line"/>
      <point x="213" y="1337" type="line"/>
      <point x="1806" y="1337" type="line"/>
      <point x="1806" y="1537" type="line"/>
    </contour>
    <contour>
      <point x="189" y="204" type="line"/>
      <point x="189" y="0" type="line"/>
      <point x="1812" y="0" type="line"/>
      <point x="1812" y="204" type="line"/>
    </contour>
    <contour>
      <point x="326.6" y="808" type="line"/>
      <point x="326.6" y="600" type="line"/>
      <point x="1777.56" y="600" type="line"/>
      <point x="1777.56" y="808" type="line"/>
    </contour>
  </outline>
</glyph>
<glyph name="Phook" format="2">
  <advance width="2048"/>
  <unicode hex="01A4"/>
  <anchor x="1166" y="-82" name="base"/>
  <anchor x="1162" y="1648" name="top"/>
  <anchor x="331.60603036219277" y="1134.7718739270397" name="_top"/>
  <outline>
    <contour>
      <point x="313" y="1548" type="line"/>
      <point x="313" y="9" type="line"/>
      <point x="503" y="9" type="line"/>
      <point x="503" y="1548" type="line"/>
    </contour>
    <contour>
      <point x="391" y="1548" type="line"/>
      <point x="391" y="1346" type="line"/>
      <point x="1997" y="1346" type="line"/>
      <point x="1997" y="1548" type="line"/>
    </contour>
    <contour>
      <point x="1817" y="1548" type="line"/>
      <point x="1817" y="881" type="line"/>
      <point x="2017" y="881" type="line"/>
      <point x="2017" y="1548" type="line"/>
    </contour>
    <contour>
      <point x="375" y="1068" type="line"/>
      <point x="375" y="868" type="line"/>
      <point x="2013" y="868" type="line"/>
      <point x="2013" y="1068" type="line"/>
    </contour>
    <contour>
      <point x="59.43842117101735" y="1231.7192437065219" type="line"/>
      <point x="271.30026007500317" y="1318.6419750040463" type="line"/>
      <point x="177.16559910650494" y="1548.0818704109827" type="line"/>
      <point x="-34.69623979748076" y="1461.1591391134582" type="line"/>
    </contour>
    <contour>
      <point x="163.55274820112163" y="1365.2303178055215" type="line"/>
      <point x="421.3665387525763" y="1358.59334549199" type="line"/>
      <point x="431.39720206849836" y="1547.5414489316452" type="line"/>
      <point x="177.16559910650494" y="1548.0818704109827" type="line"/>
    </contour>
  </outline>
</glyph>
<glyph name="uni01A9" format="2">
  <advance width="2048"/>
  <unicode hex="01A9"/>
  <outline>
    <contour>
      <point x="1216" y="928" type="line"/>
      <point x="110" y="210" type="line"/>
      <point x="110" y="-14" type="line"/>
      <point x="1216" y="725" type="line"/>
    </contour>
    <contour>
      <point x="1218" y="921" type="line"/>
      <point x="128" y="1539" type="line"/>
      <point x="129" y="1338" type="line"/>
      <point x="1218" y="722" type="line"/>
    </contour>
    <contour>
      <point x="1874" y="1337" type="line"/>
      <point x="1874" y="1537" type="line"/>
      <point x="128" y="1537" type="line"/>
      <point x="128" y="1337" type="line"/>
    </contour>
    <contour>
      <point x="1812" y="0" type="line"/>
      <point x="1812" y="206" type="line"/>
      <point x="125" y="206" type="line"/>
      <point x="125" y="0" type="line"/>
    </contour>
  </outline>
</glyph>
<glyph name="Thook" format="2">
  <advance width="2048"/>
  <unicode hex="01AC"/>
  <anchor x="1135" y="1613" name="top"/>
  <anchor x="1124" y="-92" name="base"/>
  <outline>
    <contour>
      <point x="233" y="1548" type="line"/>
      <point x="233" y="1348" type="line"/>
      <point x="2031" y="1348" type="line"/>
      <point x="2031" y="1548" type="line"/>
    </contour>
    <contour>
      <point x="1032" y="1436" type="line"/>
      <point x="1032" y="6" type="line"/>
      <point x="1232" y="6" type="line"/>
      <point x="1232" y="1436" type="line"/>
    </contour>
    <contour>
      <point x="555.2770780000001" y="1550.55351976" type="line"/>
      <point x="-3.7089470000000233" y="1546.56241628" type="line"/>
      <point x="-2.2810029999999983" y="1346.56741628" type="line"/>
      <point x="554.705072" y="1350.54424032" type="line"/>
    </contour>
    <contour>
      <point x="-3.7089470000000233" y="1546.56241628" type="line"/>
      <point x="-1.0958094799999856" y="1180.5715662799998" type="line"/>
      <point x="198.89919052000002" y="1181.9995102799999" type="line"/>
      <point x="196.28605299999998" y="1547.99036028" type="line"/>
    </contour>
  </outline>
</glyph>
<glyph name="thook" format="2">
  <advance width="2048"/>
  <unicode hex="01AD"/>
  <anchor x="1009" y="1652" name="top"/>
  <anchor x="1020" y="-92" name="base"/>
  <outline>
    <contour>
      <point x="922" y="1548" type="line"/>
      <point x="922" y="0" type="line"/>
      <point x="1122" y="0" type="line"/>
      <point x="1122" y="1548" type="line"/>
    </contour>
    <contour>
      <point x="930" y="199" type="line"/>
      <point x="930" y="0" type="line"/>
      <point x="1822" y="0" type="line"/>
      <point x="1822" y="199" type="line"/>
    </contour>
    <contour>
      <point x="186" y="1023" type="line"/>
      <point x="186" y="824" type="line"/>
      <point x="1860" y="824" type="line"/>
      <point x="1860" y="1023" type="line"/>
    </contour>
    <contour>
      <point x="1475.74" y="1591.41" type="line"/>
      <point x="916.781" y="1584.51" type="line"/>
      <point x="919.25" y="1384.53" type="line"/>
      <point x="1476.21" y="1391.4" type="line"/>
    </contour>
    <contour>
      <point x="916.781" y="1584.51" type="line"/>
      <point x="921.298" y="1218.54" type="line"/>
      <point x="1121.28" y="1221.01" type="line"/>
      <point x="1116.77" y="1586.98" type="line"/>
    </contour>
  </outline>
</glyph>
<glyph name="Tretroflexhook" format="2">
  <advance width="2048"/>
  <unicode hex="01AE"/>
  <anchor x="1027" y="1613" name="top"/>
  <anchor x="1016" y="-92" name="base"/>
  <outline>
    <contour>
      <point x="125" y="1548" type="line"/>
      <point x="125" y="1348" type="line"/>
      <point x="1923" y="1348" type="line"/>
      <point x="1923" y="1548" type="line"/>
    </contour>
    <contour>
      <point x="924" y="1436" type="line"/>
      <point x="924" y="6" type="line"/>
      <point x="1124" y="6" type="line"/>
      <point x="1124" y="1436" type="line"/>
    </contour>
    <contour>
      <point x="928" y="227" type="line"/>
      <point x="928" y="-332" type="line"/>
      <point x="1128" y="-332" type="line"/>
      <point x="1128" y="225" type="line"/>
    </contour>
    <contour>
      <point x="928" y="-332" type="line"/>
      <point x="1294" y="-332" type="line"/>
      <point x="1294" y="-132" type="line"/>
      <point x="928" y="-132" type="line"/>
    </contour>
  </outline>
</glyph>
<glyph name="Upsilon_latin" format="2">
  <advance width="2048"/>
  <unicode hex="01B1"/>
  <anchor x="1085" y="1626" name="top"/>
  <outline>
    <contour>
      <point x="812" y="1455" type="line"/>
      <point x="255" y="0" type="line"/>
      <point x="456" y="0" type="line"/>
      <point x="1013" y="1455" type="line"/>
    </contour>
    <contour>
      <point x="1111" y="1455" type="line"/>
      <point x="1601" y="0" type="line"/>
      <point x="1801" y="0" type="line"/>
      <point x="1311" y="1455" type="line"/>
    </contour>
    <contour>
      <point x="447" y="196" type="line"/>
      <point x="447" y="0" type="line"/>
      <point x="1599" y="0" type="line"/>
      <point x="1599" y="203" type="line"/>
    </contour>
    <contour>
      <point x="1220" y="1455" type="line"/>
      <point x="1224" y="1255" type="line"/>
      <point x="2034" y="1255" type="line"/>
      <point x="2030" y="1455" type="line"/>
    </contour>
    <contour>
      <point x="89" y="1455" type="line"/>
      <point x="88" y="1255" type="line"/>
      <point x="845" y="1255" type="line"/>
      <point x="846" y="1455" type="line"/>
    </contour>
  </outline>
</glyph>
<glyph name="Vhook" format="2">
  <advance width="2048"/>
  <unicode hex="01B2"/>
  <anchor x="1013" y="1137" name="top"/>
  <anchor x="1025" y="-90" name="base"/>
  <outline>
    <contour>
      <point x="116" y="1623" type="line"/>
      <point x="116" y="0" type="line"/>
      <point x="316" y="0" type="line"/>
      <point x="316" y="1623" type="line"/>
    </contour>
    <contour>
      <point x="1732" y="1623" type="line"/>
      <point x="1732" y="0" type="line"/>
      <point x="1934" y="0" type="line"/>
      <point x="1934" y="1623" type="line"/>
    </contour>
    <contour>
      <point x="1499" y="1623" type="line"/>
      <point x="1499" y="1422" type="line"/>
      <point x="1826" y="1422" type="line"/>
      <point x="1826" y="1623" type="line"/>
    </contour>
    <contour>
      <point x="244" y="200" type="line"/>
      <point x="244" y="0" type="line"/>
      <point x="1816" y="0" type="line"/>
      <point x="1816" y="200" type="line"/>
    </contour>
  </outline>
</glyph>
<glyph name="Ezh" format="2">
  <advance width="2048"/>
  <unicode hex="01B7"/>
  <outline>
    <contour>
      <point x="1884" y="0" type="line"/>
      <point x="1884" y="197" type="line"/>
      <point x="164" y="197" type="line"/>
      <point x="164" y="0" type="line"/>
    </contour>
    <contour>
      <point x="1882" y="39" type="line"/>
      <point x="1886" y="889" type="line"/>
      <point x="1684" y="889" type="line"/>
      <point x="1680" y="39" type="line"/>
    </contour>
    <contour>
      <point x="1780" y="688" type="line"/>
      <point x="1780" y="889" type="line"/>
      <point x="174" y="889" type="line"/>
      <point x="174" y="688" type="line"/>
    </contour>
    <contour>
      <point x="121" y="1544" type="line"/>
      <point x="121" y="1347" type="line"/>
      <point x="1973" y="1347" type="line"/>
      <point x="1973" y="1544" type="line"/>
    </contour>
    <contour>
      <point x="1590" y="1347" type="line"/>
      <point x="169" y="889" type="line"/>
      <point x="590" y="889" type="line"/>
      <point x="1973" y="1347" type="line"/>
    </contour>
  </outline>
</glyph>
<glyph name="Ezhreversed" format="2">
  <advance width="2048"/>
  <unicode hex="01B8"/>
  <outline>
    <contour>
      <point x="210" y="0" type="line"/>
      <point x="1930" y="0" type="line"/>
      <point x="1930" y="197" type="line"/>
      <point x="210" y="197" type="line"/>
    </contour>
    <contour>
      <point x="212" y="39" type="line"/>
      <point x="414" y="39" type="line"/>
      <point x="410" y="889" type="line"/>
      <point x="208" y="889" type="line"/>
    </contour>
    <contour>
      <point x="314" y="688" type="line"/>
      <point x="1920" y="688" type="line"/>
      <point x="1920" y="889" type="line"/>
      <point x="314" y="889" type="line"/>
    </contour>
    <contour>
      <point x="1973" y="1544" type="line"/>
      <point x="121" y="1544" type="line"/>
      <point x="121" y="1347" type="line"/>
      <point x="1973" y="1347" type="line"/>
    </contour>
    <contour>
      <point x="504" y="1347" type="line"/>
      <point x="121" y="1347" type="line"/>
      <point x="1504" y="889" type="line"/>
      <point x="1925" y="889" type="line"/>
    </contour>
  </outline>
</glyph>
<glyph name="uni021C" format="2">
  <advance width="2048"/>
  <unicode hex="021C"/>
  <outline>
    <contour>
      <point x="101" y="502" type="line"/>
      <point x="1783" y="736" type="line"/>
      <point x="1783" y="192" type="line"/>
      <point x="59" y="-42" type="line"/>
      <point x="59" y="-242" type="line"/>
      <point x="1987" y="-8" type="line"/>
      <point x="1987" y="1553" type="line"/>
      <point x="89" y="1368" type="line"/>
      <point x="89" y="1168" type="line"/>
      <point x="1781" y="1353" type="line"/>
      <point x="1781" y="936" type="line"/>
      <point x="101" y="702" type="line"/>
    </contour>
  </outline>
</glyph>
<glyph name="uni021D" format="2">
  <advance width="2048"/>
  <unicode hex="021D"/>
  <outline>
    <contour>
      <point x="101" y="93" type="line"/>
      <point x="1783" y="327" type="line"/>
      <point x="1783" y="-137" type="line"/>
      <point x="59" y="-371" type="line"/>
      <point x="59" y="-571" type="line"/>
      <point x="1987" y="-337" type="line"/>
      <point x="1987" y="1100" type="line"/>
      <point x="89" y="915" type="line"/>
      <point x="89" y="715" type="line"/>
      <point x="1781" y="900" type="line"/>
      <point x="1781" y="527" type="line"/>
      <point x="101" y="293" type="line"/>
    </contour>
  </outline>
</glyph>
<glyph name="dcurl" format="2">
  <advance width="2048"/>
  <unicode hex="0221"/>
  <anchor x="1025" y="-70" name="base"/>
  <anchor x="1035" y="1597" name="top"/>
  <outline>
    <contour>
      <point x="938" y="1554" type="line"/>
      <point x="938" y="27" type="line"/>
      <point x="1138" y="27" type="line"/>
      <point x="1138" y="1554" type="line"/>
    </contour>
    <contour>
      <point x="114" y="1023" type="line"/>
      <point x="114" y="822" type="line"/>
      <point x="1136" y="822" type="line"/>
      <point x="1136" y="1023" type="line"/>
    </contour>
    <contour>
      <point x="18" y="1023" type="line"/>
      <point x="18" y="0" type="line"/>
      <point x="218" y="0" type="line"/>
      <point x="218" y="1023" type="line"/>
    </contour>
    <contour>
      <point x="114" y="195" type="line"/>
      <point x="114" y="0" type="line"/>
      <point x="1972" y="0" type="line"/>
      <point x="1972" y="195" type="line"/>
    </contour>
    <contour>
      <point x="1219" y="-146" type="line"/>
      <point x="1434" y="-135" type="line"/>
      <point x="1820" y="535" type="line"/>
      <point x="1817" y="843" type="line"/>
    </contour>
    <contour>
      <point x="1821" y="846" type="line"/>
      <point x="1821" y="20" type="line"/>
      <point x="2022" y="27" type="line"/>
      <point x="2022" y="853" type="line"/>
    </contour>
  </outline>
</glyph>
<glyph name="OU" format="2">
  <advance width="2048"/>
  <unicode hex="0222"/>
  <outline>
    <contour>
      <point x="115" y="1552" type="line"/>
      <point x="115" y="911" type="line"/>
      <point x="315" y="911" type="line"/>
      <point x="315" y="1552" type="line"/>
    </contour>
    <contour>
      <point x="1751" y="1552" type="line"/>
      <point x="1748" y="915" type="line"/>
      <point x="1948" y="915" type="line"/>
      <point x="1951" y="1552" type="line"/>
    </contour>
    <contour>
      <point x="102" y="779" type="line"/>
      <point x="100" y="581" type="line"/>
      <point x="1968" y="578" type="line"/>
      <point x="1966" y="783" type="line"/>
    </contour>
    <contour>
      <point x="102" y="779" type="line"/>
      <point x="95" y="24" type="line"/>
      <point x="299" y="24" type="line"/>
      <point x="299" y="779" type="line"/>
    </contour>
    <contour>
      <point x="1767" y="780" type="line"/>
      <point x="1773" y="0" type="line"/>
      <point x="1975" y="3" type="line"/>
      <point x="1966" y="783" type="line"/>
    </contour>
    <contour>
      <point x="94" y="200" type="line"/>
      <point x="92" y="0" type="line"/>
      <point x="1966" y="0" type="line"/>
      <point x="1966" y="200" type="line"/>
    </contour>
    <contour>
      <point x="1966" y="783" type="line"/>
      <point x="113" y="1143" type="line"/>
      <point x="117" y="910" type="line"/>
      <point x="1968" y="578" type="line"/>
    </contour>
    <contour>
      <point x="101" y="581" type="line"/>
      <point x="1948" y="915" type="line"/>
      <point x="1943" y="1139" type="line"/>
      <point x="102" y="780" type="line"/>
    </contour>
    <contour>
      <point x="767" y="1552" type="line"/>
      <point x="112" y="1550" type="line"/>
      <point x="110" y="1352" type="line"/>
      <point x="771" y="1351" type="line"/>
    </contour>
    <contour>
      <point x="1298" y="1351" type="line"/>
      <point x="1952" y="1349" type="line"/>
      <point x="1950" y="1554" type="line"/>
      <point x="1294" y="1552" type="line"/>
    </contour>
  </outline>
</glyph>
<glyph name="uni0222" format="2">
  <advance width="2048"/>
  <unicode hex="0222"/>
  <outline>
    <contour>
      <point x="105" y="1546" type="line"/>
      <point x="105" y="911" type="line"/>
      <point x="305" y="911" type="line"/>
      <point x="305" y="1546" type="line"/>
    </contour>
    <contour>
      <point x="1741" y="1533" type="line"/>
      <point x="1738" y="915" type="line"/>
      <point x="1938" y="915" type="line"/>
      <point x="1941" y="1533" type="line"/>
    </contour>
    <contour>
      <point x="92" y="779" type="line"/>
      <point x="90" y="581" type="line"/>
      <point x="1958" y="578" type="line"/>
      <point x="1956" y="783" type="line"/>
    </contour>
    <contour>
      <point x="92" y="779" type="line"/>
      <point x="85" y="24" type="line"/>
      <point x="289" y="24" type="line"/>
      <point x="289" y="779" type="line"/>
    </contour>
    <contour>
      <point x="1757" y="780" type="line"/>
      <point x="1763" y="0" type="line"/>
      <point x="1965" y="3" type="line"/>
      <point x="1956" y="783" type="line"/>
    </contour>
    <contour>
      <point x="84" y="200" type="line"/>
      <point x="82" y="0" type="line"/>
      <point x="1956" y="0" type="line"/>
      <point x="1956" y="200" type="line"/>
    </contour>
    <contour>
      <point x="1956" y="783" type="line"/>
      <point x="103" y="1143" type="line"/>
      <point x="107" y="910" type="line"/>
      <point x="1958" y="578" type="line"/>
    </contour>
    <contour>
      <point x="91" y="581" type="line"/>
      <point x="1938" y="915" type="line"/>
      <point x="1933" y="1139" type="line"/>
      <point x="92" y="780" type="line"/>
    </contour>
    <contour>
      <point x="685" y="1548" type="line"/>
      <point x="106" y="1546" type="line"/>
      <point x="105" y="1348" type="line"/>
      <point x="687" y="1347" type="line"/>
    </contour>
    <contour>
      <point x="1360" y="1348" type="line"/>
      <point x="1943" y="1346" type="line"/>
      <point x="1941" y="1550" type="line"/>
      <point x="1358" y="1548" type="line"/>
    </contour>
  </outline>
</glyph>
<glyph name="lcurl" format="2">
  <advance width="2048"/>
  <unicode hex="0234"/>
  <anchor x="1027" y="-85" name="base"/>
  <anchor x="1009" y="1637" name="top"/>
  <outline>
    <contour>
      <point x="1120" y="286" type="line"/>
      <point x="1120" y="86" type="line"/>
      <point x="1854" y="349" type="line"/>
      <point x="1854" y="549" type="line"/>
    </contour>
    <contour>
      <point x="924" y="1548" type="line"/>
      <point x="924" y="86" type="line"/>
      <point x="1121" y="86" type="line"/>
      <point x="1121" y="1548" type="line"/>
    </contour>
    <contour>
      <point x="268" y="1548" type="line"/>
      <point x="268" y="1349" type="line"/>
      <point x="1003" y="1349" type="line"/>
      <point x="1003" y="1548" type="line"/>
    </contour>
    <contour>
      <point x="189" y="499" type="line"/>
      <point x="189" y="299" type="line"/>
      <point x="1858" y="361" type="line"/>
      <point x="1858" y="561" type="line"/>
    </contour>
  </outline>
</glyph>
<glyph name="ncurl" format="2">
  <advance width="2048"/>
  <unicode hex="0235"/>
  <anchor x="1046" y="-74" name="base"/>
  <anchor x="1008" y="1148" name="top"/>
  <outline>
    <contour>
      <point x="173" y="990" type="line"/>
      <point x="173" y="0" type="line"/>
      <point x="373" y="0" type="line"/>
      <point x="373" y="990" type="line"/>
    </contour>
    <contour>
      <point x="1418" y="976" type="line"/>
      <point x="1418" y="0" type="line"/>
      <point x="1620" y="0" type="line"/>
      <point x="1620" y="976" type="line"/>
    </contour>
    <contour>
      <point x="-7" y="1023" type="line"/>
      <point x="-7" y="826" type="line"/>
      <point x="1618" y="826" type="line"/>
      <point x="1618" y="1023" type="line"/>
    </contour>
    <contour>
      <point x="1023" y="227" type="line"/>
      <point x="1023" y="30" type="line"/>
      <point x="1771" y="321" type="line"/>
      <point x="1771" y="518" type="line"/>
    </contour>
    <contour>
      <point x="1616" y="188" type="line"/>
      <point x="1616" y="0" type="line"/>
      <point x="1800" y="0" type="line"/>
      <point x="1800" y="188" type="line"/>
    </contour>
    <contour>
      <point x="1771" y="519" type="line"/>
      <point x="1771" y="0" type="line"/>
      <point x="1973" y="0" type="line"/>
      <point x="1973" y="519" type="line"/>
    </contour>
  </outline>
</glyph>
<glyph name="tcurl" format="2">
  <advance width="2048"/>
  <unicode hex="0236"/>
  <anchor x="1009" y="1652" name="top"/>
  <anchor x="1020" y="-92" name="base"/>
  <outline>
    <contour>
      <point x="922" y="1548" type="line"/>
      <point x="922" y="0" type="line"/>
      <point x="1122" y="0" type="line"/>
      <point x="1122" y="1548" type="line"/>
    </contour>
    <contour>
      <point x="930" y="199" type="line"/>
      <point x="930" y="0" type="line"/>
      <point x="1822" y="0" type="line"/>
      <point x="1822" y="199" type="line"/>
    </contour>
    <contour>
      <point x="186" y="1023" type="line"/>
      <point x="186" y="824" type="line"/>
      <point x="1860" y="824" type="line"/>
      <point x="1860" y="1023" type="line"/>
    </contour>
    <contour>
      <point x="603" y="214" type="line"/>
      <point x="603" y="15" type="line"/>
      <point x="1631" y="358" type="line"/>
      <point x="1631" y="557" type="line"/>
    </contour>
    <contour>
      <point x="1631" y="2" type="line"/>
      <point x="1827" y="1" type="line"/>
      <point x="1827" y="556" type="line"/>
      <point x="1631" y="557" type="line"/>
    </contour>
  </outline>
</glyph>
<glyph name="uni0237" format="2">
  <advance width="2048"/>
  <unicode hex="0237"/>
  <outline>
    <contour>
      <point x="1627" y="1024" type="line"/>
      <point x="1627" y="-411" type="line"/>
      <point x="1826" y="-411" type="line"/>
      <point x="1826" y="1024" type="line"/>
    </contour>
    <contour>
      <point x="197" y="-209" type="line"/>
      <point x="197" y="-409" type="line"/>
      <point x="1727" y="-409" type="line"/>
      <point x="1727" y="-209" type="line"/>
    </contour>
    <contour>
      <point x="198" y="-6" type="line"/>
      <point x="198" y="-351" type="line"/>
      <point x="398" y="-351" type="line"/>
      <point x="398" y="-6" type="line"/>
    </contour>
  </outline>
</glyph>
<glyph name="aturned" format="2">
  <advance width="2048"/>
  <unicode hex="0250"/>
  <anchor x="1041" y="-73" name="top"/>
  <anchor x="1042" y="1112" name="base"/>
  <outline>
    <contour>
      <point x="1891" y="7" type="line"/>
      <point x="1891" y="206" type="line"/>
      <point x="285" y="206" type="line"/>
      <point x="285" y="7" type="line"/>
    </contour>
    <contour>
      <point x="398" y="7" type="line"/>
      <point x="398" y="1123" type="line"/>
      <point x="204" y="1123" type="line"/>
      <point x="204" y="7" type="line"/>
    </contour>
    <contour>
      <point x="1887" y="431" type="line"/>
      <point x="1887" y="630" type="line"/>
      <point x="263" y="630" type="line"/>
      <point x="263" y="431" type="line"/>
    </contour>
    <contour>
      <point x="1887" y="455" type="line"/>
      <point x="1887" y="1030" type="line"/>
      <point x="1686" y="1030" type="line"/>
      <point x="1686" y="455" type="line"/>
    </contour>
    <contour>
      <point x="1889" y="829" type="line"/>
      <point x="1889" y="1030" type="line"/>
      <point x="216" y="1030" type="line"/>
      <point x="216" y="829" type="line"/>
    </contour>
  </outline>
</glyph>
<glyph name="oopen" format="2">
  <advance width="2048"/>
  <unicode hex="0254"/>
  <anchor x="1028" y="-71" name="base"/>
  <anchor x="1010" y="1123" name="top"/>
  <outline>
    <contour>
      <point x="1877" y="0" type="line"/>
      <point x="1877" y="197" type="line"/>
      <point x="171" y="197" type="line"/>
      <point x="171" y="0" type="line"/>
    </contour>
    <contour>
      <point x="1875" y="39" type="line"/>
      <point x="1875" y="1023" type="line"/>
      <point x="1673" y="1023" type="line"/>
      <point x="1673" y="39" type="line"/>
    </contour>
    <contour>
      <point x="1769" y="822" type="line"/>
      <point x="1769" y="1023" type="line"/>
      <point x="177" y="1023" type="line"/>
      <point x="177" y="822" type="line"/>
    </contour>
  </outline>
</glyph>
<glyph name="uni0259" format="2">
  <advance width="2048"/>
  <unicode hex="0259"/>
  <outline>
    <contour>
      <point x="1828.0" y="0.0" type="line"/>
      <point x="1828.0" y="211.0" type="line"/>
      <point x="240.0" y="278.0" type="line"/>
      <point x="240.0" y="67.0" type="line"/>
    </contour>
    <contour>
      <point x="1878.0" y="0.0" type="line"/>
      <point x="1878.0" y="1023.0" type="line"/>
      <point x="1676.0" y="1023.0" type="line"/>
      <point x="1676.0" y="0.0" type="line"/>
    </contour>
    <contour>
      <point x="1776.0" y="822.0" type="line"/>
      <point x="1776.0" y="1023.0" type="line"/>
      <point x="170.0" y="1023.0" type="line"/>
      <point x="170.0" y="822.0" type="line"/>
    </contour>
    <contour>
      <point x="1808.0" y="398.0" type="line"/>
      <point x="1808.0" y="577.0" type="line"/>
      <point x="194.0" y="577.0" type="line"/>
      <point x="194.0" y="398.0" type="line"/>
    </contour>
    <contour>
      <point x="437.0" y="97.0" type="line"/>
      <point x="366.0" y="578.0" type="line"/>
      <point x="171.0" y="578.0" type="line"/>
      <point x="242.0" y="97.0" type="line"/>
    </contour>
  </outline>
</glyph>
<glyph name="eopen" format="2">
  <advance width="2048"/>
  <unicode hex="025B"/>
  <anchor x="989" y="1225" name="top"/>
  <anchor x="1019" y="-82" name="base"/>
  <outline>
    <contour>
      <point x="103" y="1140" type="line"/>
      <point x="197" y="669" type="line"/>
      <point x="397" y="668" type="line"/>
      <point x="303" y="1139" type="line"/>
    </contour>
    <contour>
      <point x="181" y="1139" type="line"/>
      <point x="181" y="935" type="line"/>
      <point x="1924" y="935" type="line"/>
      <point x="1924" y="1139" type="line"/>
    </contour>
    <contour>
      <point x="170" y="203" type="line"/>
      <point x="170" y="0" type="line"/>
      <point x="1940" y="0" type="line"/>
      <point x="1940" y="203" type="line"/>
    </contour>
    <contour>
      <point x="343" y="670" type="line"/>
      <point x="343" y="470" type="line"/>
      <point x="1181" y="470" type="line"/>
      <point x="1181" y="670" type="line"/>
    </contour>
    <contour>
      <point x="204" y="473" type="line"/>
      <point x="96" y="2" type="line"/>
      <point x="296" y="1" type="line"/>
      <point x="404" y="472" type="line"/>
    </contour>
  </outline>
</glyph>
<glyph name="gamma-latin" format="2">
  <advance width="2048"/>
  <unicode hex="0263"/>
  <outline>
    <contour>
      <point x="81" y="935" type="line"/>
      <point x="1324" y="-158" type="line"/>
      <point x="1524" y="-158" type="line"/>
      <point x="281" y="935" type="line"/>
    </contour>
    <contour>
      <point x="1754" y="965" type="line"/>
      <point x="730" y="-158" type="line"/>
      <point x="929" y="-158" type="line"/>
      <point x="1954" y="965" type="line"/>
    </contour>
    <contour>
      <point x="731" y="-360" type="line"/>
      <point x="1525" y="-361" type="line"/>
      <point x="1525" y="-158" type="line"/>
      <point x="731" y="-158" type="line"/>
    </contour>
  </outline>
</glyph>
<glyph name="ramshorn" format="2">
  <advance width="2048"/>
  <unicode hex="0264"/>
  <anchor x="1049" y="1110" name="top"/>
  <outline>
    <contour>
      <point x="81" y="935" type="line"/>
      <point x="1324" y="202" type="line"/>
      <point x="1524" y="202" type="line"/>
      <point x="281" y="935" type="line"/>
    </contour>
    <contour>
      <point x="1754" y="965" type="line"/>
      <point x="730" y="202" type="line"/>
      <point x="929" y="202" type="line"/>
      <point x="1954" y="965" type="line"/>
    </contour>
    <contour>
      <point x="731" y="0" type="line"/>
      <point x="1525" y="-1" type="line"/>
      <point x="1525" y="202" type="line"/>
      <point x="731" y="202" type="line"/>
    </contour>
  </outline>
</glyph>
<glyph name="iota-latin" format="2">
  <advance width="2048"/>
  <unicode hex="0269"/>
  <outline>
    <contour>
      <point x="808" y="1018" type="line"/>
      <point x="808" y="239" type="line"/>
      <point x="1010" y="239" type="line"/>
      <point x="1010" y="1018" type="line"/>
    </contour>
    <contour>
      <point x="808" y="304" type="line"/>
      <point x="808" y="106" type="line"/>
      <point x="1816" y="6" type="line"/>
      <point x="1816" y="204" type="line"/>
    </contour>
  </outline>
</glyph>
<glyph name="uni0269" format="2">
  <advance width="2048"/>
  <unicode hex="0269"/>
  <anchor x="1021" y="1160" name="top"/>
  <outline>
    <contour>
      <point x="808" y="1018" type="line"/>
      <point x="808" y="239" type="line"/>
      <point x="1010" y="239" type="line"/>
      <point x="1010" y="1018" type="line"/>
    </contour>
    <contour>
      <point x="808" y="304" type="line"/>
      <point x="808" y="106" type="line"/>
      <point x="1816" y="6" type="line"/>
      <point x="1816" y="204" type="line"/>
    </contour>
  </outline>
</glyph>
<glyph name="uni026A" format="2">
  <advance width="2048"/>
  <unicode hex="026A"/>
  <anchor x="1027" y="1618" name="top"/>
  <anchor x="1029" y="-86" name="base"/>
  <outline>
    <contour>
      <point x="144" y="1019" type="line"/>
      <point x="144" y="817" type="line"/>
      <point x="1889" y="817" type="line"/>
      <point x="1889" y="1019" type="line"/>
    </contour>
    <contour>
      <point x="975" y="950" type="line"/>
      <point x="975" y="84" type="line"/>
      <point x="1175" y="84" type="line"/>
      <point x="1175" y="950" type="line"/>
    </contour>
    <contour>
      <point x="124" y="204" type="line"/>
      <point x="124" y="6" type="line"/>
      <point x="1924" y="6" type="line"/>
      <point x="1924" y="204" type="line"/>
    </contour>
  </outline>
</glyph>
<glyph name="uni026C" format="2">
  <advance width="2048"/>
  <unicode hex="026C"/>
  <anchor x="1027" y="-85" name="base"/>
  <anchor x="1009" y="1637" name="top"/>
  <outline>
    <contour>
      <point x="474" y="738" type="line"/>
      <point x="474" y="620" type="line"/>
      <point x="1448" y="620" type="line"/>
      <point x="1448" y="738" type="line"/>
    </contour>
    <contour>
      <point x="474" y="1026" type="line"/>
      <point x="474" y="620" type="line"/>
      <point x="592" y="620" type="line"/>
      <point x="592" y="1026" type="line"/>
    </contour>
    <contour>
      <point x="474" y="1026" type="line"/>
      <point x="474" y="905" type="line"/>
      <point x="1016" y="905" type="line"/>
      <point x="1016" y="1026" type="line"/>
    </contour>
    <contour>
      <point x="207" y="209" type="line"/>
      <point x="207" y="9" type="line"/>
      <point x="1841" y="9" type="line"/>
      <point x="1841" y="209" type="line"/>
    </contour>
    <contour>
      <point x="924" y="1548" type="line"/>
      <point x="924" y="86" type="line"/>
      <point x="1124" y="86" type="line"/>
      <point x="1124" y="1548" type="line"/>
    </contour>
    <contour>
      <point x="268" y="1548" type="line"/>
      <point x="268" y="1349" type="line"/>
      <point x="1003" y="1349" type="line"/>
      <point x="1003" y="1548" type="line"/>
    </contour>
  </outline>
</glyph>
<glyph name="rfishhookreversed" format="2">
  <advance width="2048"/>
  <unicode hex="027F"/>
  <anchor x="996" y="1153" name="top"/>
  <anchor x="989" y="-94" name="base"/>
  <outline>
    <contour>
      <point x="158" y="1023" type="line"/>
      <point x="158" y="821" type="line"/>
      <point x="1389" y="821" type="line"/>
      <point x="1389" y="1023" type="line"/>
    </contour>
    <contour>
      <point x="1188" y="954" type="line"/>
      <point x="1188" y="-492" type="line"/>
      <point x="1388" y="-492" type="line"/>
      <point x="1388" y="954" type="line"/>
    </contour>
  </outline>
</glyph>
<glyph name="uni0285" format="2">
  <advance width="2048"/>
  <unicode hex="0285"/>
  <outline>
    <contour>
      <point x="837" y="1001" type="line"/>
      <point x="1005" y="-399" type="line"/>
      <point x="1198" y="-399" type="line"/>
      <point x="1030" y="1001" type="line"/>
    </contour>
    <contour>
      <point x="762" y="-250" type="line"/>
      <point x="762" y="-400" type="line"/>
      <point x="1575" y="-400" type="line"/>
      <point x="1575" y="-250" type="line"/>
    </contour>
    <contour>
      <point x="580" y="1001" type="line"/>
      <point x="580" y="867" type="line"/>
      <point x="1240" y="864" type="line"/>
      <point x="1240" y="998" type="line"/>
    </contour>
  </outline>
</glyph>
<glyph name="uni0288" format="2">
  <advance width="2048"/>
  <unicode hex="0288"/>
  <anchor x="1009" y="1652" name="top"/>
  <anchor x="1041" y="-497" name="base"/>
  <outline>
    <contour>
      <point x="922" y="1548" type="line"/>
      <point x="922" y="-423" type="line"/>
      <point x="1122" y="-423" type="line"/>
      <point x="1122" y="1548" type="line"/>
    </contour>
    <contour>
      <point x="930" y="-224" type="line"/>
      <point x="930" y="-423" type="line"/>
      <point x="1822" y="-423" type="line"/>
      <point x="1822" y="-224" type="line"/>
    </contour>
    <contour>
      <point x="186" y="1023" type="line"/>
      <point x="186" y="824" type="line"/>
      <point x="1860" y="824" type="line"/>
      <point x="1860" y="1023" type="line"/>
    </contour>
  </outline>
</glyph>
<glyph name="uni028A" format="2">
  <advance width="2048"/>
  <unicode hex="028A"/>
  <anchor x="1030" y="1120" name="top"/>
  <outline>
    <contour>
      <point x="812" y="1023" type="line"/>
      <point x="255" y="0" type="line"/>
      <point x="456" y="0" type="line"/>
      <point x="1013" y="1023" type="line"/>
    </contour>
    <contour>
      <point x="1111" y="1023" type="line"/>
      <point x="1601" y="0" type="line"/>
      <point x="1801" y="0" type="line"/>
      <point x="1311" y="1023" type="line"/>
    </contour>
    <contour>
      <point x="447" y="196" type="line"/>
      <point x="447" y="0" type="line"/>
      <point x="1599" y="0" type="line"/>
      <point x="1599" y="203" type="line"/>
    </contour>
    <contour>
      <point x="1220" y="1023" type="line"/>
      <point x="1224" y="823" type="line"/>
      <point x="2034" y="823" type="line"/>
      <point x="2030" y="1023" type="line"/>
    </contour>
    <contour>
      <point x="89" y="1023" type="line"/>
      <point x="88" y="823" type="line"/>
      <point x="845" y="823" type="line"/>
      <point x="846" y="1023" type="line"/>
    </contour>
  </outline>
</glyph>
<glyph name="ezh" format="2">
  <advance width="2048"/>
  <unicode hex="0292"/>
  <outline>
    <contour>
      <point x="1884" y="0" type="line"/>
      <point x="1884" y="197" type="line"/>
      <point x="164" y="197" type="line"/>
      <point x="164" y="0" type="line"/>
    </contour>
    <contour>
      <point x="1882" y="39" type="line"/>
      <point x="1886" y="619" type="line"/>
      <point x="1684" y="619" type="line"/>
      <point x="1680" y="39" type="line"/>
    </contour>
    <contour>
      <point x="1780" y="418" type="line"/>
      <point x="1780" y="619" type="line"/>
      <point x="174" y="619" type="line"/>
      <point x="174" y="418" type="line"/>
    </contour>
    <contour>
      <point x="121" y="1274" type="line"/>
      <point x="121" y="1077" type="line"/>
      <point x="1973" y="1077" type="line"/>
      <point x="1973" y="1274" type="line"/>
    </contour>
    <contour>
      <point x="1590" y="1077" type="line"/>
      <point x="169" y="619" type="line"/>
      <point x="590" y="619" type="line"/>
      <point x="1973" y="1077" type="line"/>
    </contour>
  </outline>
</glyph>
<glyph name="glottalstop" format="2">
  <advance width="2048"/>
  <unicode hex="0294"/>
  <outline>
    <contour>
      <point x="804" y="1543" type="line"/>
      <point x="804" y="1343" type="line"/>
      <point x="1332" y="1343" type="line"/>
      <point x="1332" y="1543" type="line"/>
    </contour>
    <contour>
      <point x="1132" y="1543" type="line"/>
      <point x="1132" y="1028" type="line"/>
      <point x="1332" y="1028" type="line"/>
      <point x="1332" y="1543" type="line"/>
    </contour>
    <contour>
      <point x="872" y="1073" type="line"/>
      <point x="872" y="873" type="line"/>
      <point x="1332" y="873" type="line"/>
      <point x="1332" y="1073" type="line"/>
    </contour>
    <contour>
      <point x="859" y="1073" type="line"/>
      <point x="859" y="167" type="line"/>
      <point x="1059" y="167" type="line"/>
      <point x="1059" y="1073" type="line"/>
    </contour>
  </outline>
</glyph>
<glyph name="glottalstopreversed" format="2">
  <advance width="2048"/>
  <unicode hex="0295"/>
  <outline>
    <contour>
      <point x="1332" y="1543" type="line"/>
      <point x="804" y="1543" type="line"/>
      <point x="804" y="1343" type="line"/>
      <point x="1332" y="1343" type="line"/>
    </contour>
    <contour>
      <point x="1004" y="1543" type="line"/>
      <point x="804" y="1543" type="line"/>
      <point x="804" y="1028" type="line"/>
      <point x="1004" y="1028" type="line"/>
    </contour>
    <contour>
      <point x="1264" y="1073" type="line"/>
      <point x="804" y="1073" type="line"/>
      <point x="804" y="873" type="line"/>
      <point x="1264" y="873" type="line"/>
    </contour>
    <contour>
      <point x="1277" y="1073" type="line"/>
      <point x="1077" y="1073" type="line"/>
      <point x="1077" y="167" type="line"/>
      <point x="1277" y="167" type="line"/>
    </contour>
  </outline>
</glyph>
<glyph name="uni029D" format="2">
  <advance width="2048"/>
  <unicode hex="029D"/>
  <anchor x="1749" y="1556" name="top"/>
  <anchor x="1004" y="-497" name="base"/>
  <outline>
    <contour>
      <point x="1640" y="1023" type="line"/>
      <point x="1640" y="-411" type="line"/>
      <point x="1838" y="-411" type="line"/>
      <point x="1838" y="1023" type="line"/>
    </contour>
    <contour>
      <point x="210" y="-209" type="line"/>
      <point x="210" y="-406" type="line"/>
      <point x="1740" y="-406" type="line"/>
      <point x="1740" y="-209" type="line"/>
    </contour>
    <contour>
      <point x="210" y="-6" type="line"/>
      <point x="210" y="-351" type="line"/>
      <point x="410" y="-351" type="line"/>
      <point x="410" y="-6" type="line"/>
    </contour>
    <contour>
      <point x="1636" y="1483" type="line"/>
      <point x="1636" y="1281" type="line"/>
      <point x="1860" y="1281" type="line"/>
      <point x="1860" y="1483" type="line"/>
    </contour>
    <contour>
      <point x="209.501" y="-33" type="line"/>
      <point x="2015.16" y="-33" type="line"/>
      <point x="2015.16" y="175" type="line"/>
      <point x="209.501" y="175" type="line"/>
    </contour>
  </outline>
</glyph>
<glyph name="circumflex" format="2">
  <advance width="2048"/>
  <unicode hex="02C6"/>
  <outline>
    <contour>
      <point x="1054.5" y="2158" type="line"/>
      <point x="994.5" y="2158" type="line"/>
      <point x="888.5" y="1911" type="line"/>
      <point x="948.5" y="1886" type="line"/>
    </contour>
    <contour>
      <point x="996.5" y="2110" type="line"/>
      <point x="1099.5" y="1886" type="line"/>
      <point x="1159.5" y="1908" type="line"/>
      <point x="1054.5" y="2158" type="line"/>
    </contour>
  </outline>
</glyph>
<glyph name="caron" format="2">
  <advance width="2048"/>
  <unicode hex="02C7"/>
  <outline>
    <contour>
      <point x="979.0" y="1158.0" type="line"/>
      <point x="873.0" y="1430.0" type="line"/>
      <point x="813.0" y="1405.0" type="line"/>
      <point x="919.0" y="1158.0" type="line"/>
    </contour>
    <contour>
      <point x="921.0" y="1206.0" type="line"/>
      <point x="979.0" y="1158.0" type="line"/>
      <point x="1084.0" y="1408.0" type="line"/>
      <point x="1024.0" y="1430.0" type="line"/>
    </contour>
  </outline>
</glyph>
<glyph name="verticallinemod" format="2">
  <advance width="2048"/>
  <unicode hex="02C8"/>
  <outline>
    <contour>
      <point x="921" y="1823" type="line"/>
      <point x="921" y="1025" type="line"/>
      <point x="1123" y="1025" type="line"/>
      <point x="1123" y="1823" type="line"/>
    </contour>
  </outline>
</glyph>
<glyph name="uni02CA" format="2">
	<unicode hex="02CA"/>
	<advance width="2048"/>
	<outline>
		<contour>
			<point x="1044" y="2180" type="line"/>
			<point x="914" y="1926" type="line"/>
			<point x="1002" y="1880" type="line"/>
			<point x="1134" y="2135" type="line"/>
		</contour>
	</outline>
</glyph>
<glyph name="uni02CB" format="2">
  <advance width="2048"/>
  <unicode hex="02CB"/>
  <outline>
    <contour>
      <point x="918.0" y="2107.0" type="line"/>
      <point x="1038.0" y="1871.0" type="line"/>
      <point x="1130.0" y="1917.0" type="line"/>
      <point x="1010.0" y="2154.0" type="line"/>
    </contour>
  </outline>
</glyph>
<glyph name="breve" format="2">
  <advance width="2048"/>
  <unicode hex="02D8"/>
  <outline>
    <contour>
      <point x="1102.0" y="1548.0" type="line"/>
      <point x="1102.0" y="1480.0" type="line"/>
      <point x="1267.0" y="1548.0" type="line"/>
      <point x="1267.0" y="1645.0" type="line"/>
    </contour>
    <contour>
      <point x="778.0" y="1548.0" type="line"/>
      <point x="778.0" y="1480.0" type="line"/>
      <point x="1102.0" y="1480.0" type="line"/>
      <point x="1102.0" y="1548.0" type="line"/>
    </contour>
    <contour>
      <point x="607.0" y="1630.0" type="line"/>
      <point x="607.0" y="1548.0" type="line"/>
      <point x="778.0" y="1480.0" type="line"/>
      <point x="778.0" y="1548.0" type="line"/>
    </contour>
  </outline>
</glyph>
<glyph name="dotaccent" format="2">
  <advance width="2048"/>
  <unicode hex="02D9"/>
  <outline>
    <contour>
      <point x="908.0" y="1023.0" type="line"/>
      <point x="908.0" y="926.0" type="line"/>
      <point x="1020.0" y="926.0" type="line"/>
      <point x="1020.0" y="1023.0" type="line"/>
    </contour>
  </outline>
</glyph>
<glyph name="ring" format="2">
  <advance height="1023" width="2048"/>
  <unicode hex="02DA"/>
  <outline>
    <contour>
      <point x="949.0" y="1364.0" type="line"/>
      <point x="1097.0" y="1364.0" type="line"/>
      <point x="1097.0" y="1234.0" type="line"/>
      <point x="949.0" y="1234.0" type="line"/>
    </contour>
    <contour>
      <point x="844.0" y="1455.0" type="line"/>
      <point x="844.0" y="1145.0" type="line"/>
      <point x="1204.0" y="1145.0" type="line"/>
      <point x="1204.0" y="1455.0" type="line"/>
    </contour>
  </outline>
</glyph>
<glyph name="ogonek" format="2">
	<unicode hex="02DB"/>
	<advance width="2048"/>
	<outline>
		<contour>
			<point x="753" y="-274" type="line"/>
			<point x="753" y="-396" type="line"/>
			<point x="1295" y="-396" type="line"/>
			<point x="1295" y="-274" type="line"/>
		</contour>
		<contour>
			<point x="753" y="14" type="line"/>
			<point x="753" y="-396" type="line"/>
			<point x="871" y="-396" type="line"/>
			<point x="871" y="14" type="line"/>
		</contour>
		<contour>
			<point x="753" y="14" type="line"/>
			<point x="753" y="-107" type="line"/>
			<point x="1295" y="-107" type="line"/>
			<point x="1295" y="14" type="line"/>
		</contour>
	</outline>
</glyph>
<glyph name="tilde" format="2">
  <advance width="2048"/>
  <unicode hex="02DC"/>
  <outline>
    <contour>
      <point x="858.0" y="781.0" type="line"/>
      <point x="858.0" y="682.0" type="line"/>
      <point x="1208.0" y="621.0" type="line"/>
      <point x="1208.0" y="720.0" type="line"/>
    </contour>
    <contour>
      <point x="620.0" y="723.0" type="line"/>
      <point x="636.0" y="625.0" type="line"/>
      <point x="858.0" y="682.0" type="line"/>
      <point x="858.0" y="781.0" type="line"/>
    </contour>
    <contour>
      <point x="1208.0" y="720.0" type="line"/>
      <point x="1208.0" y="621.0" type="line"/>
      <point x="1390.0" y="762.0" type="line"/>
      <point x="1366.0" y="858.0" type="line"/>
    </contour>
  </outline>
</glyph>
<glyph name="hungarumlaut" format="2">
  <advance height="1023" width="2048"/>
  <unicode hex="02DD"/>
  <outline>
    <contour>
      <point x="752.0" y="1145.0" type="line"/>
      <point x="896.0" y="1145.0" type="line"/>
      <point x="896.0" y="1393.0" type="line"/>
      <point x="752.0" y="1393.0" type="line"/>
    </contour>
    <contour>
      <point x="1152.0" y="1145.0" type="line"/>
      <point x="1296.0" y="1145.0" type="line"/>
      <point x="1296.0" y="1393.0" type="line"/>
      <point x="1152.0" y="1393.0" type="line"/>
    </contour>
  </outline>
</glyph>
<glyph name="gravecomb" format="2">
  <advance width="0"/>
  <unicode hex="0300"/>
  <anchor x="7" y="1152" name="_top"/>
  <outline>
    <contour>
      <point x="-236" y="1515" type="line"/>
      <point x="-70" y="1199" type="line"/>
      <point x="123" y="1287" type="line"/>
      <point x="-43" y="1604" type="line"/>
    </contour>
  </outline>
</glyph>
<glyph name="acutecomb" format="2">
  <unicode hex="0301"/>
  <outline>
    <contour>
      <point x="1044.0" y="980.0" type="line"/>
      <point x="914.0" y="726.0" type="line"/>
      <point x="1002.0" y="680.0" type="line"/>
      <point x="1134.0" y="935.0" type="line"/>
    </contour>
  </outline>
</glyph>
<glyph name="uni0302" format="2">
  <unicode hex="0302"/>
  <outline>
    <contour>
      <point x="1062.0" y="2300.0" type="line"/>
      <point x="987.0" y="2300.0" type="line"/>
      <point x="855.0" y="1992.0" type="line"/>
      <point x="930.0" y="1960.0" type="line"/>
    </contour>
    <contour>
      <point x="990.0" y="2240.0" type="line"/>
      <point x="1118.0" y="1960.0" type="line"/>
      <point x="1193.0" y="1988.0" type="line"/>
      <point x="1062.0" y="2300.0" type="line"/>
    </contour>
  </outline>
</glyph>
<glyph name="tildecomb" format="2">
  <advance width="2048"/>
  <unicode hex="0303"/>
  <outline>
    <contour>
      <point x="877.5" y="2015" type="line"/>
      <point x="877.5" y="1916" type="line"/>
      <point x="1227.5" y="1855" type="line"/>
      <point x="1227.5" y="1954" type="line"/>
    </contour>
    <contour>
      <point x="639.5" y="1957" type="line"/>
      <point x="654.5" y="1859" type="line"/>
      <point x="877.5" y="1916" type="line"/>
      <point x="877.5" y="2015" type="line"/>
    </contour>
    <contour>
      <point x="1227.5" y="1954" type="line"/>
      <point x="1227.5" y="1855" type="line"/>
      <point x="1408.5" y="1996" type="line"/>
      <point x="1384.5" y="2092" type="line"/>
    </contour>
  </outline>
</glyph>
<glyph name="uni0304" format="2">
  <unicode hex="0304"/>
  <anchor x="10" y="776" name="_top"/>
  <outline>
    <contour>
      <point x="-449" y="1006" type="line"/>
      <point x="-443" y="834" type="line"/>
      <point x="594" y="834" type="line"/>
      <point x="589" y="1006" type="line"/>
    </contour>
  </outline>
</glyph>
<glyph name="uni0305" format="2">
  <advance width="0"/>
  <unicode hex="0305"/>
  <anchor x="542" y="1480" name="_top"/>
  <outline>
    <contour>
      <point x="-377" y="1602" type="line"/>
      <point x="-377" y="1542" type="line"/>
      <point x="377" y="1542" type="line"/>
      <point x="377" y="1602" type="line"/>
    </contour>
  </outline>
</glyph>
<glyph name="uni0306" format="2">
  <advance width="0"/>
  <unicode hex="0306"/>
  <anchor x="-7" y="774" name="_top"/>
  <outline>
    <contour>
      <point x="137" y="882" type="line"/>
      <point x="137" y="814" type="line"/>
      <point x="302" y="882" type="line"/>
      <point x="302" y="979" type="line"/>
    </contour>
    <contour>
      <point x="-187" y="882" type="line"/>
      <point x="-187" y="814" type="line"/>
      <point x="137" y="814" type="line"/>
      <point x="137" y="882" type="line"/>
    </contour>
    <contour>
      <point x="-358" y="964" type="line"/>
      <point x="-358" y="882" type="line"/>
      <point x="-187" y="814" type="line"/>
      <point x="-187" y="882" type="line"/>
    </contour>
  </outline>
</glyph>
